<svg width="176" height="66" viewBox="0 0 176 66" fill="none" xmlns="http://www.w3.org/2000/svg">
<path d="M108.869 59.346H108.644H108.117L106.764 62.5011L105.336 59.346H104.584V59.4211L106.313 63.3274L105.486 65.2806H105.712H106.238L108.869 59.346ZM104.584 59.346H104.81H104.584ZM105.486 65.2806L105.787 64.6796L105.486 65.2806ZM108.869 59.346L108.268 60.7733L108.869 59.346ZM134.881 59.2708V57.7684H134.204V59.346H133.528H133.452V60.0221H134.204V60.1723V63.7782H134.881V63.6279V60.0221H135.708V59.346L134.881 59.2708ZM134.129 63.7782V63.6279V63.7782ZM94.886 59.346H94.6605H94.1342L92.781 62.3508L91.4278 59.4211H90.676V59.4962L92.6307 63.7782H92.8562L94.886 59.346ZM90.6009 59.346H90.8264H90.6009ZM94.886 59.346L94.3598 60.4728L94.886 59.346ZM123.83 59.2708C123.078 59.2708 122.476 59.5713 122.1 60.0972C121.725 60.5479 121.574 60.9987 121.574 61.5996C121.574 62.2006 121.8 62.7265 122.176 63.1772C122.552 63.6279 123.153 63.8533 123.83 63.8533C124.13 63.8533 124.431 63.7782 124.732 63.703C124.957 63.6279 125.258 63.4777 125.408 63.2523C125.634 63.0269 125.784 62.8016 125.935 62.5011V62.426L125.408 62.1255H125.333L125.258 62.2006C125.108 62.5011 124.957 62.6513 124.807 62.8016C124.657 62.9518 124.506 63.0269 124.281 63.1021C124.055 63.1772 123.905 63.1772 123.679 63.1772C123.228 63.1772 122.927 63.0269 122.627 62.7265C122.326 62.426 122.176 62.1255 122.176 61.6747H122.476H126.01V61.5996C126.01 60.9987 125.859 60.4728 125.483 60.0972C125.183 59.4962 124.581 59.2708 123.83 59.2708ZM122.326 61.6747C122.326 61.6747 122.326 61.7499 122.326 61.6747C122.326 61.7499 122.326 61.6747 122.326 61.6747ZM124.807 61.0738H122.401C122.476 60.7733 122.627 60.5479 122.852 60.3226C123.153 60.0972 123.454 59.9469 123.905 59.9469C124.13 59.9469 124.356 60.0221 124.581 60.0972C124.807 60.1723 124.957 60.3226 125.108 60.4728C125.183 60.623 125.333 60.7733 125.408 61.0738H124.807ZM125.333 61.0738V60.9986C125.333 60.9986 125.333 60.9987 125.333 61.0738ZM116.763 59.9469C116.312 59.4962 115.786 59.2708 115.184 59.2708C114.808 59.2708 114.507 59.346 114.207 59.4962C113.981 59.6465 113.756 59.7967 113.53 60.0221V59.0455V57.8435H112.778V63.9284H113.53V63.3274C113.53 63.4026 113.605 63.4026 113.681 63.4777C113.831 63.6279 113.981 63.7782 114.132 63.8533C114.432 64.0035 114.733 64.0787 115.109 64.0787C115.71 64.0787 116.237 63.8533 116.688 63.4026C117.139 62.9518 117.364 62.426 117.364 61.7499C117.364 60.9235 117.139 60.3977 116.763 59.9469ZM113.53 59.9469C113.605 59.8718 113.605 59.8718 113.681 59.7967C113.605 59.8718 113.53 59.8718 113.53 59.9469ZM113.53 63.4026V63.1021V63.4026ZM116.462 62.3508C116.312 62.5762 116.086 62.8016 115.861 62.9518C115.635 63.1021 115.334 63.1772 115.034 63.1772C114.583 63.1772 114.207 63.0269 113.906 62.7265C113.605 62.426 113.455 62.0504 113.455 61.5245C113.455 61.4494 113.455 61.3743 113.455 61.3743V61.2991C113.455 61.224 113.53 61.0738 113.53 60.9986C113.53 60.9986 113.53 60.9235 113.605 60.9235C113.605 60.8484 113.681 60.8484 113.681 60.7733C113.831 60.5479 113.981 60.3226 114.282 60.1723C114.507 60.0221 114.808 59.9469 115.109 59.9469C115.41 59.9469 115.635 60.0221 115.861 60.1723C116.086 60.3226 116.312 60.5479 116.462 60.7733C116.612 61.0738 116.688 61.2991 116.688 61.5996C116.688 61.825 116.612 62.1255 116.462 62.3508ZM87.6689 59.2708C87.5937 59.2708 87.5937 59.2708 87.6689 59.2708C86.9171 59.2708 86.3157 59.5713 85.9398 60.0972C85.5639 60.5479 85.4136 60.9987 85.4136 61.5996C85.4136 62.2006 85.6391 62.7265 86.015 63.1772C86.3909 63.6279 86.9923 63.8533 87.6689 63.8533C87.9696 63.8533 88.2703 63.7782 88.5711 63.703C88.7966 63.6279 89.0973 63.4777 89.2477 63.2523C89.4732 63.0269 89.6235 62.8016 89.7739 62.5011V62.426L89.2477 62.1255H89.1725L89.0973 62.2006C88.9469 62.5011 88.7966 62.6513 88.6462 62.8016C88.4959 62.9518 88.3455 63.0269 88.12 63.1021C87.8945 63.1772 87.7441 63.1772 87.5186 63.1772C87.0675 63.1772 86.7668 63.0269 86.4661 62.7265C86.1654 62.426 86.015 62.1255 86.015 61.6747H86.3157H89.8491V61.5996C89.8491 60.9987 89.6987 60.4728 89.3228 60.0972C89.0221 59.4962 88.3455 59.2708 87.6689 59.2708ZM86.0902 61.6747C86.0902 61.6747 86.0902 61.7499 86.0902 61.6747C86.0902 61.7499 86.0902 61.6747 86.0902 61.6747ZM88.4959 61.0738H86.1654C86.2405 60.7733 86.3909 60.5479 86.6164 60.3226C86.9171 60.0972 87.2178 59.9469 87.6689 59.9469C87.8944 59.9469 88.12 60.0221 88.3455 60.0972C88.5711 60.1723 88.7214 60.3226 88.8718 60.4728C89.0221 60.623 89.0973 60.7733 89.1725 61.0738H88.4959ZM89.0973 61.0738C89.0973 60.9987 89.0973 60.9986 89.0973 60.9986C89.0973 60.9986 89.0973 60.9987 89.0973 61.0738ZM97.9683 59.2708C97.2165 59.2708 96.6151 59.5713 96.2392 60.0972C95.8633 60.5479 95.713 60.9987 95.713 61.5996C95.713 62.2006 95.9385 62.7265 96.3144 63.1772C96.6903 63.6279 97.2917 63.8533 97.9683 63.8533C98.269 63.8533 98.5697 63.7782 98.8705 63.703C99.096 63.6279 99.3967 63.4777 99.547 63.2523C99.7726 63.0269 99.9229 62.8016 100.073 62.5011V62.426L99.547 62.1255H99.4719L99.3967 62.2006C99.2463 62.5011 99.096 62.6513 98.9456 62.8016C98.7953 62.9518 98.6449 63.0269 98.4194 63.1021C98.1938 63.1772 98.0435 63.1772 97.818 63.1772C97.3669 63.1772 97.0662 63.0269 96.7655 62.7265C96.4648 62.426 96.3144 62.1255 96.3144 61.6747H96.6151H100.148V61.5996C100.148 60.9987 99.9981 60.4728 99.6222 60.0972C99.3215 59.4962 98.7201 59.2708 97.9683 59.2708ZM98.7953 61.0738H96.4648C96.5399 60.7733 96.6903 60.5479 96.9158 60.3226C97.2165 60.0972 97.5172 59.9469 97.8931 59.9469C98.1187 59.9469 98.3442 60.0221 98.5697 60.0972C98.7953 60.1723 98.9456 60.3226 99.096 60.4728C99.1712 60.623 99.3215 60.7733 99.3967 61.0738H98.7953ZM99.4719 61.0738V60.9986C99.3967 60.9986 99.4719 60.9987 99.4719 61.0738ZM103.306 59.2708C103.08 59.2708 102.855 59.346 102.705 59.4962C102.554 59.5713 102.404 59.7216 102.329 59.8718V59.6465V59.4211H101.577V63.8533H102.253V62.3508C102.253 61.5996 102.253 61.1489 102.329 60.9235C102.404 60.623 102.554 60.3977 102.705 60.2474C102.855 60.0972 103.005 60.0221 103.156 60.0221C103.231 60.0221 103.306 60.0221 103.381 60.0972H103.456L103.757 59.5713L103.832 59.4962L103.757 59.4211C103.682 59.2708 103.456 59.2708 103.306 59.2708ZM101.577 63.7782V63.4777V63.7782ZM102.253 59.7967C102.253 59.7216 102.329 59.7216 102.329 59.7216C102.329 59.7216 102.329 59.7967 102.253 59.7967ZM131.272 59.9469C131.122 59.7216 130.896 59.5713 130.671 59.4211C130.37 59.2708 130.069 59.1957 129.693 59.1957C129.092 59.1957 128.491 59.4211 128.115 59.8718C127.664 60.3226 127.438 60.8484 127.438 61.5245C127.438 62.2006 127.664 62.7265 128.115 63.1772C128.566 63.6279 129.092 63.8533 129.693 63.8533C130.069 63.8533 130.37 63.7782 130.671 63.6279C130.896 63.4777 131.122 63.3274 131.347 63.1772V63.4026V63.7782H132.024V63.6279V59.346H131.347L131.272 59.9469ZM131.272 63.1772C131.197 63.2523 131.197 63.2523 131.122 63.2523C131.197 63.2523 131.272 63.1772 131.272 63.1772ZM131.122 62.426C130.971 62.6513 130.821 62.8767 130.52 63.0269C130.295 63.1772 129.994 63.2523 129.693 63.2523C129.393 63.2523 129.167 63.1772 128.942 63.0269C128.716 62.8767 128.491 62.6513 128.34 62.426C128.19 62.2006 128.115 61.9001 128.115 61.5996C128.115 61.2991 128.19 61.0738 128.34 60.7733C128.491 60.5479 128.641 60.3226 128.942 60.1723C129.167 60.0221 129.468 59.9469 129.769 59.9469C130.22 59.9469 130.596 60.0972 130.896 60.3977C131.197 60.6982 131.347 61.0738 131.347 61.5996C131.347 61.9001 131.272 62.2006 131.122 62.426ZM120.371 59.2708C120.146 59.2708 119.92 59.346 119.77 59.4962C119.62 59.5713 119.469 59.7216 119.394 59.8718V59.6465V59.4211H118.642V63.8533H119.319V63.7782V62.2757C119.319 61.5245 119.394 61.0738 119.394 60.8484C119.469 60.5479 119.62 60.3226 119.77 60.1723C119.92 60.0221 120.071 59.9469 120.221 59.9469C120.296 59.9469 120.371 59.9469 120.447 60.0221H120.522L120.822 59.4962V59.4211L120.747 59.346C120.747 59.2708 120.522 59.2708 120.371 59.2708ZM119.319 59.7967C119.319 59.7216 119.394 59.7216 119.394 59.7216C119.394 59.7216 119.394 59.7967 119.319 59.7967ZM140.143 59.4962C139.842 59.346 139.542 59.2708 139.241 59.2708C138.94 59.2708 138.64 59.346 138.339 59.4962C138.113 59.6465 137.888 59.7967 137.737 60.0221V58.9704V57.7684H136.986V63.8533H137.662V63.7782V62.2006C137.662 61.6748 137.662 61.224 137.737 61.0738C137.813 60.7733 137.963 60.5479 138.189 60.3226C138.414 60.0972 138.715 60.0221 139.016 60.0221C139.316 60.0221 139.467 60.0972 139.692 60.2474C139.842 60.3977 139.993 60.5479 139.993 60.8484C140.068 60.9987 140.068 61.2991 140.068 61.825V63.9284H140.745V61.6747C140.745 61.0738 140.669 60.623 140.594 60.3226C140.594 59.8718 140.369 59.6465 140.143 59.4962ZM137.662 59.9469C137.737 59.8718 137.737 59.8718 137.813 59.7967C137.813 59.8718 137.737 59.9469 137.662 59.9469ZM140.143 63.7782V63.703V63.7782ZM163.824 59.346H163.599H163.072L161.719 62.5011L160.291 59.346H159.539V59.4211L161.268 63.3274L160.441 65.2806H160.667H161.193L163.824 59.346ZM159.539 59.346H159.765H159.539ZM160.441 65.2806L160.742 64.6796L160.441 65.2806ZM163.824 59.346L163.148 60.9235L163.824 59.346ZM173.823 59.346V61.4494C173.823 61.9752 173.823 62.3508 173.748 62.426C173.673 62.6513 173.522 62.8016 173.372 62.9518C173.146 63.1021 172.921 63.1772 172.62 63.1772C172.319 63.1772 172.094 63.1021 171.868 62.9518C171.643 62.8016 171.568 62.6513 171.492 62.3508C171.417 62.2006 171.417 61.825 171.417 61.3743V59.346H170.741V61.4494C170.741 62.0504 170.816 62.5011 170.966 62.8016C171.117 63.1021 171.342 63.3274 171.643 63.5528C171.944 63.703 172.319 63.8533 172.695 63.8533C173.146 63.8533 173.447 63.7782 173.748 63.5528C174.048 63.4026 174.274 63.1021 174.424 62.8016C174.575 62.5011 174.65 62.0504 174.65 61.4494V59.346H173.823ZM146.458 57.6182C146.233 57.6182 146.082 57.6933 145.932 57.7684C145.782 57.8435 145.706 57.9938 145.631 58.144C145.556 58.2943 145.556 58.5196 145.556 58.8201V59.346L145.03 59.346V59.9469H145.556V63.703H146.233V59.9469H147.06V59.346H146.157V58.8952C146.157 58.6699 146.157 58.5196 146.157 58.4445L146.233 58.3694C146.308 58.3694 146.383 58.2943 146.458 58.2943C146.609 58.2943 146.759 58.3694 146.909 58.4445L146.984 58.5196V58.2943V57.7684H146.909C146.834 57.6182 146.684 57.6182 146.458 57.6182ZM152.172 59.9469C151.721 59.4962 151.194 59.1957 150.518 59.1957C149.841 59.1957 149.24 59.4211 148.789 59.9469C148.413 60.3977 148.187 60.9235 148.187 61.5245C148.187 62.1255 148.413 62.6513 148.864 63.1021C149.315 63.5528 149.841 63.7782 150.518 63.7782C151.194 63.7782 151.721 63.5528 152.172 63.1021C152.623 62.6513 152.848 62.1255 152.848 61.5245C152.773 60.9235 152.548 60.3977 152.172 59.9469ZM151.796 62.426C151.645 62.6513 151.495 62.8767 151.194 63.0269C150.969 63.1772 150.668 63.2523 150.367 63.2523C150.067 63.2523 149.841 63.1772 149.54 63.0269C149.315 62.8767 149.089 62.7265 148.939 62.426C148.789 62.2006 148.713 61.9001 148.713 61.5996C148.713 61.1489 148.864 60.7733 149.165 60.4728C149.465 60.1723 149.841 60.0221 150.292 60.0221C150.743 60.0221 151.119 60.1723 151.42 60.4728C151.721 60.7733 151.871 61.1489 151.871 61.5996C152.021 61.9001 151.946 62.1255 151.796 62.426ZM168.711 59.9469C168.26 59.4962 167.734 59.1957 167.057 59.1957C166.38 59.1957 165.779 59.4211 165.403 59.9469C165.027 60.3977 164.802 60.9235 164.802 61.5245C164.802 62.1255 165.027 62.6513 165.478 63.1021C165.929 63.5528 166.456 63.7782 167.132 63.7782C167.809 63.7782 168.335 63.5528 168.786 63.1021C169.237 62.6513 169.463 62.1255 169.463 61.5245C169.312 60.9987 169.087 60.3977 168.711 59.9469ZM168.335 62.426C168.185 62.6513 168.034 62.8767 167.734 63.0269C167.508 63.1772 167.207 63.2523 166.907 63.2523C166.606 63.2523 166.38 63.1772 166.08 63.0269C165.854 62.8767 165.629 62.7265 165.478 62.426C165.328 62.2006 165.253 61.9001 165.253 61.5996C165.253 61.1489 165.403 60.7733 165.704 60.4728C166.004 60.1723 166.38 60.0221 166.831 60.0221C167.282 60.0221 167.658 60.1723 167.959 60.4728C168.26 60.7733 168.41 61.1489 168.41 61.5996C168.56 61.9001 168.485 62.1255 168.335 62.426ZM155.78 59.2708C155.555 59.2708 155.329 59.346 155.179 59.4962C155.028 59.5713 154.878 59.7216 154.803 59.8718V59.6465V59.4211H154.051V63.8533H154.728V62.3508C154.728 61.5996 154.728 61.1489 154.803 60.9235C154.878 60.623 155.028 60.3977 155.179 60.2474C155.329 60.0972 155.48 60.0221 155.63 60.0221C155.705 60.0221 155.78 60.0221 155.855 60.0972H155.931L156.306 59.4962L156.231 59.4211C156.081 59.2708 155.931 59.2708 155.78 59.2708ZM153.976 63.7782V63.6279V63.7782ZM154.728 59.7967C154.728 59.7216 154.803 59.7216 154.803 59.7216L154.728 59.7967Z" fill="#606161"/>
<path d="M3.54475 45.4501C4.29653 45.4501 4.89796 45.375 5.34903 45.1496C5.80009 44.9242 6.17598 44.6237 6.40152 44.2481C6.62705 43.8725 6.77741 43.4218 6.77741 42.8959C6.77741 42.295 6.62705 41.7691 6.25116 41.3184C5.87527 40.8676 5.4242 40.6423 4.82278 40.492C4.44689 40.4169 3.69511 40.3418 2.64262 40.3418H0.687988L0.687988 49.732H1.74048C1.74048 49.732 1.74048 45.5252 1.74048 45.375C1.81566 45.375 2.19155 45.375 2.19155 45.375L5.57456 49.6569H6.85259H6.92777C7.00294 49.732 3.61993 45.6003 3.54475 45.4501ZM3.31922 44.3984C3.31922 44.3984 1.81566 44.3984 1.74048 44.3984C1.74048 44.3233 1.74048 41.4686 1.74048 41.3184C1.81566 41.3184 3.3944 41.3184 3.3944 41.3184C4.071 41.3184 4.52207 41.3935 4.82278 41.4686C5.04831 41.5437 5.27385 41.7691 5.49938 41.9945C5.64974 42.2198 5.72492 42.5203 5.72492 42.8208C5.72492 43.1213 5.64974 43.4218 5.49938 43.6472C5.34903 43.8725 5.12349 44.0979 4.82278 44.173C4.44689 44.3984 3.99582 44.3984 3.31922 44.3984Z" fill="#201D1E"/>
<path d="M22.9413 41.3173V40.2656H17.303V49.6559H22.8662V48.6793C22.8662 48.6793 18.4306 48.6793 18.3555 48.6793C18.3555 48.6042 18.3555 45.2237 18.3555 45.1485C18.4306 45.1485 22.8662 45.1485 22.8662 45.1485V44.0968C22.8662 44.0968 18.4306 44.0968 18.3555 44.0968C18.3555 44.0217 18.3555 41.3925 18.3555 41.2422C18.5058 41.3173 22.9413 41.3173 22.9413 41.3173Z" fill="#201D1E"/>
<path d="M37.3 45.9748C36.9993 45.5241 36.3979 44.9982 35.5709 44.3973C34.8943 43.8714 34.4433 43.5709 34.2929 43.4958C34.0674 43.2704 33.917 43.0451 33.8419 42.8948C33.7667 42.7446 33.6915 42.5192 33.6915 42.2938C33.6915 41.9934 33.8419 41.6929 34.0674 41.4675C34.2929 41.2421 34.5936 41.167 34.9695 41.167C35.2702 41.167 35.5709 41.2421 35.7965 41.3924C36.022 41.5426 36.3227 41.8431 36.6986 42.2938L37.5256 41.6929C37.0745 41.0919 36.6234 40.7163 36.2475 40.4909C35.8717 40.2656 35.4206 40.1904 34.9695 40.1904C34.5185 40.1904 34.1426 40.2656 33.7667 40.4909C33.3908 40.6412 33.0901 40.9416 32.8645 41.3173C32.639 41.6177 32.5638 42.0685 32.5638 42.4441C32.5638 42.9699 32.7142 43.4207 33.0901 43.8714C33.3156 44.1719 33.7667 44.6226 34.5936 45.1485C35.4206 45.7494 35.9468 46.2002 36.2475 46.6509C36.4731 46.9514 36.5483 47.2519 36.5483 47.5524C36.5483 47.8529 36.4731 48.0782 36.3227 48.3036C36.1724 48.529 35.9468 48.7543 35.7213 48.9046C35.4206 49.0548 35.1199 49.1299 34.8192 49.1299C34.0674 49.1299 33.466 48.6041 32.8645 47.6275V47.5524L31.9624 48.0782C32.3383 48.8294 32.7894 49.3553 33.3156 49.6558C33.7667 49.9563 34.3681 50.1065 34.8943 50.1065C35.6461 50.1065 36.3227 49.806 36.849 49.3553C37.3752 48.8294 37.6759 48.2285 37.6759 47.5524C37.8263 46.9514 37.6759 46.5007 37.3 45.9748Z" fill="#201D1E"/>
<path d="M53.9145 41.3169C53.5386 40.9413 53.0875 40.6408 52.5613 40.4906C52.1854 40.4155 51.4336 40.3403 50.3059 40.3403H48.3513V49.7306H49.4038C49.4038 49.7306 49.4038 45.5237 49.4038 45.3735C49.479 45.3735 50.0052 45.3735 50.0052 45.3735C51.2081 45.3735 52.035 45.2984 52.4861 45.2233C53.0875 45.073 53.5386 44.7725 53.9145 44.3969C54.2904 44.0213 54.4407 43.4954 54.4407 42.8194C54.4407 42.2184 54.2152 41.6925 53.9145 41.3169ZM50.9074 44.3969C50.9074 44.3969 49.4038 44.3969 49.3286 44.3969C49.3286 44.3218 49.3286 41.4672 49.3286 41.3169C49.4038 41.3169 50.9825 41.3169 50.9825 41.3169C51.6591 41.3169 52.1102 41.392 52.3357 41.4672C52.6365 41.5423 52.862 41.7676 53.0123 41.993C53.1627 42.2184 53.2379 42.5189 53.2379 42.8194C53.2379 43.1198 53.1627 43.4203 53.0123 43.6457C52.862 43.8711 52.6365 44.0964 52.3357 44.1715C52.1102 44.3969 51.584 44.3969 50.9074 44.3969Z" fill="#201D1E"/>
<path d="M65.7168 40.3403H64.6643V49.7306H65.7168V40.3403Z" fill="#201D1E"/>
<path d="M79.2489 45.4486C80.0006 45.4486 80.6021 45.3735 81.0531 45.1481C81.5042 44.9228 81.8801 44.6223 82.1056 44.2467C82.3312 43.8711 82.4815 43.3452 82.4815 42.8945C82.4815 42.2935 82.3312 41.7676 81.9553 41.3169C81.5794 40.8662 81.1283 40.6408 80.5269 40.4906C80.151 40.4155 79.3992 40.3403 78.3467 40.3403H76.3921V49.7306H77.4446C77.4446 49.7306 77.4446 45.5237 77.4446 45.3735C77.5198 45.3735 77.8957 45.3735 77.8957 45.3735L81.2787 49.6554H82.4815H82.5567C82.7071 49.7306 79.3992 45.5989 79.2489 45.4486ZM79.0985 44.3969C79.0985 44.3969 77.5949 44.3969 77.5198 44.3969C77.5198 44.3218 77.5198 41.4672 77.5198 41.3169C77.5949 41.3169 79.1737 41.3169 79.1737 41.3169C79.8503 41.3169 80.3014 41.392 80.6021 41.4672C80.9028 41.5423 81.0531 41.7676 81.2787 41.993C81.429 42.2184 81.5042 42.5189 81.5042 42.8194C81.5042 43.1198 81.429 43.4203 81.2787 43.6457C81.1283 43.8711 80.9028 44.0964 80.6021 44.1715C80.2262 44.3969 79.7751 44.3969 79.0985 44.3969Z" fill="#201D1E"/>
<path d="M97.0672 40.3403H96.7665L92.1807 49.7306H93.3835L94.5864 47.3267L95.4885 45.4486C95.4885 45.4486 96.9169 42.6691 96.9921 42.4437C97.0672 42.594 98.2701 45.1481 98.2701 45.1481L99.1722 47.1013L100.45 49.7306H101.578L97.0672 40.3403Z" fill="#201D1E"/>
<path d="M110.9 40.3407V41.3173C110.9 41.3173 112.929 41.3173 113.005 41.3173C113.005 41.3925 113.005 49.731 113.005 49.731H114.132C114.132 49.731 114.132 41.3925 114.132 41.3173C114.207 41.3173 116.237 41.3173 116.237 41.3173V40.2656H110.9V40.3407Z" fill="#201D1E"/>
<path d="M147.811 45.4486C148.563 45.4486 149.24 45.3735 149.616 45.1481C150.067 44.9228 150.443 44.6223 150.668 44.2467C150.894 43.8711 151.044 43.3452 151.044 42.8945C151.044 42.2935 150.818 41.7676 150.518 41.3169C150.142 40.8662 149.691 40.6408 149.089 40.4906C148.713 40.4155 147.962 40.3403 146.909 40.3403H144.955V49.7306H146.007C146.007 49.7306 146.007 45.5237 146.007 45.3735C146.082 45.3735 146.458 45.3735 146.458 45.3735L149.841 49.6554H151.044H151.119C151.27 49.7306 147.962 45.5989 147.811 45.4486ZM146.082 41.3169C146.157 41.3169 147.736 41.3169 147.736 41.3169C148.413 41.3169 148.864 41.392 149.165 41.4672C149.465 41.5423 149.691 41.7676 149.841 41.993C149.992 42.2184 150.067 42.5189 150.067 42.8194C150.067 43.1198 149.992 43.4203 149.841 43.6457C149.691 43.8711 149.465 44.0964 149.165 44.1715C148.864 44.3218 148.413 44.3218 147.736 44.3218C147.736 44.3218 146.233 44.3218 146.157 44.3218C146.082 44.3218 146.082 41.4672 146.082 41.3169Z" fill="#201D1E"/>
<path d="M165.704 40.3403C165.704 40.3403 163.374 44.0213 163.298 44.1715C163.223 44.0213 160.893 40.3403 160.893 40.3403H159.765H159.69L162.847 45.2984V49.8057H163.9V45.2984L166.982 40.4155H165.704V40.3403Z" fill="#201D1E"/>
<path d="M137.662 52.3597C137.662 53.0358 134.279 53.5616 130.144 53.5616C125.935 53.5616 122.552 53.0358 122.552 52.3597C122.552 51.6836 125.935 51.1577 130.144 51.1577C134.279 51.0826 137.662 51.6836 137.662 52.3597Z" fill="url(#paint0_linear)"/>
<path d="M131.572 0C120.145 0 110.823 9.31511 110.823 20.7336C110.823 32.1522 120.145 41.4673 131.572 41.4673C142.999 41.4673 152.322 32.1522 152.322 20.7336C152.322 9.31511 142.999 0 131.572 0ZM124.581 37.2605C118.792 37.2605 114.056 32.5278 114.056 26.7434C114.056 20.959 118.792 16.2263 124.581 16.2263C130.37 16.2263 135.106 20.959 135.106 26.7434C135.106 32.5278 130.37 37.2605 124.581 37.2605Z" fill="#66B1E2"/>
<path d="M152.248 2.55369L152.022 2.70393C151.797 2.47856 151.571 2.32832 151.271 2.32832C150.97 2.32832 150.744 2.40344 150.594 2.55369C150.444 2.70393 150.368 2.92929 150.368 3.15466C150.368 3.3049 150.368 3.45515 150.519 3.60539C150.594 3.75564 150.669 3.83076 150.895 3.90588C151.045 3.981 151.195 4.05612 151.346 4.05612C151.646 4.05612 151.872 3.90588 152.097 3.68051L152.323 3.83076C152.248 3.981 152.097 4.13124 151.947 4.20637C151.797 4.28149 151.571 4.35661 151.346 4.35661C150.97 4.35661 150.744 4.28149 150.519 3.981C150.293 3.75564 150.218 3.53027 150.218 3.22978C150.218 3.00442 150.218 2.85417 150.368 2.62881C150.444 2.47856 150.594 2.32832 150.819 2.17808C151.045 2.10295 151.195 2.02783 151.421 2.02783C151.571 2.02783 151.646 2.02783 151.797 2.10295C151.947 2.17808 152.022 2.17808 152.173 2.2532C152.097 2.32832 152.173 2.47856 152.248 2.55369Z" fill="#201D1E"/>
<path d="M149.24 3.15532C149.24 4.20702 150.142 5.10849 151.194 5.10849C152.247 5.10849 153.149 4.20702 153.149 3.15532C153.149 2.10361 152.247 1.20215 151.194 1.20215C150.142 1.27727 149.24 2.10361 149.24 3.15532ZM149.465 3.15532C149.465 2.17873 150.217 1.42751 151.194 1.42751C152.171 1.42751 152.923 2.17873 152.923 3.15532C152.923 4.1319 152.171 4.88312 151.194 4.88312C150.217 4.88312 149.465 4.1319 149.465 3.15532Z" fill="#201D1E"/>
<path d="M174.875 39.2138L174.649 39.3641C174.423 39.0636 174.198 38.9885 173.822 38.9885C173.597 38.9885 173.371 39.0636 173.145 39.2138C172.995 39.3641 172.92 39.5895 172.92 39.8148C172.92 39.9651 172.995 40.1153 173.07 40.2655C173.145 40.4158 173.221 40.566 173.371 40.566C173.521 40.6412 173.672 40.7163 173.822 40.7163C174.123 40.7163 174.423 40.566 174.649 40.3407L174.875 40.4909C174.799 40.6412 174.649 40.7914 174.499 40.8665C174.348 40.9416 174.123 41.0168 173.897 41.0168C173.597 41.0168 173.296 40.9416 173.07 40.7163C172.845 40.4909 172.77 40.2655 172.77 39.8899C172.77 39.6646 172.845 39.5143 172.92 39.289C172.995 39.1387 173.145 38.9885 173.371 38.8382C173.521 38.7631 173.747 38.688 173.972 38.688C174.123 38.688 174.273 38.688 174.348 38.7631C174.499 38.8382 174.574 38.9134 174.724 38.9134C174.724 39.0636 174.799 39.1387 174.875 39.2138Z" fill="#201D1E"/>
<path d="M171.943 39.8897C171.943 40.9414 172.845 41.8429 173.898 41.8429C174.95 41.8429 175.852 40.9414 175.852 39.8897C175.852 38.838 174.95 37.9365 173.898 37.9365C172.77 37.9365 171.943 38.7629 171.943 39.8897ZM172.169 39.8897C172.169 38.9131 172.92 38.1619 173.898 38.1619C174.875 38.1619 175.627 38.9131 175.627 39.8897C175.627 40.8663 174.875 41.6175 173.898 41.6175C172.92 41.6175 172.169 40.7912 172.169 39.8897Z" fill="#201D1E"/>
<path d="M29.3301 18.1797H25.1953V20.7338H29.3301V18.1797Z" fill="#0869A8"/>
<path d="M29.3301 21.8599H25.1953V33.4286H29.3301V21.8599Z" fill="#0869A8"/>
<path d="M14.8215 22.4614C14.8215 22.4614 17.8286 21.4848 19.257 24.1892H23.6925C23.6925 24.1892 22.7152 18.6301 16.4002 18.1043C16.4002 18.1043 10.6867 17.8038 8.73204 23.5131C8.73204 23.5131 7.1533 27.3443 10.1604 31.0253C10.1604 31.0253 12.1151 33.7296 16.1747 33.7296C16.1747 33.7296 19.4825 34.0301 22.0386 31.1755C22.0386 31.1755 23.6173 29.2223 23.7677 27.6448H19.4825C19.4825 27.6448 18.2045 30.0487 15.6484 29.5979C15.6484 29.5979 13.2427 29.4477 12.6413 26.4428C12.4909 26.4428 12.1151 23.5882 14.8215 22.4614Z" fill="#0869A8"/>
<path d="M59.7022 21.8604V22.9873C58.8753 22.3112 57.9731 22.0107 57.2965 21.8604C56.4696 21.7102 55.7178 22.0107 55.7178 22.0107C54.7405 22.0107 53.3121 23.1375 53.3121 23.1375C52.4851 23.7385 51.8837 24.8653 51.8837 24.8653C51.1319 25.9921 51.0567 27.5697 51.0567 27.5697C50.9064 28.997 51.8837 30.6497 51.8837 30.6497C53.6128 33.6546 56.8454 33.5043 56.8454 33.5043C56.9958 33.5043 57.1462 33.5043 57.2965 33.5043C58.7249 33.3541 59.7022 32.3775 59.7022 32.3775V33.3541H63.837V21.8604H59.7022ZM59.1008 29.1472C58.6497 29.6731 57.9731 29.9736 57.2213 29.9736C57.071 29.9736 56.7703 29.9736 56.6951 29.8233C55.793 29.5229 55.1164 28.8468 54.966 27.9453C54.966 27.3443 55.1164 26.8185 55.4171 26.3677C55.8681 25.7668 56.5447 25.3912 57.2965 25.3912C57.4469 25.3912 57.4469 25.3912 57.4469 25.3912C58.2738 25.3912 59.176 25.9921 59.4015 26.8185C59.7022 27.7199 59.7022 28.5463 59.1008 29.1472Z" fill="#0869A8"/>
<path d="M49.5532 18.1797H45.4185V33.4294H49.5532V18.1797Z" fill="#0869A8"/>
<path d="M42.8631 24.2643C41.585 22.5365 39.8559 22.0107 39.8559 22.0107C38.9538 21.7102 38.1268 21.7102 37.5254 21.8604C37.0744 21.8604 36.6985 22.0107 36.6985 22.0107C36.097 22.3111 35.2701 22.9872 35.2701 22.9872V21.8604H31.2856V36.5092H35.2701V32.2272C36.097 33.0536 36.9992 33.3541 37.5254 33.5043C37.9765 33.5043 38.1268 33.5043 38.1268 33.5043C40.6829 33.5043 42.2616 31.7765 42.2616 31.7765C43.9907 30.0487 43.8404 27.9453 43.8404 27.9453C44.1411 25.9921 42.8631 24.2643 42.8631 24.2643ZM38.5779 29.6731C38.4276 29.6731 38.2772 29.8233 38.1268 29.8233C37.8261 29.9736 37.6758 29.9736 37.5254 29.9736C36.8488 29.9736 36.097 29.5228 35.646 28.997C35.1197 28.2458 35.1197 27.1189 35.646 26.4428C35.9467 25.9921 36.3977 25.6916 36.7736 25.6165C36.924 25.4663 37.2247 25.4663 37.4502 25.4663C37.9013 25.4663 38.202 25.6165 38.4276 25.7667C39.1042 26.0672 39.5552 26.7433 39.7056 27.4945C39.9311 28.2458 39.4801 29.2975 38.5779 29.6731Z" fill="#0869A8"/>
<defs>
<linearGradient id="paint0_linear" x1="122.568" y1="52.3239" x2="137.689" y2="52.3239" gradientUnits="userSpaceOnUse">
<stop stop-color="white"/>
<stop offset="0.0767622" stop-color="#E6E7E8"/>
<stop offset="0.1985" stop-color="#C6C7C9"/>
<stop offset="0.3153" stop-color="#AEB0B3"/>
<stop offset="0.4241" stop-color="#A0A2A6"/>
<stop offset="0.5169" stop-color="#9B9DA1"/>
<stop offset="0.6498" stop-color="#9EA0A4"/>
<stop offset="0.7405" stop-color="#A7A9AC"/>
<stop offset="0.8186" stop-color="#B6B8BA"/>
<stop offset="0.8896" stop-color="#CCCDCF"/>
<stop offset="0.9551" stop-color="#E7E8E9"/>
<stop offset="1" stop-color="white"/>
</linearGradient>
</defs>
</svg>
