<svg width="469" height="85" viewBox="0 0 469 85" fill="none" xmlns="http://www.w3.org/2000/svg">
<path d="M6.76083 4.92715C7.30447 5.1902 7.72535 5.57601 8.02347 6.08458C8.3216 6.57561 8.47066 7.16309 8.47066 7.84702C8.47066 8.86415 8.14623 9.67961 7.49737 10.2934C6.84851 10.9072 6.01551 11.2141 4.99838 11.2141C3.98125 11.2141 3.14825 10.9072 2.49939 10.2934C1.85053 9.67961 1.5261 8.86415 1.5261 7.84702C1.5261 7.39107 1.58748 6.93511 1.71024 6.47916C1.833 6.0232 2.11358 5.3305 2.552 4.40105L4.39336 0.481581H8.07608L6.76083 4.92715ZM28.6391 1.5864V20H23.5359L16.5387 11.635V20H10.4886V1.5864H15.5918L22.5889 9.95143V1.5864H28.6391ZM46.9399 15.3177V20H31.6303V1.5864H46.5979V6.26871H37.7331V8.42574H45.5194V12.8976H37.7331V15.3177H46.9399ZM79.0344 1.5864L73.1421 20H66.4869L63.5144 10.1619L60.3841 20H53.7289L47.8365 1.5864H54.2287L57.4379 12.0558L60.8313 1.5864H66.5395L69.7487 12.1874L73.1421 1.5864H79.0344ZM94.8927 6.26871V9.42533H102.574V14.1076H94.8927V20H88.6847V1.5864H103.652V6.26871H94.8927ZM113.505 15.3703H111.822V20H105.614V1.5864H114.478C116.179 1.5864 117.661 1.86699 118.924 2.42816C120.187 2.98934 121.16 3.79603 121.844 4.84824C122.528 5.90044 122.87 7.12801 122.87 8.53096C122.87 9.84621 122.572 10.9949 121.975 11.9769C121.379 12.959 120.52 13.7394 119.397 14.3181L123.264 20H116.635L113.505 15.3703ZM116.609 8.53096C116.609 7.84702 116.399 7.32092 115.978 6.95265C115.557 6.56684 114.926 6.37393 114.084 6.37393H111.822V10.688H114.084C114.926 10.688 115.557 10.5038 115.978 10.1356C116.399 9.74976 116.609 9.21489 116.609 8.53096ZM134.868 20.4209C132.886 20.4209 131.106 20.0088 129.528 19.1845C127.95 18.3603 126.713 17.2204 125.819 15.7649C124.925 14.2918 124.477 12.6346 124.477 10.7932C124.477 8.95184 124.925 7.30338 125.819 5.84783C126.713 4.37474 127.95 3.22608 129.528 2.40186C131.106 1.57763 132.886 1.16552 134.868 1.16552C136.85 1.16552 138.63 1.57763 140.208 2.40186C141.786 3.22608 143.023 4.37474 143.917 5.84783C144.811 7.30338 145.258 8.95184 145.258 10.7932C145.258 12.6346 144.811 14.2918 143.917 15.7649C143.023 17.2204 141.786 18.3603 140.208 19.1845C138.63 20.0088 136.85 20.4209 134.868 20.4209ZM134.868 15.3966C135.64 15.3966 136.332 15.2125 136.946 14.8442C137.577 14.4584 138.077 13.9235 138.445 13.2396C138.814 12.5381 138.998 11.7226 138.998 10.7932C138.998 9.86375 138.814 9.05706 138.445 8.37312C138.077 7.67165 137.577 7.13678 136.946 6.76851C136.332 6.3827 135.64 6.1898 134.868 6.1898C134.096 6.1898 133.395 6.3827 132.764 6.76851C132.15 7.13678 131.659 7.67165 131.29 8.37312C130.922 9.05706 130.738 9.86375 130.738 10.7932C130.738 11.7226 130.922 12.5381 131.29 13.2396C131.659 13.9235 132.15 14.4584 132.764 14.8442C133.395 15.2125 134.096 15.3966 134.868 15.3966ZM165.662 1.5864V20H160.559L153.562 11.635V20H147.512V1.5864H152.615L159.612 9.95143V1.5864H165.662ZM172.652 6.40024H167.259V1.5864H184.252V6.40024H178.86V20H172.652V6.40024ZM185.865 1.5864H192.073V20H185.865V1.5864ZM210.371 15.3177V20H195.061V1.5864H210.029V6.26871H201.164V8.42574H208.95V12.8976H201.164V15.3177H210.371ZM220.652 15.3703H218.969V20H212.761V1.5864H221.626C223.327 1.5864 224.808 1.86699 226.071 2.42816C227.334 2.98934 228.307 3.79603 228.991 4.84824C229.675 5.90044 230.017 7.12801 230.017 8.53096C230.017 9.84621 229.719 10.9949 229.123 11.9769C228.526 12.959 227.667 13.7394 226.545 14.3181L230.411 20H223.783L220.652 15.3703ZM223.756 8.53096C223.756 7.84702 223.546 7.32092 223.125 6.95265C222.704 6.56684 222.073 6.37393 221.231 6.37393H218.969V10.688H221.231C222.073 10.688 222.704 10.5038 223.125 10.1356C223.546 9.74976 223.756 9.21489 223.756 8.53096ZM239.227 20.4209C237.701 20.4209 236.21 20.2543 234.755 19.9211C233.317 19.5703 232.133 19.1056 231.204 18.5269L233.203 14.0024C234.08 14.511 235.062 14.9231 236.149 15.2388C237.236 15.5369 238.28 15.686 239.279 15.686C240.139 15.686 240.752 15.607 241.121 15.4492C241.489 15.2738 241.673 15.0196 241.673 14.6864C241.673 14.3006 241.428 14.0112 240.937 13.8183C240.463 13.6254 239.674 13.4149 238.569 13.187C237.149 12.8888 235.965 12.5732 235.018 12.24C234.071 11.8892 233.247 11.3281 232.545 10.5565C231.844 9.7673 231.493 8.70632 231.493 7.37353C231.493 6.2161 231.818 5.1639 232.466 4.21691C233.115 3.26993 234.08 2.52461 235.36 1.98097C236.658 1.43733 238.227 1.16552 240.069 1.16552C241.331 1.16552 242.568 1.30581 243.778 1.5864C245.005 1.84945 246.084 2.24403 247.013 2.77013L245.145 7.26831C243.339 6.3564 241.629 5.90044 240.016 5.90044C238.42 5.90044 237.622 6.28625 237.622 7.05787C237.622 7.42614 237.859 7.70673 238.332 7.89963C238.806 8.075 239.586 8.2679 240.674 8.47835C242.077 8.7414 243.26 9.04829 244.225 9.39903C245.189 9.73222 246.022 10.2846 246.724 11.0563C247.443 11.8279 247.802 12.8801 247.802 14.2129C247.802 15.3703 247.478 16.4225 246.829 17.3695C246.18 18.2989 245.207 19.0442 243.909 19.6054C242.629 20.1491 241.068 20.4209 239.227 20.4209ZM257.536 1.5864H263.744V20H257.536V1.5864ZM284.883 1.5864V20H279.78L272.783 11.635V20H266.733V1.5864H271.836L278.833 9.95143V1.5864H284.883ZM304.625 1.5864C306.327 1.5864 307.808 1.86699 309.071 2.42816C310.334 2.98934 311.307 3.79603 311.991 4.84824C312.675 5.90044 313.017 7.12801 313.017 8.53096C313.017 9.9339 312.675 11.1615 311.991 12.2137C311.307 13.2659 310.334 14.0726 309.071 14.6338C307.808 15.1949 306.327 15.4755 304.625 15.4755H301.969V20H295.761V1.5864H304.625ZM304.231 10.688C305.073 10.688 305.704 10.5038 306.125 10.1356C306.546 9.74976 306.756 9.21489 306.756 8.53096C306.756 7.84702 306.546 7.32092 306.125 6.95265C305.704 6.56684 305.073 6.37393 304.231 6.37393H301.969V10.688H304.231ZM326.676 16.7908H319.678L318.442 20H312.129L320.178 1.5864H326.281L334.33 20H327.912L326.676 16.7908ZM324.966 12.3189L323.177 7.68919L321.388 12.3189H324.966ZM350.631 15.3177V20H335.321V1.5864H350.289V6.26871H341.424V8.42574H349.21V12.8976H341.424V15.3177H350.631ZM353.021 1.5864H362.096C364.148 1.5864 365.954 1.96344 367.515 2.71752C369.093 3.45406 370.312 4.51504 371.171 5.90044C372.048 7.28585 372.486 8.91676 372.486 10.7932C372.486 12.6696 372.048 14.3006 371.171 15.686C370.312 17.0714 369.093 18.1411 367.515 18.8952C365.954 19.6317 364.148 20 362.096 20H353.021V1.5864ZM361.833 15.1599C363.166 15.1599 364.227 14.7828 365.016 14.0287C365.822 13.2571 366.226 12.1786 366.226 10.7932C366.226 9.40779 365.822 8.33805 365.016 7.58397C364.227 6.81235 363.166 6.42654 361.833 6.42654H359.229V15.1599H361.833ZM374.753 1.5864H380.961V20H374.753V1.5864ZM396.497 16.7908H389.5L388.264 20H381.95L390 1.5864H396.103L404.152 20H397.734L396.497 16.7908ZM394.787 12.3189L392.999 7.68919L391.21 12.3189H394.787ZM408.216 6.40024H402.824V1.5864H419.817V6.40024H414.424V20H408.216V6.40024ZM429.321 15.3703H427.637V20H421.429V1.5864H430.294C431.995 1.5864 433.477 1.86699 434.74 2.42816C436.002 2.98934 436.976 3.79603 437.66 4.84824C438.344 5.90044 438.686 7.12801 438.686 8.53096C438.686 9.84621 438.387 10.9949 437.791 11.9769C437.195 12.959 436.336 13.7394 435.213 14.3181L439.08 20H432.451L429.321 15.3703ZM432.425 8.53096C432.425 7.84702 432.214 7.32092 431.794 6.95265C431.373 6.56684 430.741 6.37393 429.9 6.37393H427.637V10.688H429.9C430.741 10.688 431.373 10.5038 431.794 10.1356C432.214 9.74976 432.425 9.21489 432.425 8.53096ZM441.03 1.5864H447.238V20H441.03V1.5864ZM459.749 20.4209C457.802 20.4209 456.049 20.0175 454.488 19.2108C452.927 18.3866 451.699 17.2467 450.805 15.7912C449.928 14.3181 449.49 12.6521 449.49 10.7932C449.49 8.9343 449.928 7.27708 450.805 5.82153C451.699 4.34844 452.927 3.20855 454.488 2.40186C456.049 1.57763 457.802 1.16552 459.749 1.16552C461.538 1.16552 463.133 1.48118 464.536 2.1125C465.939 2.74382 467.097 3.65574 468.009 4.84824L464.089 8.34682C462.949 6.90881 461.608 6.1898 460.064 6.1898C458.767 6.1898 457.723 6.61068 456.934 7.45244C456.145 8.27667 455.75 9.39026 455.75 10.7932C455.75 12.1961 456.145 13.3185 456.934 14.1603C457.723 14.9845 458.767 15.3966 460.064 15.3966C461.608 15.3966 462.949 14.6776 464.089 13.2396L468.009 16.7382C467.097 17.9307 465.939 18.8426 464.536 19.4739C463.133 20.1052 461.538 20.4209 459.749 20.4209ZM15.0469 48.7908H8.04978L6.81344 52H0.500202L8.54958 33.5864H14.6524L22.7017 52H16.2833L15.0469 48.7908ZM13.3371 44.3189L11.5484 39.6892L9.75961 44.3189H13.3371ZM30.5581 52.4209C29.0324 52.4209 27.5418 52.2543 26.0863 51.9211C24.6483 51.5703 23.4645 51.1056 22.5351 50.5269L24.5343 46.0024C25.4111 46.511 26.3932 46.9231 27.4804 47.2388C28.5677 47.5369 29.6112 47.686 30.6108 47.686C31.4701 47.686 32.0838 47.607 32.4521 47.4492C32.8204 47.2738 33.0045 47.0196 33.0045 46.6864C33.0045 46.3006 32.759 46.0112 32.268 45.8183C31.7945 45.6254 31.0053 45.4149 29.9005 45.187C28.48 44.8888 27.2963 44.5732 26.3493 44.24C25.4023 43.8892 24.5781 43.3281 23.8766 42.5565C23.1752 41.7673 22.8244 40.7063 22.8244 39.3735C22.8244 38.2161 23.1489 37.1639 23.7977 36.2169C24.4466 35.2699 25.4111 34.5246 26.6913 33.981C27.989 33.4373 29.5586 33.1655 31.3999 33.1655C32.6626 33.1655 33.8989 33.3058 35.1089 33.5864C36.3365 33.8494 37.415 34.244 38.3445 34.7701L36.4768 39.2683C34.6705 38.3564 32.9607 37.9004 31.3473 37.9004C29.7515 37.9004 28.9535 38.2863 28.9535 39.0579C28.9535 39.4261 29.1903 39.7067 29.6638 39.8996C30.1373 40.075 30.9176 40.2679 32.0049 40.4783C33.4079 40.7414 34.5916 41.0483 35.5561 41.399C36.5206 41.7322 37.3536 42.2846 38.0551 43.0563C38.7741 43.8279 39.1336 44.8801 39.1336 46.2129C39.1336 47.3703 38.8092 48.4225 38.1603 49.3695C37.5115 50.2989 36.5382 51.0442 35.2405 51.6054C33.9603 52.1491 32.3995 52.4209 30.5581 52.4209ZM44.7224 38.4002H39.3299V33.5864H56.323V38.4002H50.9305V52H44.7224V38.4002ZM76.086 33.5864V52H69.878V45.2133H64.1434V52H57.9354V33.5864H64.1434V40.1101H69.878V33.5864H76.086ZM95.5179 52L95.4653 43.6087L91.4669 50.3428H88.7312L84.7328 43.898V52H79.0772V33.5864H84.1804L90.1779 43.3982L96.0177 33.5864H101.121L101.173 52H95.5179ZM116.723 48.7908H109.725L108.489 52H102.176L110.225 33.5864H116.328L124.377 52H117.959L116.723 48.7908ZM115.013 44.3189L113.224 39.6892L111.435 44.3189H115.013ZM149.695 52L149.643 43.6087L145.644 50.3428H142.908L138.91 43.898V52H133.254V33.5864H138.358L144.355 43.3982L150.195 33.5864H155.298L155.351 52H149.695ZM170.9 48.7908H163.903L162.666 52H156.353L164.402 33.5864H170.505L178.555 52H172.136L170.9 48.7908ZM169.19 44.3189L167.401 39.6892L165.612 44.3189H169.19ZM197.696 33.5864V52H192.593L185.596 43.635V52H179.545V33.5864H184.649L191.646 41.9514V33.5864H197.696ZM213.235 48.7908H206.237L205.001 52H198.688L206.737 33.5864H212.84L220.889 52H214.471L213.235 48.7908ZM211.525 44.3189L209.736 39.6892L207.947 44.3189H211.525ZM233.803 42.2934H239.195V50.0797C238.108 50.8338 236.845 51.4125 235.407 51.8159C233.969 52.2192 232.557 52.4209 231.172 52.4209C229.208 52.4209 227.446 52.0175 225.885 51.2108C224.324 50.3866 223.096 49.2467 222.202 47.7912C221.325 46.3181 220.887 44.6521 220.887 42.7932C220.887 40.9343 221.325 39.2771 222.202 37.8215C223.096 36.3484 224.333 35.2085 225.911 34.4019C227.507 33.5776 229.304 33.1655 231.304 33.1655C233.11 33.1655 234.723 33.4724 236.144 34.0862C237.582 34.6824 238.774 35.5593 239.721 36.7167L235.749 40.2153C234.592 38.865 233.215 38.1898 231.619 38.1898C230.251 38.1898 229.164 38.6019 228.357 39.4261C227.551 40.2504 227.147 41.3727 227.147 42.7932C227.147 44.1786 227.542 45.2922 228.331 46.134C229.138 46.9757 230.208 47.3966 231.54 47.3966C232.33 47.3966 233.084 47.2475 233.803 46.9494V42.2934ZM257.15 47.3177V52H241.84V33.5864H256.808V38.2687H247.943V40.4257H255.729V44.8976H247.943V47.3177H257.15ZM275.98 52L275.928 43.6087L271.929 50.3428H269.194L265.195 43.898V52H259.54V33.5864H264.643L270.64 43.3982L276.48 33.5864H281.583L281.636 52H275.98ZM299.947 47.3177V52H284.637V33.5864H299.605V38.2687H290.74V40.4257H298.527V44.8976H290.74V47.3177H299.947ZM320.487 33.5864V52H315.384L308.387 43.635V52H302.337V33.5864H307.44L314.437 41.9514V33.5864H320.487ZM327.477 38.4002H322.084V33.5864H339.078V38.4002H333.685V52H327.477V38.4002ZM343.703 32.2185C344.72 32.2185 345.553 32.5254 346.202 33.1392C346.851 33.753 347.175 34.5685 347.175 35.5856C347.175 36.0415 347.114 36.4975 346.991 36.9535C346.868 37.4094 346.588 38.1021 346.149 39.0316L344.308 42.951H340.625L341.94 38.5055C341.397 38.2424 340.976 37.8654 340.678 37.3743C340.38 36.8658 340.231 36.2695 340.231 35.5856C340.231 34.5685 340.555 33.753 341.204 33.1392C341.853 32.5254 342.686 32.2185 343.703 32.2185ZM15.0469 80.7908H8.04978L6.81344 84H0.500202L8.54958 65.5864H14.6524L22.7017 84H16.2833L15.0469 80.7908ZM13.3371 76.3189L11.5484 71.6892L9.75961 76.3189H13.3371ZM41.1014 84.4209C39.1548 84.4209 37.4011 84.0175 35.8403 83.2108C34.2796 82.3866 33.052 81.2467 32.1576 79.7912C31.2808 78.3181 30.8424 76.6521 30.8424 74.7932C30.8424 72.9343 31.2808 71.2771 32.1576 69.8215C33.052 68.3484 34.2796 67.2085 35.8403 66.4019C37.4011 65.5776 39.1548 65.1655 41.1014 65.1655C42.8901 65.1655 44.486 65.4812 45.8889 66.1125C47.2918 66.7438 48.4493 67.6557 49.3612 68.8482L45.4417 72.3468C44.3018 70.9088 42.9603 70.1898 41.417 70.1898C40.1193 70.1898 39.0759 70.6107 38.2867 71.4524C37.4976 72.2767 37.103 73.3903 37.103 74.7932C37.103 76.1961 37.4976 77.3185 38.2867 78.1603C39.0759 78.9845 40.1193 79.3966 41.417 79.3966C42.9603 79.3966 44.3018 78.6776 45.4417 77.2396L49.3612 80.7382C48.4493 81.9307 47.2918 82.8426 45.8889 83.4739C44.486 84.1052 42.8901 84.4209 41.1014 84.4209ZM63.4443 80.7908H56.4471L55.2108 84H48.8976L56.9469 65.5864H63.0497L71.0991 84H64.6806L63.4443 80.7908ZM61.7345 76.3189L59.9457 71.6892L58.157 76.3189H61.7345ZM78.9555 84.4209C77.4298 84.4209 75.9392 84.2543 74.4836 83.9211C73.0456 83.5703 71.8619 83.1056 70.9324 82.5269L72.9316 78.0024C73.8085 78.511 74.7905 78.9231 75.8778 79.2388C76.9651 79.5369 78.0085 79.686 79.0081 79.686C79.8674 79.686 80.4812 79.607 80.8495 79.4492C81.2177 79.2738 81.4019 79.0196 81.4019 78.6864C81.4019 78.3006 81.1564 78.0112 80.6653 77.8183C80.1918 77.6254 79.4027 77.4149 78.2979 77.187C76.8774 76.8888 75.6937 76.5732 74.7467 76.24C73.7997 75.8892 72.9755 75.3281 72.274 74.5565C71.5725 73.7673 71.2218 72.7063 71.2218 71.3735C71.2218 70.2161 71.5462 69.1639 72.1951 68.2169C72.8439 67.2699 73.8085 66.5246 75.0886 65.981C76.3864 65.4373 77.9559 65.1655 79.7973 65.1655C81.0599 65.1655 82.2963 65.3058 83.5063 65.5864C84.7339 65.8494 85.8124 66.244 86.7418 66.7701L84.8742 71.2683C83.0679 70.3564 81.358 69.9004 79.7447 69.9004C78.1488 69.9004 77.3509 70.2863 77.3509 71.0579C77.3509 71.4261 77.5876 71.7067 78.0611 71.8996C78.5346 72.075 79.315 72.2679 80.4023 72.4783C81.8052 72.7414 82.989 73.0483 83.9535 73.399C84.918 73.7322 85.751 74.2846 86.4525 75.0563C87.1715 75.8279 87.531 76.8801 87.531 78.2129C87.531 79.3703 87.2066 80.4225 86.5577 81.3695C85.9088 82.2989 84.9355 83.0442 83.6378 83.6054C82.3576 84.1491 80.7969 84.4209 78.9555 84.4209ZM104.688 79.3177V84H89.3783V65.5864H104.346V70.2687H95.4811V72.4257H103.267V76.8976H95.4811V79.3177H104.688ZM127.143 74.2934H132.536V82.0797C131.449 82.8338 130.186 83.4125 128.748 83.8159C127.31 84.2192 125.898 84.4209 124.513 84.4209C122.549 84.4209 120.786 84.0175 119.226 83.2108C117.665 82.3866 116.437 81.2467 115.543 79.7912C114.666 78.3181 114.228 76.6521 114.228 74.7932C114.228 72.9343 114.666 71.2771 115.543 69.8215C116.437 68.3484 117.674 67.2085 119.252 66.4019C120.848 65.5776 122.645 65.1655 124.644 65.1655C126.451 65.1655 128.064 65.4724 129.485 66.0862C130.923 66.6824 132.115 67.5593 133.062 68.7167L129.09 72.2153C127.933 70.865 126.556 70.1898 124.96 70.1898C123.592 70.1898 122.505 70.6019 121.698 71.4261C120.892 72.2504 120.488 73.3727 120.488 74.7932C120.488 76.1786 120.883 77.2922 121.672 78.134C122.479 78.9757 123.548 79.3966 124.881 79.3966C125.67 79.3966 126.424 79.2475 127.143 78.9494V74.2934ZM143.993 84.4209C141.17 84.4209 138.969 83.658 137.391 82.1323C135.812 80.6066 135.023 78.4672 135.023 75.7139V65.5864H141.231V75.5297C141.231 76.8801 141.468 77.8621 141.942 78.4759C142.433 79.0897 143.134 79.3966 144.046 79.3966C144.958 79.3966 145.651 79.0897 146.124 78.4759C146.615 77.8621 146.861 76.8801 146.861 75.5297V65.5864H152.963V75.7139C152.963 78.4672 152.174 80.6066 150.596 82.1323C149.018 83.658 146.817 84.4209 143.993 84.4209ZM155.809 65.5864H162.017V84H155.809V65.5864ZM165.006 65.5864H174.081C176.133 65.5864 177.939 65.9634 179.5 66.7175C181.078 67.4541 182.297 68.515 183.156 69.9004C184.033 71.2858 184.471 72.9168 184.471 74.7932C184.471 76.6696 184.033 78.3006 183.156 79.686C182.297 81.0714 181.078 82.1411 179.5 82.8952C177.939 83.6317 176.133 84 174.081 84H165.006V65.5864ZM173.818 79.1599C175.151 79.1599 176.212 78.7828 177.001 78.0287C177.807 77.2571 178.211 76.1786 178.211 74.7932C178.211 73.4078 177.807 72.3381 177.001 71.584C176.212 70.8124 175.151 70.4265 173.818 70.4265H171.214V79.1599H173.818ZM202.048 79.3177V84H186.738V65.5864H201.706V70.2687H192.841V72.4257H200.627V76.8976H192.841V79.3177H202.048ZM204.438 65.5864H213.513C215.565 65.5864 217.371 65.9634 218.932 66.7175C220.51 67.4541 221.729 68.515 222.588 69.9004C223.465 71.2858 223.903 72.9168 223.903 74.7932C223.903 76.6696 223.465 78.3006 222.588 79.686C221.729 81.0714 220.51 82.1411 218.932 82.8952C217.371 83.6317 215.565 84 213.513 84H204.438V65.5864ZM213.25 79.1599C214.583 79.1599 215.644 78.7828 216.433 78.0287C217.239 77.2571 217.643 76.1786 217.643 74.7932C217.643 73.4078 217.239 72.3381 216.433 71.584C215.644 70.8124 214.583 70.4265 213.25 70.4265H210.646V79.1599H213.25ZM246.604 80.7908H239.607L238.371 84H232.057L240.107 65.5864H246.21L254.259 84H247.84L246.604 80.7908ZM244.894 76.3189L243.106 71.6892L241.317 76.3189H244.894ZM264.115 65.5864C265.816 65.5864 267.297 65.867 268.56 66.4282C269.823 66.9893 270.796 67.796 271.48 68.8482C272.164 69.9004 272.506 71.128 272.506 72.531C272.506 73.9339 272.164 75.1615 271.48 76.2137C270.796 77.2659 269.823 78.0726 268.56 78.6338C267.297 79.1949 265.816 79.4755 264.115 79.4755H261.458V84H255.25V65.5864H264.115ZM263.72 74.688C264.562 74.688 265.193 74.5038 265.614 74.1356C266.035 73.7498 266.245 73.2149 266.245 72.531C266.245 71.847 266.035 71.3209 265.614 70.9526C265.193 70.5668 264.562 70.3739 263.72 70.3739H261.458V74.688H263.72ZM283.407 65.5864C285.108 65.5864 286.59 65.867 287.852 66.4282C289.115 66.9893 290.088 67.796 290.772 68.8482C291.456 69.9004 291.798 71.128 291.798 72.531C291.798 73.9339 291.456 75.1615 290.772 76.2137C290.088 77.2659 289.115 78.0726 287.852 78.6338C286.59 79.1949 285.108 79.4755 283.407 79.4755H280.75V84H274.542V65.5864H283.407ZM283.012 74.688C283.854 74.688 284.485 74.5038 284.906 74.1356C285.327 73.7498 285.537 73.2149 285.537 72.531C285.537 71.847 285.327 71.3209 284.906 70.9526C284.485 70.5668 283.854 70.3739 283.012 70.3739H280.75V74.688H283.012ZM301.726 79.3703H300.042V84H293.834V65.5864H302.699C304.4 65.5864 305.882 65.867 307.144 66.4282C308.407 66.9893 309.38 67.796 310.064 68.8482C310.748 69.9004 311.09 71.128 311.09 72.531C311.09 73.8462 310.792 74.9949 310.196 75.9769C309.6 76.959 308.74 77.7394 307.618 78.3181L311.485 84H304.856L301.726 79.3703ZM304.83 72.531C304.83 71.847 304.619 71.3209 304.198 70.9526C303.777 70.5668 303.146 70.3739 302.304 70.3739H300.042V74.688H302.304C303.146 74.688 303.777 74.5038 304.198 74.1356C304.619 73.7498 304.83 73.2149 304.83 72.531ZM323.088 84.4209C321.107 84.4209 319.327 84.0088 317.748 83.1845C316.17 82.3603 314.934 81.2204 314.039 79.7649C313.145 78.2918 312.698 76.6346 312.698 74.7932C312.698 72.9518 313.145 71.3034 314.039 69.8478C314.934 68.3747 316.17 67.2261 317.748 66.4019C319.327 65.5776 321.107 65.1655 323.088 65.1655C325.07 65.1655 326.85 65.5776 328.428 66.4019C330.007 67.2261 331.243 68.3747 332.137 69.8478C333.032 71.3034 333.479 72.9518 333.479 74.7932C333.479 76.6346 333.032 78.2918 332.137 79.7649C331.243 81.2204 330.007 82.3603 328.428 83.1845C326.85 84.0088 325.07 84.4209 323.088 84.4209ZM323.088 79.3966C323.86 79.3966 324.553 79.2125 325.167 78.8442C325.798 78.4584 326.298 77.9235 326.666 77.2396C327.034 76.5381 327.218 75.7226 327.218 74.7932C327.218 73.8638 327.034 73.0571 326.666 72.3731C326.298 71.6717 325.798 71.1368 325.167 70.7685C324.553 70.3827 323.86 70.1898 323.088 70.1898C322.317 70.1898 321.615 70.3827 320.984 70.7685C320.37 71.1368 319.879 71.6717 319.511 72.3731C319.143 73.0571 318.959 73.8638 318.959 74.7932C318.959 75.7226 319.143 76.5381 319.511 77.2396C319.879 77.9235 320.37 78.4584 320.984 78.8442C321.615 79.2125 322.317 79.3966 323.088 79.3966ZM348.023 80.7908H341.026L339.789 84H333.476L341.525 65.5864H347.628L355.678 84H349.259L348.023 80.7908ZM346.313 76.3189L344.524 71.6892L342.735 76.3189H346.313ZM365.934 84.4209C363.987 84.4209 362.234 84.0175 360.673 83.2108C359.112 82.3866 357.885 81.2467 356.99 79.7912C356.113 78.3181 355.675 76.6521 355.675 74.7932C355.675 72.9343 356.113 71.2771 356.99 69.8215C357.885 68.3484 359.112 67.2085 360.673 66.4019C362.234 65.5776 363.987 65.1655 365.934 65.1655C367.723 65.1655 369.319 65.4812 370.721 66.1125C372.124 66.7438 373.282 67.6557 374.194 68.8482L370.274 72.3468C369.134 70.9088 367.793 70.1898 366.25 70.1898C364.952 70.1898 363.908 70.6107 363.119 71.4524C362.33 72.2767 361.936 73.3903 361.936 74.7932C361.936 76.1961 362.33 77.3185 363.119 78.1603C363.908 78.9845 364.952 79.3966 366.25 79.3966C367.793 79.3966 369.134 78.6776 370.274 77.2396L374.194 80.7382C373.282 81.9307 372.124 82.8426 370.721 83.4739C369.319 84.1052 367.723 84.4209 365.934 84.4209ZM394.137 65.5864V84H387.929V77.2133H382.194V84H375.986V65.5864H382.194V72.1101H387.929V65.5864H394.137Z" fill="#1A7299"/>
</svg>
