<svg width="560" height="97" viewBox="0 0 560 97" fill="none" xmlns="http://www.w3.org/2000/svg">
<path d="M6.612 6.528H0.116V2.7H17.806V6.528H11.31V23H6.612V6.528ZM29.4978 7.166C31.4311 7.166 32.9874 7.746 34.1668 8.906C35.3654 10.066 35.9648 11.7867 35.9648 14.068V23H31.4408V14.764C31.4408 13.5267 31.1701 12.6083 30.6288 12.009C30.0874 11.3903 29.3044 11.081 28.2798 11.081C27.1391 11.081 26.2304 11.4387 25.5538 12.154C24.8771 12.85 24.5388 13.894 24.5388 15.286V23H20.0148V1.482H24.5388V9.022C25.1381 8.42267 25.8631 7.96833 26.7138 7.659C27.5644 7.33033 28.4924 7.166 29.4978 7.166ZM46.3585 7.166C48.7752 7.166 50.6312 7.746 51.9265 8.906C53.2219 10.0467 53.8695 11.777 53.8695 14.097V23H49.6355V21.057C48.7849 22.507 47.1995 23.232 44.8795 23.232C43.6809 23.232 42.6369 23.029 41.7475 22.623C40.8775 22.217 40.2105 21.6563 39.7465 20.941C39.2825 20.2257 39.0505 19.4137 39.0505 18.505C39.0505 17.055 39.5919 15.9143 40.6745 15.083C41.7765 14.2517 43.4682 13.836 45.7495 13.836H49.3455C49.3455 12.85 49.0459 12.096 48.4465 11.574C47.8472 11.0327 46.9482 10.762 45.7495 10.762C44.9182 10.762 44.0965 10.8973 43.2845 11.168C42.4919 11.4193 41.8152 11.7673 41.2545 12.212L39.6305 9.051C40.4812 8.45167 41.4962 7.98767 42.6755 7.659C43.8742 7.33033 45.1019 7.166 46.3585 7.166ZM46.0105 20.187C46.7839 20.187 47.4702 20.013 48.0695 19.665C48.6689 19.2977 49.0942 18.766 49.3455 18.07V16.475H46.2425C44.3865 16.475 43.4585 17.084 43.4585 18.302C43.4585 18.882 43.6809 19.346 44.1255 19.694C44.5895 20.0227 45.2179 20.187 46.0105 20.187ZM67.447 7.166C69.3803 7.166 70.9366 7.746 72.116 8.906C73.3146 10.066 73.914 11.7867 73.914 14.068V23H69.39V14.764C69.39 13.5267 69.1193 12.6083 68.578 12.009C68.0366 11.3903 67.2536 11.081 66.229 11.081C65.0883 11.081 64.1796 11.4387 63.503 12.154C62.8263 12.85 62.488 13.894 62.488 15.286V23H57.964V7.398H62.285V9.225C62.8843 8.56767 63.6286 8.065 64.518 7.717C65.4073 7.34967 66.3836 7.166 67.447 7.166ZM84.7138 16.881L82.5388 19.027V23H78.0148V1.482H82.5388V13.662L89.1508 7.398H94.5448L88.0488 14.01L95.1248 23H89.6438L84.7138 16.881ZM115.435 15.808V23H110.737V15.75L102.878 2.7H107.866L113.289 11.719L118.712 2.7H123.323L115.435 15.808ZM130.666 23.232C129.023 23.232 127.544 22.8937 126.229 22.217C124.934 21.521 123.919 20.564 123.184 19.346C122.45 18.128 122.082 16.7457 122.082 15.199C122.082 13.6523 122.45 12.27 123.184 11.052C123.919 9.834 124.934 8.88667 126.229 8.21C127.544 7.514 129.023 7.166 130.666 7.166C132.31 7.166 133.779 7.514 135.074 8.21C136.37 8.88667 137.385 9.834 138.119 11.052C138.854 12.27 139.221 13.6523 139.221 15.199C139.221 16.7457 138.854 18.128 138.119 19.346C137.385 20.564 136.37 21.521 135.074 22.217C133.779 22.8937 132.31 23.232 130.666 23.232ZM130.666 19.52C131.826 19.52 132.774 19.1333 133.508 18.36C134.262 17.5673 134.639 16.5137 134.639 15.199C134.639 13.8843 134.262 12.8403 133.508 12.067C132.774 11.2743 131.826 10.878 130.666 10.878C129.506 10.878 128.549 11.2743 127.795 12.067C127.041 12.8403 126.664 13.8843 126.664 15.199C126.664 16.5137 127.041 17.5673 127.795 18.36C128.549 19.1333 129.506 19.52 130.666 19.52ZM157.963 7.398V23H153.671V21.144C153.072 21.8207 152.357 22.3427 151.525 22.71C150.694 23.058 149.795 23.232 148.828 23.232C146.779 23.232 145.155 22.6423 143.956 21.463C142.758 20.2837 142.158 18.534 142.158 16.214V7.398H146.682V15.547C146.682 18.0603 147.736 19.317 149.843 19.317C150.926 19.317 151.796 18.969 152.453 18.273C153.111 17.5577 153.439 16.504 153.439 15.112V7.398H157.963ZM175.384 6.47V11.835H184.78V15.605H175.384V23H170.686V2.7H186.027V6.47H175.384ZM195.916 23.232C194.273 23.232 192.794 22.8937 191.479 22.217C190.184 21.521 189.169 20.564 188.434 19.346C187.7 18.128 187.332 16.7457 187.332 15.199C187.332 13.6523 187.7 12.27 188.434 11.052C189.169 9.834 190.184 8.88667 191.479 8.21C192.794 7.514 194.273 7.166 195.916 7.166C197.56 7.166 199.029 7.514 200.324 8.21C201.62 8.88667 202.635 9.834 203.369 11.052C204.104 12.27 204.471 13.6523 204.471 15.199C204.471 16.7457 204.104 18.128 203.369 19.346C202.635 20.564 201.62 21.521 200.324 22.217C199.029 22.8937 197.56 23.232 195.916 23.232ZM195.916 19.52C197.076 19.52 198.024 19.1333 198.758 18.36C199.512 17.5673 199.889 16.5137 199.889 15.199C199.889 13.8843 199.512 12.8403 198.758 12.067C198.024 11.2743 197.076 10.878 195.916 10.878C194.756 10.878 193.799 11.2743 193.045 12.067C192.291 12.8403 191.914 13.8843 191.914 15.199C191.914 16.5137 192.291 17.5673 193.045 18.36C193.799 19.1333 194.756 19.52 195.916 19.52ZM211.816 9.457C212.358 8.703 213.083 8.13267 213.991 7.746C214.919 7.35933 215.983 7.166 217.181 7.166V11.342C216.679 11.3033 216.34 11.284 216.166 11.284C214.871 11.284 213.856 11.6513 213.121 12.386C212.387 13.1013 212.019 14.184 212.019 15.634V23H207.495V7.398H211.816V9.457ZM241.45 23L237.535 17.345H237.303H233.214V23H228.516V2.7H237.303C239.101 2.7 240.658 2.99967 241.972 3.599C243.306 4.19833 244.331 5.049 245.046 6.151C245.762 7.253 246.119 8.558 246.119 10.066C246.119 11.574 245.752 12.879 245.017 13.981C244.302 15.0637 243.277 15.895 241.943 16.475L246.496 23H241.45ZM241.363 10.066C241.363 8.92533 240.996 8.05533 240.261 7.456C239.527 6.83733 238.454 6.528 237.042 6.528H233.214V13.604H237.042C238.454 13.604 239.527 13.2947 240.261 12.676C240.996 12.0573 241.363 11.1873 241.363 10.066ZM264.806 15.257C264.806 15.315 264.777 15.721 264.719 16.475H252.916C253.128 17.4417 253.631 18.2053 254.424 18.766C255.216 19.3267 256.202 19.607 257.382 19.607C258.194 19.607 258.909 19.491 259.528 19.259C260.166 19.0077 260.755 18.621 261.297 18.099L263.704 20.709C262.234 22.391 260.088 23.232 257.266 23.232C255.506 23.232 253.95 22.8937 252.597 22.217C251.243 21.521 250.199 20.564 249.465 19.346C248.73 18.128 248.363 16.7457 248.363 15.199C248.363 13.6717 248.72 12.299 249.436 11.081C250.17 9.84367 251.166 8.88667 252.423 8.21C253.699 7.514 255.12 7.166 256.686 7.166C258.213 7.166 259.595 7.49467 260.833 8.152C262.07 8.80933 263.037 9.75667 263.733 10.994C264.448 12.212 264.806 13.633 264.806 15.257ZM256.715 10.588C255.69 10.588 254.83 10.878 254.134 11.458C253.438 12.038 253.012 12.8307 252.858 13.836H260.543C260.388 12.85 259.963 12.067 259.267 11.487C258.571 10.8877 257.72 10.588 256.715 10.588ZM283.912 7.398V20.39C283.912 23.2513 283.168 25.378 281.679 26.77C280.191 28.162 278.016 28.858 275.154 28.858C273.646 28.858 272.216 28.6743 270.862 28.307C269.509 27.9397 268.388 27.408 267.498 26.712L269.296 23.464C269.954 24.0053 270.785 24.4307 271.79 24.74C272.796 25.0687 273.801 25.233 274.806 25.233C276.372 25.233 277.523 24.8753 278.257 24.16C279.011 23.464 279.388 22.4007 279.388 20.97V20.303C278.209 21.5983 276.566 22.246 274.458 22.246C273.028 22.246 271.713 21.9367 270.514 21.318C269.335 20.68 268.397 19.7907 267.701 18.65C267.005 17.5093 266.657 16.1947 266.657 14.706C266.657 13.2173 267.005 11.9027 267.701 10.762C268.397 9.62133 269.335 8.74167 270.514 8.123C271.713 7.485 273.028 7.166 274.458 7.166C276.72 7.166 278.441 7.91033 279.62 9.399V7.398H283.912ZM275.357 18.534C276.556 18.534 277.532 18.186 278.286 17.49C279.06 16.7747 279.446 15.8467 279.446 14.706C279.446 13.5653 279.06 12.647 278.286 11.951C277.532 11.2357 276.556 10.878 275.357 10.878C274.159 10.878 273.173 11.2357 272.399 11.951C271.626 12.647 271.239 13.5653 271.239 14.706C271.239 15.8467 271.626 16.7747 272.399 17.49C273.173 18.186 274.159 18.534 275.357 18.534ZM288.123 7.398H292.647V23H288.123V7.398ZM290.385 5.223C289.554 5.223 288.877 4.98133 288.355 4.498C287.833 4.01467 287.572 3.41533 287.572 2.7C287.572 1.98467 287.833 1.38533 288.355 0.901999C288.877 0.418665 289.554 0.176998 290.385 0.176998C291.216 0.176998 291.893 0.408999 292.415 0.873C292.937 1.337 293.198 1.917 293.198 2.613C293.198 3.367 292.937 3.99533 292.415 4.498C291.893 4.98133 291.216 5.223 290.385 5.223ZM302.095 23.232C300.799 23.232 299.533 23.0773 298.296 22.768C297.058 22.4393 296.072 22.0333 295.338 21.55L296.846 18.302C297.542 18.7467 298.383 19.114 299.369 19.404C300.355 19.6747 301.321 19.81 302.269 19.81C304.183 19.81 305.14 19.3363 305.14 18.389C305.14 17.9443 304.879 17.6253 304.357 17.432C303.835 17.2387 303.032 17.0743 301.95 16.939C300.674 16.7457 299.62 16.5233 298.789 16.272C297.957 16.0207 297.232 15.576 296.614 14.938C296.014 14.3 295.715 13.3913 295.715 12.212C295.715 11.226 295.995 10.356 296.556 9.602C297.136 8.82867 297.967 8.22933 299.05 7.804C300.152 7.37867 301.447 7.166 302.936 7.166C304.038 7.166 305.13 7.29167 306.213 7.543C307.315 7.775 308.223 8.10367 308.939 8.529L307.431 11.748C306.058 10.9747 304.56 10.588 302.936 10.588C301.969 10.588 301.244 10.7233 300.761 10.994C300.277 11.2647 300.036 11.6127 300.036 12.038C300.036 12.5213 300.297 12.8597 300.819 13.053C301.341 13.2463 302.172 13.43 303.313 13.604C304.589 13.8167 305.633 14.0487 306.445 14.3C307.257 14.532 307.962 14.967 308.562 15.605C309.161 16.243 309.461 17.1323 309.461 18.273C309.461 19.2397 309.171 20.1 308.591 20.854C308.011 21.608 307.16 22.1977 306.039 22.623C304.937 23.029 303.622 23.232 302.095 23.232ZM322.315 22.246C321.87 22.5747 321.319 22.826 320.662 23C320.024 23.1547 319.347 23.232 318.632 23.232C316.776 23.232 315.336 22.7583 314.311 21.811C313.306 20.8637 312.803 19.4717 312.803 17.635V11.226H310.396V7.746H312.803V3.947H317.327V7.746H321.213V11.226H317.327V17.577C317.327 18.2343 317.491 18.7467 317.82 19.114C318.168 19.462 318.651 19.636 319.27 19.636C319.985 19.636 320.594 19.4427 321.097 19.056L322.315 22.246ZM339.656 15.257C339.656 15.315 339.627 15.721 339.569 16.475H327.766C327.979 17.4417 328.481 18.2053 329.274 18.766C330.067 19.3267 331.053 19.607 332.232 19.607C333.044 19.607 333.759 19.491 334.378 19.259C335.016 19.0077 335.606 18.621 336.147 18.099L338.554 20.709C337.085 22.391 334.939 23.232 332.116 23.232C330.357 23.232 328.8 22.8937 327.447 22.217C326.094 21.521 325.05 20.564 324.315 19.346C323.58 18.128 323.213 16.7457 323.213 15.199C323.213 13.6717 323.571 12.299 324.286 11.081C325.021 9.84367 326.016 8.88667 327.273 8.21C328.549 7.514 329.97 7.166 331.536 7.166C333.063 7.166 334.446 7.49467 335.683 8.152C336.92 8.80933 337.887 9.75667 338.583 10.994C339.298 12.212 339.656 13.633 339.656 15.257ZM331.565 10.588C330.54 10.588 329.68 10.878 328.984 11.458C328.288 12.038 327.863 12.8307 327.708 13.836H335.393C335.238 12.85 334.813 12.067 334.117 11.487C333.421 10.8877 332.57 10.588 331.565 10.588ZM346.989 9.457C347.53 8.703 348.255 8.13267 349.164 7.746C350.092 7.35933 351.155 7.166 352.354 7.166V11.342C351.851 11.3033 351.513 11.284 351.339 11.284C350.044 11.284 349.029 11.6513 348.294 12.386C347.559 13.1013 347.192 14.184 347.192 15.634V23H342.668V7.398H346.989V9.457ZM355.044 7.398H359.568V23H355.044V7.398ZM357.306 5.223C356.475 5.223 355.798 4.98133 355.276 4.498C354.754 4.01467 354.493 3.41533 354.493 2.7C354.493 1.98467 354.754 1.38533 355.276 0.901999C355.798 0.418665 356.475 0.176998 357.306 0.176998C358.137 0.176998 358.814 0.408999 359.336 0.873C359.858 1.337 360.119 1.917 360.119 2.613C360.119 3.367 359.858 3.99533 359.336 4.498C358.814 4.98133 358.137 5.223 357.306 5.223ZM373.25 7.166C375.183 7.166 376.739 7.746 377.919 8.906C379.117 10.066 379.717 11.7867 379.717 14.068V23H375.193V14.764C375.193 13.5267 374.922 12.6083 374.381 12.009C373.839 11.3903 373.056 11.081 372.032 11.081C370.891 11.081 369.982 11.4387 369.306 12.154C368.629 12.85 368.291 13.894 368.291 15.286V23H363.767V7.398H368.088V9.225C368.687 8.56767 369.431 8.065 370.321 7.717C371.21 7.34967 372.186 7.166 373.25 7.166ZM400.082 7.398V20.39C400.082 23.2513 399.338 25.378 397.849 26.77C396.361 28.162 394.186 28.858 391.324 28.858C389.816 28.858 388.386 28.6743 387.032 28.307C385.679 27.9397 384.558 27.408 383.668 26.712L385.466 23.464C386.124 24.0053 386.955 24.4307 387.96 24.74C388.966 25.0687 389.971 25.233 390.976 25.233C392.542 25.233 393.693 24.8753 394.427 24.16C395.181 23.464 395.558 22.4007 395.558 20.97V20.303C394.379 21.5983 392.736 22.246 390.628 22.246C389.198 22.246 387.883 21.9367 386.684 21.318C385.505 20.68 384.567 19.7907 383.871 18.65C383.175 17.5093 382.827 16.1947 382.827 14.706C382.827 13.2173 383.175 11.9027 383.871 10.762C384.567 9.62133 385.505 8.74167 386.684 8.123C387.883 7.485 389.198 7.166 390.628 7.166C392.89 7.166 394.611 7.91033 395.79 9.399V7.398H400.082ZM391.527 18.534C392.726 18.534 393.702 18.186 394.456 17.49C395.23 16.7747 395.616 15.8467 395.616 14.706C395.616 13.5653 395.23 12.647 394.456 11.951C393.702 11.2357 392.726 10.878 391.527 10.878C390.329 10.878 389.343 11.2357 388.569 11.951C387.796 12.647 387.409 13.5653 387.409 14.706C387.409 15.8467 387.796 16.7747 388.569 17.49C389.343 18.186 390.329 18.534 391.527 18.534ZM406.004 23.232C405.211 23.232 404.544 22.9613 404.003 22.42C403.462 21.8787 403.191 21.202 403.191 20.39C403.191 19.5587 403.462 18.8917 404.003 18.389C404.544 17.867 405.211 17.606 406.004 17.606C406.797 17.606 407.464 17.867 408.005 18.389C408.546 18.8917 408.817 19.5587 408.817 20.39C408.817 21.202 408.546 21.8787 408.005 22.42C407.464 22.9613 406.797 23.232 406.004 23.232ZM6.612 40.528H0.116V36.7H17.806V40.528H11.31V57H6.612V40.528ZM35.3929 41.398V57H31.1009V55.144C30.5016 55.8207 29.7862 56.3427 28.9549 56.71C28.1236 57.058 27.2246 57.232 26.2579 57.232C24.2086 57.232 22.5846 56.6423 21.3859 55.463C20.1872 54.2837 19.5879 52.534 19.5879 50.214V41.398H24.1119V49.547C24.1119 52.0603 25.1656 53.317 27.2729 53.317C28.3556 53.317 29.2256 52.969 29.8829 52.273C30.5402 51.5577 30.8689 50.504 30.8689 49.112V41.398H35.3929ZM49.0671 41.166C51.0004 41.166 52.5568 41.746 53.7361 42.906C54.9348 44.066 55.5341 45.7867 55.5341 48.068V57H51.0101V48.764C51.0101 47.5267 50.7394 46.6083 50.1981 46.009C49.6568 45.3903 48.8738 45.081 47.8491 45.081C46.7084 45.081 45.7998 45.4387 45.1231 46.154C44.4464 46.85 44.1081 47.894 44.1081 49.286V57H39.5841V41.398H43.9051V43.225C44.5044 42.5677 45.2488 42.065 46.1381 41.717C47.0274 41.3497 48.0038 41.166 49.0671 41.166ZM75.0878 49.257C75.0878 49.315 75.0588 49.721 75.0008 50.475H63.1978C63.4105 51.4417 63.9131 52.2053 64.7058 52.766C65.4985 53.3267 66.4845 53.607 67.6638 53.607C68.4758 53.607 69.1911 53.491 69.8098 53.259C70.4478 53.0077 71.0375 52.621 71.5788 52.099L73.9858 54.709C72.5165 56.391 70.3705 57.232 67.5478 57.232C65.7885 57.232 64.2321 56.8937 62.8788 56.217C61.5255 55.521 60.4815 54.564 59.7468 53.346C59.0121 52.128 58.6448 50.7457 58.6448 49.199C58.6448 47.6717 59.0025 46.299 59.7178 45.081C60.4525 43.8437 61.4481 42.8867 62.7048 42.21C63.9808 41.514 65.4018 41.166 66.9678 41.166C68.4951 41.166 69.8775 41.4947 71.1148 42.152C72.3521 42.8093 73.3188 43.7567 74.0148 44.994C74.7301 46.212 75.0878 47.633 75.0878 49.257ZM66.9968 44.588C65.9721 44.588 65.1118 44.878 64.4158 45.458C63.7198 46.038 63.2945 46.8307 63.1398 47.836H70.8248C70.6701 46.85 70.2448 46.067 69.5488 45.487C68.8528 44.8877 68.0021 44.588 66.9968 44.588ZM86.6316 36.7H91.3296V57H86.6316V36.7ZM105.311 41.166C107.245 41.166 108.801 41.746 109.98 42.906C111.179 44.066 111.778 45.7867 111.778 48.068V57H107.254V48.764C107.254 47.5267 106.984 46.6083 106.442 46.009C105.901 45.3903 105.118 45.081 104.093 45.081C102.953 45.081 102.044 45.4387 101.367 46.154C100.691 46.85 100.352 47.894 100.352 49.286V57H95.8282V41.398H100.149V43.225C100.749 42.5677 101.493 42.065 102.382 41.717C103.272 41.3497 104.248 41.166 105.311 41.166ZM128.616 40.528H122.12V36.7H139.81V40.528H133.314V57H128.616V40.528ZM147.857 57.232C146.213 57.232 144.734 56.8937 143.42 56.217C142.124 55.521 141.109 54.564 140.375 53.346C139.64 52.128 139.273 50.7457 139.273 49.199C139.273 47.6523 139.64 46.27 140.375 45.052C141.109 43.834 142.124 42.8867 143.42 42.21C144.734 41.514 146.213 41.166 147.857 41.166C149.5 41.166 150.969 41.514 152.265 42.21C153.56 42.8867 154.575 43.834 155.31 45.052C156.044 46.27 156.412 47.6523 156.412 49.199C156.412 50.7457 156.044 52.128 155.31 53.346C154.575 54.564 153.56 55.521 152.265 56.217C150.969 56.8937 149.5 57.232 147.857 57.232ZM147.857 53.52C149.017 53.52 149.964 53.1333 150.699 52.36C151.453 51.5673 151.83 50.5137 151.83 49.199C151.83 47.8843 151.453 46.8403 150.699 46.067C149.964 45.2743 149.017 44.878 147.857 44.878C146.697 44.878 145.74 45.2743 144.986 46.067C144.232 46.8403 143.855 47.8843 143.855 49.199C143.855 50.5137 144.232 51.5673 144.986 52.36C145.74 53.1333 146.697 53.52 147.857 53.52ZM183.686 53.23V57H167.968V36.7H183.309V40.47H172.637V44.878H182.062V48.532H172.637V53.23H183.686ZM196.824 57L193.402 52.215L189.864 57H184.934L190.937 49.141L185.137 41.398H190.212L193.518 45.951L196.911 41.398H201.725L195.925 49.025L201.957 57H196.824ZM213.375 41.166C214.825 41.166 216.14 41.5043 217.319 42.181C218.518 42.8383 219.456 43.776 220.132 44.994C220.809 46.1927 221.147 47.5943 221.147 49.199C221.147 50.8037 220.809 52.215 220.132 53.433C219.456 54.6317 218.518 55.5693 217.319 56.246C216.14 56.9033 214.825 57.232 213.375 57.232C211.384 57.232 209.818 56.6037 208.677 55.347V62.626H204.153V41.398H208.474V43.196C209.596 41.8427 211.229 41.166 213.375 41.166ZM212.592 53.52C213.752 53.52 214.7 53.1333 215.434 52.36C216.188 51.5673 216.565 50.5137 216.565 49.199C216.565 47.8843 216.188 46.8403 215.434 46.067C214.7 45.2743 213.752 44.878 212.592 44.878C211.432 44.878 210.475 45.2743 209.721 46.067C208.987 46.8403 208.619 47.8843 208.619 49.199C208.619 50.5137 208.987 51.5673 209.721 52.36C210.475 53.1333 211.432 53.52 212.592 53.52ZM224.176 35.482H228.7V57H224.176V35.482ZM240.323 57.232C238.679 57.232 237.2 56.8937 235.886 56.217C234.59 55.521 233.575 54.564 232.841 53.346C232.106 52.128 231.739 50.7457 231.739 49.199C231.739 47.6523 232.106 46.27 232.841 45.052C233.575 43.834 234.59 42.8867 235.886 42.21C237.2 41.514 238.679 41.166 240.323 41.166C241.966 41.166 243.435 41.514 244.731 42.21C246.026 42.8867 247.041 43.834 247.776 45.052C248.51 46.27 248.878 47.6523 248.878 49.199C248.878 50.7457 248.51 52.128 247.776 53.346C247.041 54.564 246.026 55.521 244.731 56.217C243.435 56.8937 241.966 57.232 240.323 57.232ZM240.323 53.52C241.483 53.52 242.43 53.1333 243.165 52.36C243.919 51.5673 244.296 50.5137 244.296 49.199C244.296 47.8843 243.919 46.8403 243.165 46.067C242.43 45.2743 241.483 44.878 240.323 44.878C239.163 44.878 238.206 45.2743 237.452 46.067C236.698 46.8403 236.321 47.8843 236.321 49.199C236.321 50.5137 236.698 51.5673 237.452 52.36C238.206 53.1333 239.163 53.52 240.323 53.52ZM256.222 43.457C256.764 42.703 257.489 42.1327 258.397 41.746C259.325 41.3593 260.389 41.166 261.587 41.166V45.342C261.085 45.3033 260.746 45.284 260.572 45.284C259.277 45.284 258.262 45.6513 257.527 46.386C256.793 47.1013 256.425 48.184 256.425 49.634V57H251.901V41.398H256.222V43.457ZM279.419 49.257C279.419 49.315 279.39 49.721 279.332 50.475H267.529C267.742 51.4417 268.244 52.2053 269.037 52.766C269.83 53.3267 270.816 53.607 271.995 53.607C272.807 53.607 273.522 53.491 274.141 53.259C274.779 53.0077 275.369 52.621 275.91 52.099L278.317 54.709C276.848 56.391 274.702 57.232 271.879 57.232C270.12 57.232 268.563 56.8937 267.21 56.217C265.857 55.521 264.813 54.564 264.078 53.346C263.343 52.128 262.976 50.7457 262.976 49.199C262.976 47.6717 263.334 46.299 264.049 45.081C264.784 43.8437 265.779 42.8867 267.036 42.21C268.312 41.514 269.733 41.166 271.299 41.166C272.826 41.166 274.209 41.4947 275.446 42.152C276.683 42.8093 277.65 43.7567 278.346 44.994C279.061 46.212 279.419 47.633 279.419 49.257ZM271.328 44.588C270.303 44.588 269.443 44.878 268.747 45.458C268.051 46.038 267.626 46.8307 267.471 47.836H275.156C275.001 46.85 274.576 46.067 273.88 45.487C273.184 44.8877 272.333 44.588 271.328 44.588ZM309.581 36.7V57H305.724L295.603 44.675V57H290.963V36.7H294.849L304.941 49.025V36.7H309.581ZM329.348 49.257C329.348 49.315 329.319 49.721 329.261 50.475H317.458C317.67 51.4417 318.173 52.2053 318.966 52.766C319.758 53.3267 320.744 53.607 321.924 53.607C322.736 53.607 323.451 53.491 324.07 53.259C324.708 53.0077 325.297 52.621 325.839 52.099L328.246 54.709C326.776 56.391 324.63 57.232 321.808 57.232C320.048 57.232 318.492 56.8937 317.139 56.217C315.785 55.521 314.741 54.564 314.007 53.346C313.272 52.128 312.905 50.7457 312.905 49.199C312.905 47.6717 313.262 46.299 313.978 45.081C314.712 43.8437 315.708 42.8867 316.965 42.21C318.241 41.514 319.662 41.166 321.228 41.166C322.755 41.166 324.137 41.4947 325.375 42.152C326.612 42.8093 327.579 43.7567 328.275 44.994C328.99 46.212 329.348 47.633 329.348 49.257ZM321.257 44.588C320.232 44.588 319.372 44.878 318.676 45.458C317.98 46.038 317.554 46.8307 317.4 47.836H325.085C324.93 46.85 324.505 46.067 323.809 45.487C323.113 44.8877 322.262 44.588 321.257 44.588ZM357.132 41.398L351.477 57H347.127L343.618 47.314L339.993 57H335.643L330.017 41.398H334.28L337.963 51.954L341.791 41.398H345.619L349.331 51.954L353.13 41.398H357.132ZM374.094 49.257C374.094 49.315 374.065 49.721 374.007 50.475H362.204C362.416 51.4417 362.919 52.2053 363.712 52.766C364.504 53.3267 365.49 53.607 366.67 53.607C367.482 53.607 368.197 53.491 368.816 53.259C369.454 53.0077 370.043 52.621 370.585 52.099L372.992 54.709C371.522 56.391 369.376 57.232 366.554 57.232C364.794 57.232 363.238 56.8937 361.885 56.217C360.531 55.521 359.487 54.564 358.753 53.346C358.018 52.128 357.651 50.7457 357.651 49.199C357.651 47.6717 358.008 46.299 358.724 45.081C359.458 43.8437 360.454 42.8867 361.711 42.21C362.987 41.514 364.408 41.166 365.974 41.166C367.501 41.166 368.883 41.4947 370.121 42.152C371.358 42.8093 372.325 43.7567 373.021 44.994C373.736 46.212 374.094 47.633 374.094 49.257ZM366.003 44.588C364.978 44.588 364.118 44.878 363.422 45.458C362.726 46.038 362.3 46.8307 362.146 47.836H369.831C369.676 46.85 369.251 46.067 368.555 45.487C367.859 44.8877 367.008 44.588 366.003 44.588ZM381.427 43.457C381.968 42.703 382.693 42.1327 383.602 41.746C384.53 41.3593 385.593 41.166 386.792 41.166V45.342C386.289 45.3033 385.951 45.284 385.777 45.284C384.481 45.284 383.466 45.6513 382.732 46.386C381.997 47.1013 381.63 48.184 381.63 49.634V57H377.106V41.398H381.427V43.457ZM406.914 36.7C408.712 36.7 410.268 36.9997 411.583 37.599C412.917 38.1983 413.941 39.049 414.657 40.151C415.372 41.253 415.73 42.558 415.73 44.066C415.73 45.5547 415.372 46.8597 414.657 47.981C413.941 49.083 412.917 49.9337 411.583 50.533C410.268 51.113 408.712 51.403 406.914 51.403H402.825V57H398.127V36.7H406.914ZM406.653 47.575C408.064 47.575 409.137 47.2753 409.872 46.676C410.606 46.0573 410.974 45.1873 410.974 44.066C410.974 42.9253 410.606 42.0553 409.872 41.456C409.137 40.8373 408.064 40.528 406.653 40.528H402.825V47.575H406.653ZM424.916 41.166C427.333 41.166 429.189 41.746 430.484 42.906C431.779 44.0467 432.427 45.777 432.427 48.097V57H428.193V55.057C427.342 56.507 425.757 57.232 423.437 57.232C422.238 57.232 421.194 57.029 420.305 56.623C419.435 56.217 418.768 55.6563 418.304 54.941C417.84 54.2257 417.608 53.4137 417.608 52.505C417.608 51.055 418.149 49.9143 419.232 49.083C420.334 48.2517 422.026 47.836 424.307 47.836H427.903C427.903 46.85 427.603 46.096 427.004 45.574C426.405 45.0327 425.506 44.762 424.307 44.762C423.476 44.762 422.654 44.8973 421.842 45.168C421.049 45.4193 420.373 45.7673 419.812 46.212L418.188 43.051C419.039 42.4517 420.054 41.9877 421.233 41.659C422.432 41.3303 423.659 41.166 424.916 41.166ZM424.568 54.187C425.341 54.187 426.028 54.013 426.627 53.665C427.226 53.2977 427.652 52.766 427.903 52.07V50.475H424.8C422.944 50.475 422.016 51.084 422.016 52.302C422.016 52.882 422.238 53.346 422.683 53.694C423.147 54.0227 423.775 54.187 424.568 54.187ZM440.843 43.457C441.384 42.703 442.109 42.1327 443.018 41.746C443.946 41.3593 445.009 41.166 446.208 41.166V45.342C445.705 45.3033 445.367 45.284 445.193 45.284C443.897 45.284 442.882 45.6513 442.148 46.386C441.413 47.1013 441.046 48.184 441.046 49.634V57H436.522V41.398H440.843V43.457ZM455.106 41.166C457.522 41.166 459.378 41.746 460.674 42.906C461.969 44.0467 462.617 45.777 462.617 48.097V57H458.383V55.057C457.532 56.507 455.947 57.232 453.627 57.232C452.428 57.232 451.384 57.029 450.495 56.623C449.625 56.217 448.958 55.6563 448.494 54.941C448.03 54.2257 447.798 53.4137 447.798 52.505C447.798 51.055 448.339 49.9143 449.422 49.083C450.524 48.2517 452.215 47.836 454.497 47.836H458.093C458.093 46.85 457.793 46.096 457.194 45.574C456.594 45.0327 455.695 44.762 454.497 44.762C453.665 44.762 452.844 44.8973 452.032 45.168C451.239 45.4193 450.562 45.7673 450.002 46.212L448.378 43.051C449.228 42.4517 450.243 41.9877 451.423 41.659C452.621 41.3303 453.849 41.166 455.106 41.166ZM454.758 54.187C455.531 54.187 456.217 54.013 456.817 53.665C457.416 53.2977 457.841 52.766 458.093 52.07V50.475H454.99C453.134 50.475 452.206 51.084 452.206 52.302C452.206 52.882 452.428 53.346 452.873 53.694C453.337 54.0227 453.965 54.187 454.758 54.187ZM482.773 35.482V57H478.452V55.202C477.331 56.5553 475.707 57.232 473.58 57.232C472.111 57.232 470.777 56.9033 469.578 56.246C468.399 55.5887 467.471 54.651 466.794 53.433C466.117 52.215 465.779 50.8037 465.779 49.199C465.779 47.5943 466.117 46.183 466.794 44.965C467.471 43.747 468.399 42.8093 469.578 42.152C470.777 41.4947 472.111 41.166 473.58 41.166C475.571 41.166 477.128 41.7943 478.249 43.051V35.482H482.773ZM474.363 53.52C475.504 53.52 476.451 53.1333 477.205 52.36C477.959 51.5673 478.336 50.5137 478.336 49.199C478.336 47.8843 477.959 46.8403 477.205 46.067C476.451 45.2743 475.504 44.878 474.363 44.878C473.203 44.878 472.246 45.2743 471.492 46.067C470.738 46.8403 470.361 47.8843 470.361 49.199C470.361 50.5137 470.738 51.5673 471.492 52.36C472.246 53.1333 473.203 53.52 474.363 53.52ZM486.96 41.398H491.484V57H486.96V41.398ZM489.222 39.223C488.391 39.223 487.714 38.9813 487.192 38.498C486.67 38.0147 486.409 37.4153 486.409 36.7C486.409 35.9847 486.67 35.3853 487.192 34.902C487.714 34.4187 488.391 34.177 489.222 34.177C490.053 34.177 490.73 34.409 491.252 34.873C491.774 35.337 492.035 35.917 492.035 36.613C492.035 37.367 491.774 37.9953 491.252 38.498C490.73 38.9813 490.053 39.223 489.222 39.223ZM511.778 41.398V54.39C511.778 57.2513 511.033 59.378 509.545 60.77C508.056 62.162 505.881 62.858 503.02 62.858C501.512 62.858 500.081 62.6743 498.728 62.307C497.374 61.9397 496.253 61.408 495.364 60.712L497.162 57.464C497.819 58.0053 498.65 58.4307 499.656 58.74C500.661 59.0687 501.666 59.233 502.672 59.233C504.238 59.233 505.388 58.8753 506.123 58.16C506.877 57.464 507.254 56.4007 507.254 54.97V54.303C506.074 55.5983 504.431 56.246 502.324 56.246C500.893 56.246 499.578 55.9367 498.38 55.318C497.2 54.68 496.263 53.7907 495.567 52.65C494.871 51.5093 494.523 50.1947 494.523 48.706C494.523 47.2173 494.871 45.9027 495.567 44.762C496.263 43.6213 497.2 42.7417 498.38 42.123C499.578 41.485 500.893 41.166 502.324 41.166C504.586 41.166 506.306 41.9103 507.486 43.399V41.398H511.778ZM503.223 52.534C504.421 52.534 505.398 52.186 506.152 51.49C506.925 50.7747 507.312 49.8467 507.312 48.706C507.312 47.5653 506.925 46.647 506.152 45.951C505.398 45.2357 504.421 44.878 503.223 44.878C502.024 44.878 501.038 45.2357 500.265 45.951C499.491 46.647 499.105 47.5653 499.105 48.706C499.105 49.8467 499.491 50.7747 500.265 51.49C501.038 52.186 502.024 52.534 503.223 52.534ZM535.969 41.166C537.922 41.166 539.469 41.746 540.609 42.906C541.769 44.0467 542.349 45.7673 542.349 48.068V57H537.825V48.764C537.825 47.5267 537.564 46.6083 537.042 46.009C536.54 45.3903 535.815 45.081 534.867 45.081C533.804 45.081 532.963 45.429 532.344 46.125C531.726 46.8017 531.416 47.8167 531.416 49.17V57H526.892V48.764C526.892 46.3087 525.906 45.081 523.934 45.081C522.89 45.081 522.059 45.429 521.44 46.125C520.822 46.8017 520.512 47.8167 520.512 49.17V57H515.988V41.398H520.309V43.196C520.889 42.5387 521.595 42.036 522.426 41.688C523.277 41.34 524.205 41.166 525.21 41.166C526.312 41.166 527.308 41.3883 528.197 41.833C529.087 42.2583 529.802 42.8867 530.343 43.718C530.981 42.906 531.784 42.2777 532.75 41.833C533.736 41.3883 534.809 41.166 535.969 41.166ZM551.653 57.232C550.358 57.232 549.092 57.0773 547.854 56.768C546.617 56.4393 545.631 56.0333 544.896 55.55L546.404 52.302C547.1 52.7467 547.941 53.114 548.927 53.404C549.913 53.6747 550.88 53.81 551.827 53.81C553.741 53.81 554.698 53.3363 554.698 52.389C554.698 51.9443 554.437 51.6253 553.915 51.432C553.393 51.2387 552.591 51.0743 551.508 50.939C550.232 50.7457 549.179 50.5233 548.347 50.272C547.516 50.0207 546.791 49.576 546.172 48.938C545.573 48.3 545.273 47.3913 545.273 46.212C545.273 45.226 545.554 44.356 546.114 43.602C546.694 42.8287 547.526 42.2293 548.608 41.804C549.71 41.3787 551.006 41.166 552.494 41.166C553.596 41.166 554.689 41.2917 555.771 41.543C556.873 41.775 557.782 42.1037 558.497 42.529L556.989 45.748C555.617 44.9747 554.118 44.588 552.494 44.588C551.528 44.588 550.803 44.7233 550.319 44.994C549.836 45.2647 549.594 45.6127 549.594 46.038C549.594 46.5213 549.855 46.8597 550.377 47.053C550.899 47.2463 551.731 47.43 552.871 47.604C554.147 47.8167 555.191 48.0487 556.003 48.3C556.815 48.532 557.521 48.967 558.12 49.605C558.72 50.243 559.019 51.1323 559.019 52.273C559.019 53.2397 558.729 54.1 558.149 54.854C557.569 55.608 556.719 56.1977 555.597 56.623C554.495 57.029 553.181 57.232 551.653 57.232ZM2.407 70.7H7.105V91H2.407V70.7ZM21.0866 75.166C23.02 75.166 24.5763 75.746 25.7556 76.906C26.9543 78.066 27.5536 79.7867 27.5536 82.068V91H23.0296V82.764C23.0296 81.5267 22.759 80.6083 22.2176 80.009C21.6763 79.3903 20.8933 79.081 19.8686 79.081C18.728 79.081 17.8193 79.4387 17.1426 80.154C16.466 80.85 16.1276 81.894 16.1276 83.286V91H11.6036V75.398H15.9246V77.225C16.524 76.5677 17.2683 76.065 18.1576 75.717C19.047 75.3497 20.0233 75.166 21.0866 75.166ZM53.1203 91L49.2053 85.345H48.9733H44.8843V91H40.1863V70.7H48.9733C50.7713 70.7 52.3276 70.9997 53.6423 71.599C54.9763 72.1983 56.001 73.049 56.7163 74.151C57.4316 75.253 57.7893 76.558 57.7893 78.066C57.7893 79.574 57.422 80.879 56.6873 81.981C55.972 83.0637 54.9473 83.895 53.6133 84.475L58.1663 91H53.1203ZM53.0333 78.066C53.0333 76.9253 52.666 76.0553 51.9313 75.456C51.1966 74.8373 50.1236 74.528 48.7123 74.528H44.8843V81.604H48.7123C50.1236 81.604 51.1966 81.2947 51.9313 80.676C52.666 80.0573 53.0333 79.1873 53.0333 78.066ZM76.4755 83.257C76.4755 83.315 76.4465 83.721 76.3885 84.475H64.5855C64.7982 85.4417 65.3008 86.2053 66.0935 86.766C66.8862 87.3267 67.8722 87.607 69.0515 87.607C69.8635 87.607 70.5788 87.491 71.1975 87.259C71.8355 87.0077 72.4252 86.621 72.9665 86.099L75.3735 88.709C73.9042 90.391 71.7582 91.232 68.9355 91.232C67.1762 91.232 65.6198 90.8937 64.2665 90.217C62.9132 89.521 61.8692 88.564 61.1345 87.346C60.3998 86.128 60.0325 84.7457 60.0325 83.199C60.0325 81.6717 60.3902 80.299 61.1055 79.081C61.8402 77.8437 62.8358 76.8867 64.0925 76.21C65.3685 75.514 66.7895 75.166 68.3555 75.166C69.8828 75.166 71.2652 75.4947 72.5025 76.152C73.7398 76.8093 74.7065 77.7567 75.4025 78.994C76.1178 80.212 76.4755 81.633 76.4755 83.257ZM68.3845 78.588C67.3598 78.588 66.4995 78.878 65.8035 79.458C65.1075 80.038 64.6822 80.8307 64.5275 81.836H72.2125C72.0578 80.85 71.6325 80.067 70.9365 79.487C70.2405 78.8877 69.3898 78.588 68.3845 78.588ZM84.7364 91.232C83.4411 91.232 82.1747 91.0773 80.9374 90.768C79.7001 90.4393 78.7141 90.0333 77.9794 89.55L79.4874 86.302C80.1834 86.7467 81.0244 87.114 82.0104 87.404C82.9964 87.6747 83.9631 87.81 84.9104 87.81C86.8244 87.81 87.7814 87.3363 87.7814 86.389C87.7814 85.9443 87.5204 85.6253 86.9984 85.432C86.4764 85.2387 85.6741 85.0743 84.5914 84.939C83.3154 84.7457 82.2617 84.5233 81.4304 84.272C80.5991 84.0207 79.8741 83.576 79.2554 82.938C78.6561 82.3 78.3564 81.3913 78.3564 80.212C78.3564 79.226 78.6367 78.356 79.1974 77.602C79.7774 76.8287 80.6087 76.2293 81.6914 75.804C82.7934 75.3787 84.0887 75.166 85.5774 75.166C86.6794 75.166 87.7717 75.2917 88.8544 75.543C89.9564 75.775 90.8651 76.1037 91.5804 76.529L90.0724 79.748C88.6997 78.9747 87.2014 78.588 85.5774 78.588C84.6107 78.588 83.8857 78.7233 83.4024 78.994C82.9191 79.2647 82.6774 79.6127 82.6774 80.038C82.6774 80.5213 82.9384 80.8597 83.4604 81.053C83.9824 81.2463 84.8137 81.43 85.9544 81.604C87.2304 81.8167 88.2744 82.0487 89.0864 82.3C89.8984 82.532 90.6041 82.967 91.2034 83.605C91.8027 84.243 92.1024 85.1323 92.1024 86.273C92.1024 87.2397 91.8124 88.1 91.2324 88.854C90.6524 89.608 89.8017 90.1977 88.6804 90.623C87.5784 91.029 86.2637 91.232 84.7364 91.232ZM104.116 75.166C105.566 75.166 106.88 75.5043 108.06 76.181C109.258 76.8383 110.196 77.776 110.873 78.994C111.549 80.1927 111.888 81.5943 111.888 83.199C111.888 84.8037 111.549 86.215 110.873 87.433C110.196 88.6317 109.258 89.5693 108.06 90.246C106.88 90.9033 105.566 91.232 104.116 91.232C102.124 91.232 100.558 90.6037 99.4177 89.347V96.626H94.8937V75.398H99.2147V77.196C100.336 75.8427 101.97 75.166 104.116 75.166ZM103.333 87.52C104.493 87.52 105.44 87.1333 106.175 86.36C106.929 85.5673 107.306 84.5137 107.306 83.199C107.306 81.8843 106.929 80.8403 106.175 80.067C105.44 79.2743 104.493 78.878 103.333 78.878C102.173 78.878 101.216 79.2743 100.462 80.067C99.727 80.8403 99.3597 81.8843 99.3597 83.199C99.3597 84.5137 99.727 85.5673 100.462 86.36C101.216 87.1333 102.173 87.52 103.333 87.52ZM114.916 75.398H119.44V91H114.916V75.398ZM117.178 73.223C116.347 73.223 115.67 72.9813 115.148 72.498C114.626 72.0147 114.365 71.4153 114.365 70.7C114.365 69.9847 114.626 69.3853 115.148 68.902C115.67 68.4187 116.347 68.177 117.178 68.177C118.009 68.177 118.686 68.409 119.208 68.873C119.73 69.337 119.991 69.917 119.991 70.613C119.991 71.367 119.73 71.9953 119.208 72.498C118.686 72.9813 118.009 73.223 117.178 73.223ZM127.96 77.457C128.501 76.703 129.226 76.1327 130.135 75.746C131.063 75.3593 132.126 75.166 133.325 75.166V79.342C132.822 79.3033 132.484 79.284 132.31 79.284C131.014 79.284 129.999 79.6513 129.265 80.386C128.53 81.1013 128.163 82.184 128.163 83.634V91H123.639V75.398H127.96V77.457ZM142.223 75.166C144.639 75.166 146.495 75.746 147.791 76.906C149.086 78.0467 149.734 79.777 149.734 82.097V91H145.5V89.057C144.649 90.507 143.064 91.232 140.744 91.232C139.545 91.232 138.501 91.029 137.612 90.623C136.742 90.217 136.075 89.6563 135.611 88.941C135.147 88.2257 134.915 87.4137 134.915 86.505C134.915 85.055 135.456 83.9143 136.539 83.083C137.641 82.2517 139.332 81.836 141.614 81.836H145.21C145.21 80.85 144.91 80.096 144.311 79.574C143.711 79.0327 142.812 78.762 141.614 78.762C140.782 78.762 139.961 78.8973 139.149 79.168C138.356 79.4193 137.679 79.7673 137.119 80.212L135.495 77.051C136.345 76.4517 137.36 75.9877 138.54 75.659C139.738 75.3303 140.966 75.166 142.223 75.166ZM141.875 88.187C142.648 88.187 143.334 88.013 143.934 87.665C144.533 87.2977 144.958 86.766 145.21 86.07V84.475H142.107C140.251 84.475 139.323 85.084 139.323 86.302C139.323 86.882 139.545 87.346 139.99 87.694C140.454 88.0227 141.082 88.187 141.875 88.187ZM163.891 90.246C163.447 90.5747 162.896 90.826 162.238 91C161.6 91.1547 160.924 91.232 160.208 91.232C158.352 91.232 156.912 90.7583 155.887 89.811C154.882 88.8637 154.379 87.4717 154.379 85.635V79.226H151.972V75.746H154.379V71.947H158.903V75.746H162.789V79.226H158.903V85.577C158.903 86.2343 159.068 86.7467 159.396 87.114C159.744 87.462 160.228 87.636 160.846 87.636C161.562 87.636 162.171 87.4427 162.673 87.056L163.891 90.246ZM173.373 91.232C171.73 91.232 170.251 90.8937 168.936 90.217C167.641 89.521 166.626 88.564 165.891 87.346C165.157 86.128 164.789 84.7457 164.789 83.199C164.789 81.6523 165.157 80.27 165.891 79.052C166.626 77.834 167.641 76.8867 168.936 76.21C170.251 75.514 171.73 75.166 173.373 75.166C175.017 75.166 176.486 75.514 177.781 76.21C179.077 76.8867 180.092 77.834 180.826 79.052C181.561 80.27 181.928 81.6523 181.928 83.199C181.928 84.7457 181.561 86.128 180.826 87.346C180.092 88.564 179.077 89.521 177.781 90.217C176.486 90.8937 175.017 91.232 173.373 91.232ZM173.373 87.52C174.533 87.52 175.481 87.1333 176.215 86.36C176.969 85.5673 177.346 84.5137 177.346 83.199C177.346 81.8843 176.969 80.8403 176.215 80.067C175.481 79.2743 174.533 78.878 173.373 78.878C172.213 78.878 171.256 79.2743 170.502 80.067C169.748 80.8403 169.371 81.8843 169.371 83.199C169.371 84.5137 169.748 85.5673 170.502 86.36C171.256 87.1333 172.213 87.52 173.373 87.52ZM189.273 77.457C189.815 76.703 190.54 76.1327 191.448 75.746C192.376 75.3593 193.44 75.166 194.638 75.166V79.342C194.136 79.3033 193.797 79.284 193.623 79.284C192.328 79.284 191.313 79.6513 190.578 80.386C189.844 81.1013 189.476 82.184 189.476 83.634V91H184.952V75.398H189.273V77.457ZM213.352 75.398L206.305 91.957C205.59 93.755 204.701 95.0213 203.637 95.756C202.593 96.4907 201.327 96.858 199.838 96.858C199.026 96.858 198.224 96.7323 197.431 96.481C196.639 96.2297 195.991 95.8817 195.488 95.437L197.141 92.218C197.489 92.5273 197.886 92.769 198.33 92.943C198.794 93.117 199.249 93.204 199.693 93.204C200.312 93.204 200.815 93.0493 201.201 92.74C201.588 92.45 201.936 91.957 202.245 91.261L202.303 91.116L195.546 75.398H200.215L204.594 85.983L209.002 75.398H213.352ZM242.203 91L242.174 78.82L236.2 88.854H234.083L228.138 79.081V91H223.73V70.7H227.616L235.214 83.315L242.696 70.7H246.553L246.611 91H242.203ZM266.392 83.257C266.392 83.315 266.363 83.721 266.305 84.475H254.502C254.714 85.4417 255.217 86.2053 256.01 86.766C256.802 87.3267 257.788 87.607 258.968 87.607C259.78 87.607 260.495 87.491 261.114 87.259C261.752 87.0077 262.341 86.621 262.883 86.099L265.29 88.709C263.82 90.391 261.674 91.232 258.852 91.232C257.092 91.232 255.536 90.8937 254.183 90.217C252.829 89.521 251.785 88.564 251.051 87.346C250.316 86.128 249.949 84.7457 249.949 83.199C249.949 81.6717 250.306 80.299 251.022 79.081C251.756 77.8437 252.752 76.8867 254.009 76.21C255.285 75.514 256.706 75.166 258.272 75.166C259.799 75.166 261.181 75.4947 262.419 76.152C263.656 76.8093 264.623 77.7567 265.319 78.994C266.034 80.212 266.392 81.633 266.392 83.257ZM258.301 78.588C257.276 78.588 256.416 78.878 255.72 79.458C255.024 80.038 254.598 80.8307 254.444 81.836H262.129C261.974 80.85 261.549 80.067 260.853 79.487C260.157 78.8877 259.306 78.588 258.301 78.588ZM285.295 69.482V91H280.974V89.202C279.853 90.5553 278.229 91.232 276.102 91.232C274.633 91.232 273.299 90.9033 272.1 90.246C270.921 89.5887 269.993 88.651 269.316 87.433C268.64 86.215 268.301 84.8037 268.301 83.199C268.301 81.5943 268.64 80.183 269.316 78.965C269.993 77.747 270.921 76.8093 272.1 76.152C273.299 75.4947 274.633 75.166 276.102 75.166C278.094 75.166 279.65 75.7943 280.771 77.051V69.482H285.295ZM276.885 87.52C278.026 87.52 278.973 87.1333 279.727 86.36C280.481 85.5673 280.858 84.5137 280.858 83.199C280.858 81.8843 280.481 80.8403 279.727 80.067C278.973 79.2743 278.026 78.878 276.885 78.878C275.725 78.878 274.768 79.2743 274.014 80.067C273.26 80.8403 272.883 81.8843 272.883 83.199C272.883 84.5137 273.26 85.5673 274.014 86.36C274.768 87.1333 275.725 87.52 276.885 87.52ZM289.483 75.398H294.007V91H289.483V75.398ZM291.745 73.223C290.913 73.223 290.237 72.9813 289.715 72.498C289.193 72.0147 288.932 71.4153 288.932 70.7C288.932 69.9847 289.193 69.3853 289.715 68.902C290.237 68.4187 290.913 68.177 291.745 68.177C292.576 68.177 293.253 68.409 293.775 68.873C294.297 69.337 294.558 69.917 294.558 70.613C294.558 71.367 294.297 71.9953 293.775 72.498C293.253 72.9813 292.576 73.223 291.745 73.223ZM305.745 91.232C304.083 91.232 302.584 90.8937 301.25 90.217C299.936 89.521 298.901 88.564 298.147 87.346C297.413 86.128 297.045 84.7457 297.045 83.199C297.045 81.6523 297.413 80.27 298.147 79.052C298.901 77.834 299.936 76.8867 301.25 76.21C302.584 75.514 304.083 75.166 305.745 75.166C307.389 75.166 308.819 75.514 310.037 76.21C311.275 76.8867 312.174 77.863 312.734 79.139L309.225 81.024C308.413 79.5933 307.244 78.878 305.716 78.878C304.537 78.878 303.561 79.2647 302.787 80.038C302.014 80.8113 301.627 81.865 301.627 83.199C301.627 84.533 302.014 85.5867 302.787 86.36C303.561 87.1333 304.537 87.52 305.716 87.52C307.263 87.52 308.433 86.8047 309.225 85.374L312.734 87.288C312.174 88.5253 311.275 89.492 310.037 90.188C308.819 90.884 307.389 91.232 305.745 91.232ZM315.339 75.398H319.863V91H315.339V75.398ZM317.601 73.223C316.77 73.223 316.093 72.9813 315.571 72.498C315.049 72.0147 314.788 71.4153 314.788 70.7C314.788 69.9847 315.049 69.3853 315.571 68.902C316.093 68.4187 316.77 68.177 317.601 68.177C318.432 68.177 319.109 68.409 319.631 68.873C320.153 69.337 320.414 69.917 320.414 70.613C320.414 71.367 320.153 71.9953 319.631 72.498C319.109 72.9813 318.432 73.223 317.601 73.223ZM333.545 75.166C335.478 75.166 337.034 75.746 338.214 76.906C339.412 78.066 340.012 79.7867 340.012 82.068V91H335.488V82.764C335.488 81.5267 335.217 80.6083 334.676 80.009C334.134 79.3903 333.351 79.081 332.327 79.081C331.186 79.081 330.277 79.4387 329.601 80.154C328.924 80.85 328.586 81.894 328.586 83.286V91H324.062V75.398H328.383V77.225C328.982 76.5677 329.726 76.065 330.616 75.717C331.505 75.3497 332.481 75.166 333.545 75.166ZM359.565 83.257C359.565 83.315 359.536 83.721 359.478 84.475H347.675C347.888 85.4417 348.391 86.2053 349.183 86.766C349.976 87.3267 350.962 87.607 352.141 87.607C352.953 87.607 353.669 87.491 354.287 87.259C354.925 87.0077 355.515 86.621 356.056 86.099L358.463 88.709C356.994 90.391 354.848 91.232 352.025 91.232C350.266 91.232 348.71 90.8937 347.356 90.217C346.003 89.521 344.959 88.564 344.224 87.346C343.49 86.128 343.122 84.7457 343.122 83.199C343.122 81.6717 343.48 80.299 344.195 79.081C344.93 77.8437 345.926 76.8867 347.182 76.21C348.458 75.514 349.879 75.166 351.445 75.166C352.973 75.166 354.355 75.4947 355.592 76.152C356.83 76.8093 357.796 77.7567 358.492 78.994C359.208 80.212 359.565 81.633 359.565 83.257ZM351.474 78.588C350.45 78.588 349.589 78.878 348.893 79.458C348.197 80.038 347.772 80.8307 347.617 81.836H355.302C355.148 80.85 354.722 80.067 354.026 79.487C353.33 78.8877 352.48 78.588 351.474 78.588Z" fill="#015189"/>
</svg>
