<svg width="1044" height="313" viewBox="0 0 1044 313" fill="none" xmlns="http://www.w3.org/2000/svg">
<path d="M48.3131 397.274L-9.35677 397.274C-47.7239 397.274 -62 363.407 -62 345.583C-62 327.758 -50.4006 293 -2.21871 293C36.3268 293 48.3426 325.678 49.5323 342.018L49.5323 396.055C49.5323 396.728 48.9864 397.274 48.3131 397.274Z" fill="#05B29A" fill-opacity="0.11"/>
<path d="M52.6869 397.274L110.357 397.274C148.724 397.274 163 363.407 163 345.583C163 327.758 151.401 293 103.219 293C64.6732 293 52.6574 325.678 51.4677 342.018L51.4677 396.055C51.4677 396.728 52.0136 397.274 52.6869 397.274Z" fill="#05B29A" fill-opacity="0.11"/>
<path d="M129.585 63.7346L114.012 63.7346C103.071 63.7346 99.0001 54.0772 99.0001 48.9944C99.0001 43.9115 102.308 34 116.047 33.9999C127.039 33.9999 130.465 43.3185 130.804 47.9778L130.804 62.5154C130.804 63.1888 130.259 63.7346 129.585 63.7346Z" fill="#05B29A" fill-opacity="0.11"/>
<path d="M132.576 63.7346L148.149 63.7346C159.09 63.7346 163.161 54.0772 163.161 48.9944C163.161 43.9115 159.853 34 146.114 34C135.122 34 131.696 43.3185 131.356 47.9778L131.356 62.5154C131.356 63.1888 131.902 63.7346 132.576 63.7346Z" fill="#05B29A" fill-opacity="0.11"/>
<path d="M132.575 64.4902L148.149 64.4902C159.09 64.4902 163.161 74.1476 163.161 79.2305C163.161 84.3133 159.853 94.2249 146.114 94.2249C135.122 94.2249 131.696 84.9063 131.356 80.2471L131.356 65.7094C131.356 65.0361 131.902 64.4902 132.575 64.4902Z" fill="#05B29A" fill-opacity="0.11"/>
<path d="M129.585 64.4902L114.012 64.4902C103.071 64.4902 99 74.1476 99 79.2305C99 84.3133 102.308 94.2249 116.047 94.2249C127.039 94.2249 130.465 84.9063 130.804 80.2471L130.804 65.7094C130.804 65.0361 130.259 64.4902 129.585 64.4902Z" fill="#05B29A" fill-opacity="0.11"/>
<path d="M937.827 112.273V53.5684C937.827 14.527 972.289 0 990.427 0C1008.57 0 1043.93 11.8032 1043.93 60.8319C1043.93 100.055 1010.68 112.282 994.055 113.492H939.047C938.373 113.492 937.827 112.946 937.827 112.273Z" fill="#05B29A" fill-opacity="0.4"/>
<path d="M936.107 112.273V53.5684C936.107 14.527 901.645 0 883.507 0C865.369 0 830 11.8032 830 60.8319C830 100.055 863.253 112.282 879.879 113.492H934.887C935.561 113.492 936.107 112.946 936.107 112.273Z" fill="#05B29A" fill-opacity="0.4"/>
<path d="M937.827 116.681V175.386C937.827 214.427 972.289 228.954 990.427 228.954C1008.57 228.954 1043.93 217.151 1043.93 168.122C1043.93 128.899 1010.68 116.672 994.055 115.462H939.047C938.373 115.462 937.827 116.008 937.827 116.681Z" fill="#05B29A" fill-opacity="0.4"/>
<path d="M936.107 116.681V175.386C936.107 214.427 901.645 228.954 883.507 228.954C865.369 228.954 830 217.151 830 168.122C830 128.899 863.253 116.672 879.879 115.462H934.887C935.561 115.462 936.107 116.008 936.107 116.681Z" fill="#05B29A" fill-opacity="0.4"/>
</svg>
