<svg width="18" height="18" viewBox="0 0 18 18" fill="none" xmlns="http://www.w3.org/2000/svg">
<path d="M17.4128 9.47507C17.7908 8.99018 18 8.39608 18 7.77795C18 6.79724 17.4353 5.86896 16.5263 5.3513C16.2922 5.21806 16.0258 5.14793 15.7545 5.14817H10.359L10.494 2.46379C10.5255 1.81509 10.2893 1.19914 9.83025 0.729539C9.60499 0.498075 9.33323 0.313914 9.03176 0.188437C8.73029 0.0629592 8.40551 -0.00116858 8.0775 1.61197e-05C6.9075 1.61197e-05 5.8725 0.764486 5.562 1.85877L3.62925 8.65163H3.6225V18H14.2493C14.4563 18 14.6588 17.9607 14.8455 17.8821C15.9165 17.4387 16.6073 16.423 16.6073 15.296C16.6073 15.0208 16.5668 14.7499 16.4858 14.4878C16.8638 14.0029 17.073 13.4088 17.073 12.7907C17.073 12.5155 17.0325 12.2446 16.9515 11.9825C17.3295 11.4976 17.5388 10.9035 17.5388 10.2854C17.5343 10.0102 17.4938 9.73717 17.4128 9.47507ZM0 9.35057V17.3011C0 17.6877 0.32175 18 0.72 18H2.1825V8.65163H0.72C0.32175 8.65163 0 8.96397 0 9.35057Z" fill="#000"/>
</svg>
