<svg width="17" height="17" viewBox="0 0 17 17" fill="none" xmlns="http://www.w3.org/2000/svg">
<path d="M6.84606 5.30714e-08C8.14001 -0.000161018 9.40753 0.366319 10.5017 1.05697C11.5959 1.74763 12.472 2.73419 13.0285 3.90233C13.585 5.07047 13.799 6.37237 13.6459 7.65718C13.4927 8.94199 12.9786 10.1571 12.1632 11.1617L16.7909 15.7892C16.9179 15.9154 16.9925 16.0851 16.9995 16.2641C17.0064 16.443 16.9454 16.618 16.8285 16.7537C16.7117 16.8895 16.5478 16.9759 16.3698 16.9957C16.1918 17.0154 16.0129 16.967 15.8691 16.8602L15.7898 16.7912L11.1611 12.1637C10.3101 12.8542 9.30576 13.3303 8.2325 13.552C7.15924 13.7737 6.04844 13.7346 4.99344 13.438C3.93844 13.1413 2.97007 12.5957 2.16971 11.8471C1.36935 11.0985 0.760389 10.1687 0.393996 9.13587C0.0276023 8.10305 -0.0855141 6.99738 0.0641527 5.91177C0.213819 4.82616 0.621897 3.79233 1.25409 2.89717C1.88628 2.00201 2.72412 1.27167 3.69719 0.767527C4.67026 0.263384 5.75013 0.000168167 6.84606 5.30714e-08ZM6.84606 1.41658C6.13292 1.41658 5.42676 1.55704 4.76791 1.82993C4.10905 2.10283 3.5104 2.50282 3.00614 3.00706C2.50187 3.5113 2.10187 4.10993 1.82896 4.76875C1.55606 5.42758 1.41559 6.13371 1.41559 6.84681C1.41559 7.55992 1.55606 8.26605 1.82896 8.92487C2.10187 9.5837 2.50187 10.1823 3.00614 10.6866C3.5104 11.1908 4.10905 11.5908 4.76791 11.8637C5.42676 12.1366 6.13292 12.277 6.84606 12.277C8.2863 12.277 9.66756 11.7049 10.686 10.6866C11.7044 9.6682 12.2765 8.287 12.2765 6.84681C12.2765 5.40663 11.7044 4.02543 10.686 3.00706C9.66756 1.98869 8.2863 1.41658 6.84606 1.41658Z" fill="#000"/>
</svg>
