<svg width="16" height="16" viewBox="0 0 16 16" fill="none" xmlns="http://www.w3.org/2000/svg">
<path d="M15.6377 7.40491L0.988524 0.070419C0.873708 0.0129211 0.744741 -0.0101171 0.617152 0.00407857C0.489563 0.0182742 0.368792 0.0690985 0.269381 0.150432C0.174443 0.230106 0.103582 0.334718 0.064764 0.452509C0.0259456 0.570299 0.0207089 0.696597 0.0496425 0.817204L1.81421 7.33157H9.34524V8.66511H1.81421L0.0230075 15.1595C-0.00414248 15.2602 -0.00731172 15.3659 0.0137547 15.4681C0.0348212 15.5702 0.0795356 15.666 0.144302 15.7477C0.209069 15.8294 0.292081 15.8948 0.386663 15.9386C0.481246 15.9823 0.584759 16.0032 0.688881 15.9996C0.793118 15.999 0.895753 15.9739 0.988524 15.9263L15.6377 8.59177C15.7468 8.53581 15.8383 8.4508 15.9023 8.3461C15.9662 8.24139 16 8.12106 16 7.99834C16 7.87562 15.9662 7.75528 15.9023 7.65058C15.8383 7.54588 15.7468 7.46087 15.6377 7.40491Z" fill="#000"/>
</svg>
