<svg width="527" height="184" viewBox="0 0 527 184" fill="none" xmlns="http://www.w3.org/2000/svg">
<path d="M527 0H0V129.14H527V0Z" fill="url(#paint0_linear)"/>
<path d="M475.555 129H0V165.391H475.555V129Z" fill="#F58220"/>
<path d="M50.9976 152V140.827H54.4353C55.4175 140.827 56.2949 141.05 57.0674 141.495C57.845 141.935 58.4512 142.564 58.886 143.383C59.3208 144.196 59.5383 145.122 59.5383 146.16V146.675C59.5383 147.713 59.3234 148.636 58.8937 149.445C58.4691 150.253 57.868 150.88 57.0904 151.325C56.3128 151.77 55.4354 151.995 54.4583 152H50.9976ZM53.2996 142.692V150.151H54.4123C55.3127 150.151 56.0007 149.857 56.4765 149.268C56.9523 148.68 57.1953 147.838 57.2055 146.744V146.153C57.2055 145.017 56.9702 144.158 56.4995 143.574C56.0289 142.986 55.3408 142.692 54.4353 142.692H53.2996ZM65.8843 152C65.782 151.8 65.7078 151.552 65.6618 151.256C65.1246 151.854 64.4263 152.153 63.5669 152.153C62.7535 152.153 62.0782 151.918 61.5411 151.448C61.009 150.977 60.743 150.383 60.743 149.667C60.743 148.787 61.0679 148.112 61.7175 147.641C62.3724 147.171 63.3162 146.933 64.5491 146.928H65.5697V146.452C65.5697 146.068 65.4699 145.761 65.2704 145.531C65.076 145.301 64.7665 145.186 64.3419 145.186C63.9685 145.186 63.6743 145.275 63.4595 145.454C63.2497 145.633 63.1448 145.879 63.1448 146.191H60.9272C60.9272 145.71 61.0755 145.265 61.3722 144.856C61.6689 144.447 62.0884 144.127 62.6307 143.897C63.173 143.661 63.7817 143.544 64.457 143.544C65.4802 143.544 66.291 143.802 66.8895 144.319C67.4932 144.83 67.795 145.552 67.795 146.483V150.082C67.8001 150.869 67.9101 151.465 68.125 151.87V152H65.8843ZM64.0503 150.458C64.3777 150.458 64.6795 150.386 64.9558 150.243C65.232 150.094 65.4367 149.897 65.5697 149.652V148.225H64.7409C63.6308 148.225 63.04 148.608 62.9683 149.376L62.9607 149.506C62.9607 149.782 63.0579 150.01 63.2523 150.189C63.4467 150.368 63.7127 150.458 64.0503 150.458ZM72.1536 141.656V143.697H73.5732V145.324H72.1536V149.468C72.1536 149.775 72.2124 149.995 72.3301 150.128C72.4478 150.261 72.6729 150.327 73.0054 150.327C73.2509 150.327 73.4684 150.309 73.6576 150.273V151.954C73.2228 152.087 72.7752 152.153 72.3148 152.153C70.7596 152.153 69.9666 151.368 69.9359 149.798V145.324H68.7235V143.697H69.9359V141.656H72.1536ZM78.6301 152.153C77.4126 152.153 76.4201 151.78 75.6528 151.033C74.8905 150.286 74.5094 149.291 74.5094 148.048V147.833C74.5094 146.999 74.6705 146.255 74.9928 145.6C75.3151 144.94 75.7704 144.434 76.3587 144.081C76.9522 143.723 77.6274 143.544 78.3846 143.544C79.5202 143.544 80.4129 143.902 81.0626 144.618C81.7174 145.334 82.0448 146.35 82.0448 147.664V148.57H76.7578C76.8294 149.112 77.0442 149.547 77.4023 149.874C77.7656 150.202 78.2234 150.366 78.7759 150.366C79.6302 150.366 80.2978 150.056 80.7787 149.437L81.8684 150.657C81.5358 151.128 81.0857 151.496 80.5178 151.762C79.95 152.023 79.3207 152.153 78.6301 152.153ZM78.3769 145.339C77.9369 145.339 77.5788 145.488 77.3026 145.784C77.0314 146.081 76.8575 146.506 76.7808 147.058H79.8656V146.882C79.8553 146.391 79.7223 146.012 79.4665 145.746C79.2107 145.475 78.8475 145.339 78.3769 145.339ZM83.4184 150.91C83.4184 150.557 83.5361 150.271 83.7714 150.051C84.0118 149.831 84.3111 149.721 84.6692 149.721C85.0324 149.721 85.3317 149.831 85.567 150.051C85.8075 150.271 85.9277 150.557 85.9277 150.91C85.9277 151.258 85.81 151.542 85.5747 151.762C85.3394 151.977 85.0375 152.084 84.6692 152.084C84.306 152.084 84.0067 151.977 83.7714 151.762C83.5361 151.542 83.4184 151.258 83.4184 150.91ZM83.4184 144.626C83.4184 144.273 83.5361 143.986 83.7714 143.766C84.0118 143.546 84.3111 143.436 84.6692 143.436C85.0324 143.436 85.3317 143.546 85.567 143.766C85.8075 143.986 85.9277 144.273 85.9277 144.626C85.9277 144.974 85.81 145.257 85.5747 145.477C85.3394 145.692 85.0375 145.8 84.6692 145.8C84.306 145.8 84.0067 145.692 83.7714 145.477C83.5361 145.257 83.4184 144.974 83.4184 144.626ZM92.3735 146.398L92.9413 140.827H98.6658V142.139H94.1461L93.8084 145.186C94.3558 144.864 94.9774 144.702 95.6731 144.702C96.6911 144.702 97.4994 145.04 98.098 145.715C98.6965 146.386 98.9958 147.294 98.9958 148.439C98.9958 149.59 98.6837 150.499 98.0596 151.164C97.4406 151.824 96.5735 152.153 95.4583 152.153C94.4709 152.153 93.6652 151.88 93.0411 151.332C92.417 150.785 92.0614 150.028 91.9745 149.061H93.3173C93.4043 149.7 93.6319 150.184 94.0003 150.511C94.3686 150.834 94.8546 150.995 95.4583 150.995C96.1182 150.995 96.6349 150.77 97.0083 150.319C97.3869 149.869 97.5762 149.248 97.5762 148.455C97.5762 147.708 97.3715 147.109 96.9623 146.659C96.5581 146.204 96.0184 145.976 95.3432 145.976C94.7242 145.976 94.2382 146.112 93.8852 146.383L93.5092 146.69L92.3735 146.398ZM109.493 140.827H110.974V148.739C110.974 149.808 110.652 150.644 110.007 151.248C109.368 151.852 108.514 152.153 107.444 152.153C106.334 152.153 105.47 151.87 104.851 151.302C104.232 150.734 103.922 149.938 103.922 148.915H105.396C105.396 149.555 105.569 150.053 105.917 150.412C106.27 150.77 106.779 150.949 107.444 150.949C108.053 150.949 108.544 150.757 108.918 150.373C109.296 149.99 109.488 149.452 109.493 148.762V140.827ZM118.387 151.179C117.834 151.829 117.024 152.153 115.954 152.153C115.069 152.153 114.394 151.898 113.929 151.386C113.468 150.869 113.235 150.107 113.23 149.099V143.697H114.65V149.061C114.65 150.319 115.161 150.949 116.185 150.949C117.269 150.949 117.99 150.545 118.349 149.736V143.697H119.768V152H118.418L118.387 151.179ZM123.275 143.697L123.321 144.741C123.955 143.943 124.784 143.544 125.807 143.544C127.562 143.544 128.447 144.534 128.462 146.513V152H127.043V146.506C127.038 145.907 126.899 145.465 126.628 145.178C126.362 144.892 125.945 144.748 125.378 144.748C124.917 144.748 124.513 144.871 124.165 145.117C123.817 145.362 123.546 145.685 123.352 146.084V152H121.932V143.697H123.275ZM134.049 152.153C132.923 152.153 132.007 151.785 131.302 151.048C130.596 150.307 130.243 149.317 130.243 148.079V147.818C130.243 146.994 130.399 146.26 130.711 145.616C131.028 144.966 131.468 144.459 132.031 144.096C132.598 143.728 133.212 143.544 133.872 143.544C134.952 143.544 135.791 143.899 136.389 144.61C136.988 145.321 137.287 146.339 137.287 147.664V148.255H131.662C131.683 149.074 131.921 149.736 132.376 150.243C132.836 150.744 133.419 150.995 134.125 150.995C134.627 150.995 135.051 150.892 135.399 150.688C135.747 150.483 136.051 150.212 136.312 149.874L137.179 150.55C136.484 151.619 135.44 152.153 134.049 152.153ZM133.872 144.71C133.299 144.71 132.818 144.92 132.43 145.339C132.041 145.754 131.8 146.337 131.708 147.089H135.867V146.981C135.826 146.26 135.632 145.703 135.284 145.309C134.936 144.91 134.466 144.71 133.872 144.71ZM150.01 152H142.689V150.979L146.557 146.682C147.13 146.033 147.523 145.506 147.738 145.101C147.958 144.692 148.068 144.27 148.068 143.835C148.068 143.252 147.892 142.774 147.539 142.4C147.186 142.027 146.715 141.84 146.127 141.84C145.421 141.84 144.871 142.042 144.477 142.446C144.088 142.845 143.894 143.403 143.894 144.119H142.474C142.474 143.091 142.804 142.26 143.464 141.625C144.129 140.991 145.017 140.674 146.127 140.674C147.165 140.674 147.986 140.947 148.59 141.495C149.194 142.037 149.496 142.761 149.496 143.666C149.496 144.766 148.795 146.076 147.393 147.595L144.4 150.841H150.01V152ZM158.52 147.235C158.52 148.897 158.236 150.133 157.668 150.941C157.1 151.749 156.213 152.153 155.005 152.153C153.813 152.153 152.931 151.76 152.358 150.972C151.785 150.179 151.488 148.997 151.468 147.427V145.531C151.468 143.889 151.752 142.669 152.319 141.871C152.887 141.073 153.777 140.674 154.99 140.674C156.192 140.674 157.077 141.06 157.645 141.833C158.213 142.6 158.504 143.787 158.52 145.393V147.235ZM157.1 145.293C157.1 144.091 156.931 143.216 156.594 142.669C156.256 142.116 155.721 141.84 154.99 141.84C154.263 141.84 153.734 142.114 153.401 142.661C153.069 143.209 152.898 144.05 152.887 145.186V147.457C152.887 148.665 153.061 149.557 153.409 150.135C153.762 150.708 154.294 150.995 155.005 150.995C155.706 150.995 156.225 150.724 156.563 150.181C156.906 149.639 157.085 148.785 157.1 147.618V145.293ZM167.659 152H160.338V150.979L164.206 146.682C164.779 146.033 165.173 145.506 165.388 145.101C165.608 144.692 165.718 144.27 165.718 143.835C165.718 143.252 165.541 142.774 165.188 142.4C164.835 142.027 164.364 141.84 163.776 141.84C163.07 141.84 162.52 142.042 162.126 142.446C161.737 142.845 161.543 143.403 161.543 144.119H160.123C160.123 143.091 160.453 142.26 161.113 141.625C161.778 140.991 162.666 140.674 163.776 140.674C164.815 140.674 165.636 140.947 166.239 141.495C166.843 142.037 167.145 142.761 167.145 143.666C167.145 144.766 166.444 146.076 165.042 147.595L162.05 150.841H167.659V152ZM173.828 152H172.401V142.538L169.539 143.59V142.301L173.606 140.774H173.828V152ZM183.628 154.072H182.285V140.827H183.628V154.072ZM197.793 142.692H194.371V152H192.069V142.692H188.692V140.827H197.793V142.692ZM201.308 152H199.082V143.697H201.308V152ZM198.952 141.549C198.952 141.216 199.062 140.942 199.282 140.728C199.507 140.513 199.811 140.405 200.195 140.405C200.573 140.405 200.875 140.513 201.1 140.728C201.325 140.942 201.438 141.216 201.438 141.549C201.438 141.886 201.323 142.162 201.093 142.377C200.868 142.592 200.568 142.7 200.195 142.7C199.821 142.7 199.52 142.592 199.289 142.377C199.064 142.162 198.952 141.886 198.952 141.549ZM205.221 143.697L205.29 144.626C205.878 143.904 206.674 143.544 207.677 143.544C208.746 143.544 209.48 143.966 209.879 144.81C210.462 143.966 211.293 143.544 212.373 143.544C213.273 143.544 213.943 143.807 214.383 144.334C214.823 144.856 215.043 145.644 215.043 146.698V152H212.818V146.705C212.818 146.235 212.726 145.892 212.542 145.677C212.358 145.457 212.033 145.347 211.567 145.347C210.902 145.347 210.442 145.664 210.186 146.299L210.194 152H207.976V146.713C207.976 146.232 207.881 145.884 207.692 145.669C207.503 145.454 207.18 145.347 206.725 145.347C206.096 145.347 205.641 145.608 205.359 146.13V152H203.142V143.697H205.221ZM220.576 152.153C219.358 152.153 218.366 151.78 217.599 151.033C216.836 150.286 216.455 149.291 216.455 148.048V147.833C216.455 146.999 216.616 146.255 216.939 145.6C217.261 144.94 217.716 144.434 218.305 144.081C218.898 143.723 219.573 143.544 220.33 143.544C221.466 143.544 222.359 143.902 223.008 144.618C223.663 145.334 223.991 146.35 223.991 147.664V148.57H218.704C218.775 149.112 218.99 149.547 219.348 149.874C219.711 150.202 220.169 150.366 220.722 150.366C221.576 150.366 222.244 150.056 222.725 149.437L223.814 150.657C223.482 151.128 223.031 151.496 222.464 151.762C221.896 152.023 221.267 152.153 220.576 152.153ZM220.323 145.339C219.883 145.339 219.525 145.488 219.248 145.784C218.977 146.081 218.803 146.506 218.727 147.058H221.811V146.882C221.801 146.391 221.668 146.012 221.412 145.746C221.157 145.475 220.793 145.339 220.323 145.339ZM225.364 150.91C225.364 150.557 225.482 150.271 225.717 150.051C225.958 149.831 226.257 149.721 226.615 149.721C226.978 149.721 227.277 149.831 227.513 150.051C227.753 150.271 227.873 150.557 227.873 150.91C227.873 151.258 227.756 151.542 227.52 151.762C227.285 151.977 226.983 152.084 226.615 152.084C226.252 152.084 225.953 151.977 225.717 151.762C225.482 151.542 225.364 151.258 225.364 150.91ZM225.364 144.626C225.364 144.273 225.482 143.986 225.717 143.766C225.958 143.546 226.257 143.436 226.615 143.436C226.978 143.436 227.277 143.546 227.513 143.766C227.753 143.986 227.873 144.273 227.873 144.626C227.873 144.974 227.756 145.257 227.52 145.477C227.285 145.692 226.983 145.8 226.615 145.8C226.252 145.8 225.953 145.692 225.717 145.477C225.482 145.257 225.364 144.974 225.364 144.626ZM234.319 146.398L234.887 140.827H240.612V142.139H236.092L235.754 145.186C236.302 144.864 236.923 144.702 237.619 144.702C238.637 144.702 239.445 145.04 240.044 145.715C240.642 146.386 240.942 147.294 240.942 148.439C240.942 149.59 240.63 150.499 240.005 151.164C239.386 151.824 238.519 152.153 237.404 152.153C236.417 152.153 235.611 151.88 234.987 151.332C234.363 150.785 234.007 150.028 233.92 149.061H235.263C235.35 149.7 235.578 150.184 235.946 150.511C236.314 150.834 236.8 150.995 237.404 150.995C238.064 150.995 238.581 150.77 238.954 150.319C239.333 149.869 239.522 149.248 239.522 148.455C239.522 147.708 239.317 147.109 238.908 146.659C238.504 146.204 237.964 145.976 237.289 145.976C236.67 145.976 236.184 146.112 235.831 146.383L235.455 146.69L234.319 146.398ZM242.591 151.256C242.591 151.01 242.663 150.805 242.806 150.642C242.955 150.478 243.175 150.396 243.466 150.396C243.758 150.396 243.978 150.478 244.126 150.642C244.28 150.805 244.356 151.01 244.356 151.256C244.356 151.491 244.28 151.688 244.126 151.847C243.978 152.005 243.758 152.084 243.466 152.084C243.175 152.084 242.955 152.005 242.806 151.847C242.663 151.688 242.591 151.491 242.591 151.256ZM242.599 144.48C242.599 144.234 242.671 144.03 242.814 143.866C242.962 143.702 243.182 143.62 243.474 143.62C243.765 143.62 243.985 143.702 244.134 143.866C244.287 144.03 244.364 144.234 244.364 144.48C244.364 144.715 244.287 144.912 244.134 145.071C243.985 145.229 243.765 145.309 243.474 145.309C243.182 145.309 242.962 145.229 242.814 145.071C242.671 144.912 242.599 144.715 242.599 144.48ZM253.304 147.235C253.304 148.897 253.02 150.133 252.452 150.941C251.884 151.749 250.997 152.153 249.789 152.153C248.597 152.153 247.715 151.76 247.142 150.972C246.569 150.179 246.272 148.997 246.252 147.427V145.531C246.252 143.889 246.536 142.669 247.103 141.871C247.671 141.073 248.561 140.674 249.774 140.674C250.976 140.674 251.861 141.06 252.429 141.833C252.997 142.6 253.288 143.787 253.304 145.393V147.235ZM251.884 145.293C251.884 144.091 251.715 143.216 251.378 142.669C251.04 142.116 250.505 141.84 249.774 141.84C249.047 141.84 248.518 142.114 248.185 142.661C247.853 143.209 247.682 144.05 247.671 145.186V147.457C247.671 148.665 247.845 149.557 248.193 150.135C248.546 150.708 249.078 150.995 249.789 150.995C250.49 150.995 251.009 150.724 251.347 150.181C251.69 149.639 251.869 148.785 251.884 147.618V145.293ZM262.128 147.235C262.128 148.897 261.844 150.133 261.277 150.941C260.709 151.749 259.821 152.153 258.614 152.153C257.422 152.153 256.539 151.76 255.966 150.972C255.393 150.179 255.097 148.997 255.076 147.427V145.531C255.076 143.889 255.36 142.669 255.928 141.871C256.496 141.073 257.386 140.674 258.598 140.674C259.801 140.674 260.686 141.06 261.254 141.833C261.821 142.6 262.113 143.787 262.128 145.393V147.235ZM260.709 145.293C260.709 144.091 260.54 143.216 260.202 142.669C259.865 142.116 259.33 141.84 258.598 141.84C257.872 141.84 257.343 142.114 257.01 142.661C256.678 143.209 256.506 144.05 256.496 145.186V147.457C256.496 148.665 256.67 149.557 257.018 150.135C257.371 150.708 257.903 150.995 258.614 150.995C259.315 150.995 259.834 150.724 260.172 150.181C260.514 149.639 260.693 148.785 260.709 147.618V145.293ZM271.106 147.941C271.106 149.204 270.817 150.222 270.239 150.995C269.661 151.767 268.879 152.153 267.891 152.153C266.883 152.153 266.09 151.834 265.512 151.194V155.192H264.093V143.697H265.39L265.459 144.618C266.037 143.902 266.84 143.544 267.868 143.544C268.866 143.544 269.654 143.92 270.232 144.672C270.815 145.424 271.106 146.47 271.106 147.81V147.941ZM269.687 147.78C269.687 146.843 269.487 146.104 269.088 145.562C268.689 145.02 268.142 144.748 267.446 144.748C266.587 144.748 265.942 145.13 265.512 145.892V149.859C265.937 150.616 266.587 150.995 267.461 150.995C268.142 150.995 268.682 150.726 269.081 150.189C269.485 149.647 269.687 148.844 269.687 147.78ZM274.253 143.697L274.291 144.618C274.9 143.902 275.721 143.544 276.754 143.544C277.915 143.544 278.706 143.989 279.125 144.879C279.402 144.48 279.76 144.158 280.2 143.912C280.645 143.666 281.169 143.544 281.773 143.544C283.594 143.544 284.52 144.508 284.551 146.437V152H283.131V146.521C283.131 145.928 282.995 145.485 282.724 145.194C282.453 144.897 281.998 144.748 281.358 144.748C280.831 144.748 280.394 144.907 280.046 145.224C279.698 145.536 279.496 145.958 279.44 146.49V152H278.013V146.559C278.013 145.352 277.422 144.748 276.24 144.748C275.309 144.748 274.672 145.145 274.329 145.938V152H272.91V143.697H274.253ZM292.523 141.687V143.697H294.073V144.795H292.523V149.943C292.523 150.276 292.592 150.527 292.731 150.695C292.869 150.859 293.104 150.941 293.437 150.941C293.6 150.941 293.825 150.91 294.112 150.849V152C293.738 152.102 293.375 152.153 293.022 152.153C292.388 152.153 291.909 151.962 291.587 151.578C291.265 151.194 291.104 150.649 291.104 149.943V144.795H289.592V143.697H291.104V141.687H292.523ZM295.209 147.772C295.209 146.958 295.368 146.227 295.685 145.577C296.007 144.928 296.452 144.426 297.02 144.073C297.593 143.72 298.245 143.544 298.977 143.544C300.107 143.544 301.021 143.935 301.716 144.718C302.417 145.5 302.768 146.542 302.768 147.841V147.941C302.768 148.749 302.612 149.475 302.299 150.12C301.993 150.759 301.55 151.258 300.972 151.616C300.399 151.974 299.739 152.153 298.992 152.153C297.867 152.153 296.954 151.762 296.253 150.979C295.557 150.197 295.209 149.161 295.209 147.872V147.772ZM296.636 147.941C296.636 148.862 296.849 149.601 297.273 150.158C297.703 150.716 298.276 150.995 298.992 150.995C299.713 150.995 300.286 150.713 300.711 150.151C301.136 149.583 301.348 148.79 301.348 147.772C301.348 146.861 301.131 146.125 300.696 145.562C300.266 144.994 299.693 144.71 298.977 144.71C298.276 144.71 297.711 144.989 297.281 145.547C296.851 146.104 296.636 146.902 296.636 147.941ZM313.871 140.82V142.024H313.61C312.505 142.045 311.625 142.372 310.971 143.007C310.316 143.641 309.937 144.534 309.835 145.685C310.423 145.009 311.226 144.672 312.244 144.672C313.216 144.672 313.991 145.014 314.57 145.7C315.153 146.386 315.444 147.271 315.444 148.355C315.444 149.506 315.13 150.427 314.5 151.118C313.876 151.808 313.037 152.153 311.984 152.153C310.914 152.153 310.047 151.744 309.382 150.926C308.717 150.102 308.385 149.043 308.385 147.749V147.204C308.385 145.147 308.822 143.577 309.697 142.492C310.577 141.403 311.884 140.845 313.618 140.82H313.871ZM312.007 145.853C311.521 145.853 311.073 145.999 310.664 146.291C310.254 146.582 309.97 146.948 309.812 147.388V147.91C309.812 148.831 310.019 149.573 310.433 150.135C310.848 150.698 311.365 150.979 311.984 150.979C312.623 150.979 313.124 150.744 313.488 150.273C313.856 149.803 314.04 149.186 314.04 148.424C314.04 147.657 313.853 147.038 313.48 146.567C313.112 146.091 312.62 145.853 312.007 145.853ZM317.225 151.256C317.225 151.01 317.296 150.805 317.439 150.642C317.588 150.478 317.808 150.396 318.099 150.396C318.391 150.396 318.611 150.478 318.759 150.642C318.913 150.805 318.99 151.01 318.99 151.256C318.99 151.491 318.913 151.688 318.759 151.847C318.611 152.005 318.391 152.084 318.099 152.084C317.808 152.084 317.588 152.005 317.439 151.847C317.296 151.688 317.225 151.491 317.225 151.256ZM317.232 144.48C317.232 144.234 317.304 144.03 317.447 143.866C317.595 143.702 317.815 143.62 318.107 143.62C318.399 143.62 318.619 143.702 318.767 143.866C318.92 144.03 318.997 144.234 318.997 144.48C318.997 144.715 318.92 144.912 318.767 145.071C318.619 145.229 318.399 145.309 318.107 145.309C317.815 145.309 317.595 145.229 317.447 145.071C317.304 144.912 317.232 144.715 317.232 144.48ZM327.937 147.235C327.937 148.897 327.653 150.133 327.085 150.941C326.517 151.749 325.63 152.153 324.422 152.153C323.23 152.153 322.348 151.76 321.775 150.972C321.202 150.179 320.905 148.997 320.885 147.427V145.531C320.885 143.889 321.169 142.669 321.737 141.871C322.304 141.073 323.195 140.674 324.407 140.674C325.609 140.674 326.494 141.06 327.062 141.833C327.63 142.6 327.922 143.787 327.937 145.393V147.235ZM326.517 145.293C326.517 144.091 326.348 143.216 326.011 142.669C325.673 142.116 325.139 141.84 324.407 141.84C323.681 141.84 323.151 142.114 322.819 142.661C322.486 143.209 322.315 144.05 322.304 145.186V147.457C322.304 148.665 322.478 149.557 322.826 150.135C323.179 150.708 323.711 150.995 324.422 150.995C325.123 150.995 325.642 150.724 325.98 150.181C326.323 149.639 326.502 148.785 326.517 147.618V145.293ZM336.762 147.235C336.762 148.897 336.478 150.133 335.91 150.941C335.342 151.749 334.454 152.153 333.247 152.153C332.055 152.153 331.173 151.76 330.6 150.972C330.027 150.179 329.73 148.997 329.709 147.427V145.531C329.709 143.889 329.993 142.669 330.561 141.871C331.129 141.073 332.019 140.674 333.232 140.674C334.434 140.674 335.319 141.06 335.887 141.833C336.455 142.6 336.746 143.787 336.762 145.393V147.235ZM335.342 145.293C335.342 144.091 335.173 143.216 334.835 142.669C334.498 142.116 333.963 141.84 333.232 141.84C332.505 141.84 331.976 142.114 331.643 142.661C331.311 143.209 331.139 144.05 331.129 145.186V147.457C331.129 148.665 331.303 149.557 331.651 150.135C332.004 150.708 332.536 150.995 333.247 150.995C333.948 150.995 334.467 150.724 334.805 150.181C335.147 149.639 335.327 148.785 335.342 147.618V145.293ZM349.638 147.941C349.638 149.204 349.349 150.222 348.771 150.995C348.193 151.767 347.41 152.153 346.423 152.153C345.415 152.153 344.622 151.834 344.044 151.194V155.192H342.624V143.697H343.921L343.99 144.618C344.568 143.902 345.371 143.544 346.4 143.544C347.397 143.544 348.185 143.92 348.763 144.672C349.346 145.424 349.638 146.47 349.638 147.81V147.941ZM348.218 147.78C348.218 146.843 348.019 146.104 347.62 145.562C347.221 145.02 346.673 144.748 345.977 144.748C345.118 144.748 344.473 145.13 344.044 145.892V149.859C344.468 150.616 345.118 150.995 345.993 150.995C346.673 150.995 347.213 150.726 347.612 150.189C348.016 149.647 348.218 148.844 348.218 147.78ZM352.784 143.697L352.822 144.618C353.431 143.902 354.252 143.544 355.286 143.544C356.447 143.544 357.237 143.989 357.657 144.879C357.933 144.48 358.291 144.158 358.731 143.912C359.176 143.666 359.7 143.544 360.304 143.544C362.125 143.544 363.051 144.508 363.082 146.437V152H361.662V146.521C361.662 145.928 361.527 145.485 361.256 145.194C360.984 144.897 360.529 144.748 359.89 144.748C359.363 144.748 358.925 144.907 358.577 145.224C358.23 145.536 358.028 145.958 357.971 146.49V152H356.544V146.559C356.544 145.352 355.953 144.748 354.771 144.748C353.84 144.748 353.203 145.145 352.861 145.938V152H351.441V143.697H352.784Z" fill="white"/>
<g style="mix-blend-mode:multiply" opacity="0.3">
<path fill-rule="evenodd" clip-rule="evenodd" d="M0 165.412H457.097V183.586C388.813 174.179 299.095 168.377 200.778 168.377C133.727 168.218 66.7111 171.165 0 177.208L0 165.412Z" fill="#595A5C"/>
</g>
<g style="mix-blend-mode:multiply" opacity="0.3">
<path fill-rule="evenodd" clip-rule="evenodd" d="M0 129H475.555V147.196C404.533 137.789 311.217 132.072 208.804 132.072C132.399 132.114 60.9002 135.25 0 140.796V129Z" fill="#595A5C"/>
</g>
<path d="M69.8034 40L72.2994 21.5131H66.9509L63.5223 28.5349C62.7269 30.208 61.7394 32.3749 61.0263 34.432H60.9166C60.8891 32.3749 60.6971 30.2629 60.5874 28.5349L60.0114 21.5131H54.7177L50.0823 40H53.7029L55.5406 32.3749C56.0069 30.3726 56.5554 27.6023 57.0766 25.1611H57.1314C57.2411 27.6297 57.3783 30.1806 57.5429 32.2103L58.2011 39.6983H61.2731L65.0583 32.128C66.0731 30.0983 67.2251 27.5474 68.24 25.1611H68.3223C67.8011 27.8217 67.3897 30.3726 67.088 32.3749L65.9634 40H69.8034ZM83.4708 35.2L83.8548 40H87.9965L85.8296 21.5131H80.7554L71.7588 40H75.9554L78.1496 35.2H83.4708ZM79.3016 32.1829L81.1394 28.2057C81.6331 27.136 82.1542 25.7097 82.6205 24.5851H82.6754C82.7576 25.7097 82.8674 27.1909 82.9496 28.2057L83.3062 32.1829H79.3016ZM93.6787 40L94.8856 33.5269C95.4341 30.6194 95.873 27.9863 96.0924 26.2034L96.1747 26.176C96.6684 28.4526 97.1621 30.1257 97.985 32.6217L100.563 40H104.65L108.134 21.5131H104.458L103.196 28.2331C102.675 30.9486 102.428 32.9783 102.346 34.8709H102.264C101.825 32.8411 101.331 30.9211 100.591 28.5623L98.1496 21.5131H93.5141L90.0033 40H93.6787ZM118.694 35.2L119.078 40H123.22L121.053 21.5131H115.979L106.982 40H111.179L113.373 35.2H118.694ZM114.525 32.1829L116.363 28.2057C116.856 27.136 117.377 25.7097 117.844 24.5851H117.899C117.981 25.7097 118.091 27.1909 118.173 28.2057L118.529 32.1829H114.525ZM141.538 29.4674H134.818L134.215 32.6217H137.067L136.327 36.5166C135.888 36.7086 135.23 36.8457 134.325 36.8457C131.417 36.8457 129.579 35.2823 129.579 32.1829C129.579 29.6594 130.649 27.4651 132.24 26.2034C133.474 25.2434 135.12 24.7223 136.958 24.7223C138.603 24.7223 140.03 25.1063 140.88 25.4903L142.059 22.144C141.346 21.7874 139.563 21.3211 137.15 21.3211C133.941 21.3211 131.088 22.2811 129.003 24.0091C126.645 26.0114 125.218 29.0011 125.218 32.4571C125.218 34.816 126.069 36.8457 127.55 38.1623C129.086 39.5337 131.17 40.192 133.721 40.192C136.053 40.192 138.274 39.616 139.701 39.1497L141.538 29.4674ZM155.523 28.8366H148.94L149.708 24.8869H156.675L157.333 21.5131H146.389L142.878 40H154.206L154.837 36.6263H147.459L148.309 32.1554H154.892L155.523 28.8366ZM176.33 40L178.826 21.5131H173.478L170.049 28.5349C169.254 30.208 168.266 32.3749 167.553 34.432H167.443C167.416 32.3749 167.224 30.2629 167.114 28.5349L166.538 21.5131H161.244L156.609 40H160.23L162.067 32.3749C162.534 30.3726 163.082 27.6023 163.603 25.1611H163.658C163.768 27.6297 163.905 30.1806 164.07 32.2103L164.728 39.6983H167.8L171.585 32.128C172.6 30.0983 173.752 27.5474 174.767 25.1611H174.849C174.328 27.8217 173.916 30.3726 173.615 32.3749L172.49 40H176.33ZM192.219 28.8366H185.636L186.404 24.8869H193.371L194.03 21.5131H183.086L179.575 40H190.903L191.534 36.6263H184.155L185.006 32.1554H191.588L192.219 28.8366ZM197.42 40L198.627 33.5269C199.175 30.6194 199.614 27.9863 199.833 26.2034L199.916 26.176C200.409 28.4526 200.903 30.1257 201.726 32.6217L204.304 40H208.391L211.875 21.5131H208.199L206.937 28.2331C206.416 30.9486 206.169 32.9783 206.087 34.8709H206.005C205.566 32.8411 205.072 30.9211 204.332 28.5623L201.891 21.5131H197.255L193.744 40H197.42ZM215.386 40H219.336L222.161 24.9691H227.098L227.756 21.5131H214.014L213.329 24.9691H218.211L215.386 40ZM242.456 21.2114C239.796 21.2114 237.437 22.1989 235.709 23.8446C233.542 25.9291 232.308 29.248 232.308 32.5943C232.308 36.9006 234.996 40.3017 239.796 40.3017C242.566 40.3017 244.897 39.3143 246.625 37.6411C248.737 35.5566 249.917 32.2926 249.917 28.9189C249.917 24.5029 247.338 21.2114 242.456 21.2114ZM241.99 24.5029C244.897 24.5029 245.72 26.7246 245.72 29.0286C245.72 31.168 244.925 34.2126 243.471 35.6663C242.621 36.4891 241.524 37.0103 240.372 37.0103C237.684 37.0103 236.504 35.0629 236.504 32.4571C236.504 30.2354 237.327 27.3554 238.808 25.9017C239.658 25.024 240.756 24.5029 241.99 24.5029ZM250.851 40H254.801L256.2 32.5669H262.618L263.277 29.2206H256.831L257.681 24.8869H264.538L265.197 21.5131H254.362L250.851 40ZM273.325 21.5131L269.814 40H273.764L277.274 21.5131H273.325ZM281.098 40L282.305 33.5269C282.854 30.6194 283.293 27.9863 283.512 26.2034L283.594 26.176C284.088 28.4526 284.582 30.1257 285.405 32.6217L287.983 40H292.07L295.553 21.5131H291.878L290.616 28.2331C290.095 30.9486 289.848 32.9783 289.766 34.8709H289.683C289.245 32.8411 288.751 30.9211 288.01 28.5623L285.569 21.5131H280.934L277.423 40H281.098ZM304.248 40L313.794 21.5131H309.378L305.236 30.2903C304.331 32.2103 303.453 34.1851 302.767 35.9954H302.712C302.603 34.0754 302.466 32.2651 302.274 30.3177L301.451 21.5131H297.364L299.668 40H304.248ZM321.462 35.2L321.846 40H325.988L323.821 21.5131H318.746L309.75 40H313.946L316.141 35.2H321.462ZM317.293 32.1829L319.13 28.2057C319.624 27.136 320.145 25.7097 320.612 24.5851H320.666C320.749 25.7097 320.858 27.1909 320.941 28.2057L321.297 32.1829H317.293ZM327.473 38.9577C328.351 39.616 330.189 40.2743 332.767 40.2743C336.881 40.2743 340.282 38.1623 340.282 34.048C340.282 31.8537 338.856 30.3451 336.607 29.1657C335.043 28.288 333.919 27.6297 333.919 26.56C333.919 25.5451 334.879 24.6126 336.717 24.6126C338.253 24.5851 339.569 25.1063 340.173 25.4354L341.407 22.144C340.611 21.7051 339.295 21.2114 337.046 21.2114C333.014 21.2114 329.75 23.488 329.75 27.2183C329.75 29.632 331.615 31.0583 333.59 32.128C335.29 33.0057 336.086 33.6914 336.086 34.7337C336.086 36.1874 334.687 36.9006 333.151 36.9006C331.45 36.9006 329.887 36.3794 328.79 35.7211L327.473 38.9577ZM345.405 21.5131L341.894 40H345.844L349.355 21.5131H345.405ZM358.061 40L367.606 21.5131H363.19L359.048 30.2903C358.143 32.2103 357.266 34.1851 356.58 35.9954H356.525C356.415 34.0754 356.278 32.2651 356.086 30.3177L355.263 21.5131H351.176L353.48 40H358.061ZM378.916 28.8366H372.333L373.101 24.8869H380.068L380.726 21.5131H369.782L366.271 40H377.599L378.23 36.6263H370.852L371.702 32.1554H378.285L378.916 28.8366ZM50.5211 73H54.4709L55.8697 65.5669H62.288L62.9463 62.2206H56.5006L57.3509 57.8869H64.208L64.8663 54.5131H54.032L50.5211 73ZM67.9586 54.5131L66.0112 64.8263C65.8466 65.704 65.7369 66.6091 65.7369 67.4046C65.7369 71.3543 68.0684 73.3017 71.8809 73.3017C76.9004 73.3017 79.3689 70.6137 80.4386 65.0183L82.4409 54.5131H78.4912L76.4615 65.1829C75.8032 68.6114 74.4318 69.9829 72.3746 69.9829C70.5918 69.9829 69.6866 68.8309 69.6866 67.3497C69.6866 66.5269 69.7415 65.7863 69.8786 65.1554L71.9084 54.5131H67.9586ZM86.1787 73L87.3856 66.5269C87.9341 63.6194 88.373 60.9863 88.5924 59.2034L88.6747 59.176C89.1684 61.4526 89.6621 63.1257 90.485 65.6217L93.0633 73H97.1501L100.634 54.5131H96.9581L95.6964 61.2331C95.1753 63.9486 94.9284 65.9783 94.8461 67.8709H94.7639C94.325 65.8411 93.8313 63.9211 93.0907 61.5623L90.6496 54.5131H86.0141L82.5033 73H86.1787ZM117.887 62.4674H111.167L110.563 65.6217H113.416L112.675 69.5166C112.236 69.7086 111.578 69.8457 110.673 69.8457C107.765 69.8457 105.928 68.2823 105.928 65.1829C105.928 62.6594 106.997 60.4651 108.588 59.2034C109.823 58.2434 111.468 57.7223 113.306 57.7223C114.952 57.7223 116.378 58.1063 117.228 58.4903L118.408 55.144C117.695 54.7874 115.912 54.3211 113.498 54.3211C110.289 54.3211 107.436 55.2811 105.352 57.0091C102.993 59.0114 101.567 62.0011 101.567 65.4571C101.567 67.816 102.417 69.8457 103.898 71.1623C105.434 72.5337 107.519 73.192 110.069 73.192C112.401 73.192 114.623 72.616 116.049 72.1497L117.887 62.4674ZM129.649 68.2L130.033 73H134.175L132.008 54.5131H126.934L117.937 73H122.134L124.328 68.2H129.649ZM125.48 65.1829L127.318 61.2057C127.812 60.136 128.333 58.7097 128.799 57.5851H128.854C128.936 58.7097 129.046 60.1909 129.128 61.2057L129.485 65.1829H125.48ZM136.182 73H147.236L147.894 69.544H140.79L143.642 54.5131H139.693L136.182 73ZM158.012 54.5131L154.501 73H158.451L161.962 54.5131H158.012ZM165.786 73L166.993 66.5269C167.541 63.6194 167.98 60.9863 168.2 59.2034L168.282 59.176C168.776 61.4526 169.269 63.1257 170.092 65.6217L172.67 73H176.757L180.241 54.5131H176.565L175.304 61.2331C174.782 63.9486 174.536 65.9783 174.453 67.8709H174.371C173.932 65.8411 173.438 63.9211 172.698 61.5623L170.257 54.5131H165.621L162.11 73H165.786ZM180.378 73H184.328L185.727 65.5669H192.145L192.803 62.2206H186.358L187.208 57.8869H194.065L194.723 54.5131H183.889L180.378 73ZM207.032 61.8366H200.449L201.217 57.8869H208.184L208.842 54.5131H197.898L194.387 73H205.715L206.346 69.6263H198.968L199.818 65.1554H206.401L207.032 61.8366ZM222.107 69.2971C221.174 69.6811 219.885 69.9006 218.596 69.9006C215.332 69.9006 213.686 67.9257 213.686 64.9909C213.686 62.4126 214.673 60.3006 216.237 59.0389C217.361 58.1063 218.87 57.6126 220.461 57.6126C222.052 57.6126 223.259 57.9417 223.807 58.216L224.877 55.0069C224.356 54.6777 222.847 54.2114 220.845 54.2114C218.239 54.2114 215.963 54.8423 214.043 56.1863C211.245 58.0514 209.38 61.288 209.38 65.4297C209.38 70.312 212.671 73.2743 217.553 73.2743C219.775 73.2743 221.448 72.9177 222.436 72.4789L222.107 69.2971ZM228.002 73H231.952L234.777 57.9691H239.714L240.372 54.5131H226.631L225.945 57.9691H230.827L228.002 73ZM242.521 54.5131L239.01 73H242.96L246.471 54.5131H242.521ZM257.563 54.2114C254.903 54.2114 252.544 55.1989 250.816 56.8446C248.649 58.9291 247.415 62.248 247.415 65.5943C247.415 69.9006 250.103 73.3017 254.903 73.3017C257.673 73.3017 260.004 72.3143 261.732 70.6411C263.844 68.5566 265.024 65.2926 265.024 61.9189C265.024 57.5029 262.446 54.2114 257.563 54.2114ZM257.097 57.5029C260.004 57.5029 260.827 59.7246 260.827 62.0286C260.827 64.168 260.032 67.2126 258.578 68.6663C257.728 69.4891 256.631 70.0103 255.479 70.0103C252.791 70.0103 251.611 68.0629 251.611 65.4571C251.611 63.2354 252.434 60.3554 253.915 58.9017C254.766 58.024 255.863 57.5029 257.097 57.5029ZM269.634 73L270.841 66.5269C271.389 63.6194 271.828 60.9863 272.048 59.2034L272.13 59.176C272.624 61.4526 273.117 63.1257 273.94 65.6217L276.519 73H280.605L284.089 54.5131H280.413L279.152 61.2331C278.631 63.9486 278.384 65.9783 278.301 67.8709H278.219C277.78 65.8411 277.287 63.9211 276.546 61.5623L274.105 54.5131H269.469L265.959 73H269.634ZM283.705 71.9577C284.583 72.616 286.421 73.2743 288.999 73.2743C293.113 73.2743 296.514 71.1623 296.514 67.048C296.514 64.8537 295.088 63.3451 292.839 62.1657C291.276 61.288 290.151 60.6297 290.151 59.56C290.151 58.5451 291.111 57.6126 292.949 57.6126C294.485 57.5851 295.801 58.1063 296.405 58.4354L297.639 55.144C296.844 54.7051 295.527 54.2114 293.278 54.2114C289.246 54.2114 285.982 56.488 285.982 60.2183C285.982 62.632 287.847 64.0583 289.822 65.128C291.522 66.0057 292.318 66.6914 292.318 67.7337C292.318 69.1874 290.919 69.9006 289.383 69.9006C287.682 69.9006 286.119 69.3794 285.022 68.7211L283.705 71.9577ZM303.93 64.4149L303.409 67.1851H310.513L311.034 64.4149H303.93ZM64.0709 102.297C63.1383 102.681 61.8491 102.901 60.56 102.901C57.296 102.901 55.6503 100.926 55.6503 97.9909C55.6503 95.4126 56.6377 93.3006 58.2011 92.0389C59.3257 91.1063 60.8343 90.6126 62.4251 90.6126C64.016 90.6126 65.2229 90.9417 65.7714 91.216L66.8411 88.0069C66.32 87.6777 64.8114 87.2114 62.8091 87.2114C60.2034 87.2114 57.9269 87.8423 56.0069 89.1863C53.2091 91.0514 51.344 94.288 51.344 98.4297C51.344 103.312 54.6354 106.274 59.5177 106.274C61.7394 106.274 63.4126 105.918 64.4 105.479L64.0709 102.297ZM69.9408 87.5131L67.9934 97.8263C67.8288 98.704 67.7191 99.6091 67.7191 100.405C67.7191 104.354 70.0505 106.302 73.8631 106.302C78.8825 106.302 81.3511 103.614 82.4208 98.0183L84.4231 87.5131H80.4734L78.4436 98.1829C77.7854 101.611 76.4139 102.983 74.3568 102.983C72.5739 102.983 71.6688 101.831 71.6688 100.35C71.6688 99.5269 71.7236 98.7863 71.8608 98.1554L73.8905 87.5131H69.9408ZM84.4854 106H88.4077L89.7791 98.704H90.986C92.5494 98.704 93.3174 99.3897 93.482 101.639C93.674 103.915 93.866 105.506 94.0306 106H98.09C97.7609 105.232 97.5963 102.818 97.3769 100.761C97.1849 99.088 96.7186 97.8537 95.6214 97.3874V97.2777C97.9803 96.5097 99.818 94.8091 99.818 92.0663C99.818 90.3383 98.9677 89.1589 97.7609 88.4457C96.4717 87.6503 94.6614 87.376 92.906 87.376C91.0683 87.376 89.2031 87.568 87.9689 87.8697L84.4854 106ZM91.3426 90.64C91.6717 90.5577 92.138 90.5029 92.8786 90.5029C94.442 90.5029 95.7037 91.1611 95.7037 92.6423C95.7037 94.4526 94.1403 95.7417 92.0009 95.7417H90.3551L91.3426 90.64ZM100.476 106H104.399L105.77 98.704H106.977C108.54 98.704 109.308 99.3897 109.473 101.639C109.665 103.915 109.857 105.506 110.022 106H114.081C113.752 105.232 113.587 102.818 113.368 100.761C113.176 99.088 112.71 97.8537 111.612 97.3874V97.2777C113.971 96.5097 115.809 94.8091 115.809 92.0663C115.809 90.3383 114.959 89.1589 113.752 88.4457C112.463 87.6503 110.652 87.376 108.897 87.376C107.059 87.376 105.194 87.568 103.96 87.8697L100.476 106ZM107.334 90.64C107.663 90.5577 108.129 90.5029 108.87 90.5029C110.433 90.5029 111.695 91.1611 111.695 92.6423C111.695 94.4526 110.131 95.7417 107.992 95.7417H106.346L107.334 90.64ZM129.112 94.8366H122.529L123.297 90.8869H130.264L130.922 87.5131H119.978L116.468 106H127.796L128.426 102.626H121.048L121.898 98.1554H128.481L129.112 94.8366ZM134.313 106L135.519 99.5269C136.068 96.6194 136.507 93.9863 136.726 92.2034L136.809 92.176C137.302 94.4526 137.796 96.1257 138.619 98.6217L141.197 106H145.284L148.767 87.5131H145.092L143.83 94.2331C143.309 96.9486 143.062 98.9783 142.98 100.871H142.898C142.459 98.8411 141.965 96.9211 141.225 94.5623L138.783 87.5131H134.148L130.637 106H134.313ZM152.279 106H156.228L159.054 90.9691H163.991L164.649 87.5131H150.907L150.222 90.9691H155.104L152.279 106ZM162.982 104.958C163.86 105.616 165.698 106.274 168.276 106.274C172.39 106.274 175.791 104.162 175.791 100.048C175.791 97.8537 174.365 96.3451 172.116 95.1657C170.552 94.288 169.428 93.6297 169.428 92.56C169.428 91.5451 170.388 90.6126 172.226 90.6126C173.762 90.5851 175.078 91.1063 175.682 91.4354L176.916 88.144C176.12 87.7051 174.804 87.2114 172.555 87.2114C168.523 87.2114 165.259 89.488 165.259 93.2183C165.259 95.632 167.124 97.0583 169.099 98.128C170.799 99.0057 171.595 99.6914 171.595 100.734C171.595 102.187 170.196 102.901 168.66 102.901C166.959 102.901 165.396 102.379 164.299 101.721L162.982 104.958ZM196.071 102.297C195.138 102.681 193.849 102.901 192.56 102.901C189.296 102.901 187.65 100.926 187.65 97.9909C187.65 95.4126 188.638 93.3006 190.201 92.0389C191.326 91.1063 192.834 90.6126 194.425 90.6126C196.016 90.6126 197.223 90.9417 197.771 91.216L198.841 88.0069C198.32 87.6777 196.811 87.2114 194.809 87.2114C192.203 87.2114 189.927 87.8423 188.007 89.1863C185.209 91.0514 183.344 94.288 183.344 98.4297C183.344 103.312 186.635 106.274 191.518 106.274C193.739 106.274 195.413 105.918 196.4 105.479L196.071 102.297ZM208.787 87.2114C206.126 87.2114 203.767 88.1989 202.039 89.8446C199.872 91.9291 198.638 95.248 198.638 98.5943C198.638 102.901 201.326 106.302 206.126 106.302C208.896 106.302 211.228 105.314 212.956 103.641C215.068 101.557 216.247 98.2926 216.247 94.9189C216.247 90.5029 213.669 87.2114 208.787 87.2114ZM208.32 90.5029C211.228 90.5029 212.051 92.7246 212.051 95.0286C212.051 97.168 211.255 100.213 209.801 101.666C208.951 102.489 207.854 103.01 206.702 103.01C204.014 103.01 202.835 101.063 202.835 98.4571C202.835 96.2354 203.657 93.3554 205.139 91.9017C205.989 91.024 207.086 90.5029 208.32 90.5029ZM220.857 106L222.064 99.5269C222.613 96.6194 223.052 93.9863 223.271 92.2034L223.353 92.176C223.847 94.4526 224.341 96.1257 225.164 98.6217L227.742 106H231.829L235.312 87.5131H231.637L230.375 94.2331C229.854 96.9486 229.607 98.9783 229.525 100.871H229.442C229.004 98.8411 228.51 96.9211 227.769 94.5623L225.328 87.5131H220.693L217.182 106H220.857ZM248.999 102.297C248.067 102.681 246.778 102.901 245.489 102.901C242.225 102.901 240.579 100.926 240.579 97.9909C240.579 95.4126 241.566 93.3006 243.13 92.0389C244.254 91.1063 245.763 90.6126 247.354 90.6126C248.945 90.6126 250.151 90.9417 250.7 91.216L251.77 88.0069C251.249 87.6777 249.74 87.2114 247.738 87.2114C245.132 87.2114 242.855 87.8423 240.935 89.1863C238.138 91.0514 236.273 94.288 236.273 98.4297C236.273 103.312 239.564 106.274 244.446 106.274C246.668 106.274 248.341 105.918 249.329 105.479L248.999 102.297ZM264.085 94.8366H257.502L258.27 90.8869H265.237L265.896 87.5131H254.952L251.441 106H262.769L263.4 102.626H256.021L256.872 98.1554H263.454L264.085 94.8366ZM265.61 106H269.478L270.74 99.3349C271.151 99.3897 271.7 99.4446 272.358 99.4446C274.607 99.4446 276.746 98.9234 278.255 97.744C279.709 96.6194 280.778 94.864 280.778 92.5326C280.778 90.7497 280.01 89.4606 278.776 88.6103C277.432 87.6503 275.512 87.376 273.866 87.376C272.084 87.376 270.218 87.568 269.039 87.8697L265.61 106ZM272.385 90.6674C272.714 90.5851 273.236 90.5303 273.976 90.5303C275.512 90.5303 276.801 91.1063 276.801 92.8891C276.801 94.7269 275.238 96.2629 272.852 96.2629C272.193 96.2629 271.754 96.208 271.343 96.1257L272.385 90.6674ZM283.957 106H287.907L290.732 90.9691H295.669L296.328 87.5131H282.586L281.9 90.9691H286.782L283.957 106ZM294.661 104.958C295.538 105.616 297.376 106.274 299.954 106.274C304.069 106.274 307.47 104.162 307.47 100.048C307.47 97.8537 306.044 96.3451 303.794 95.1657C302.231 94.288 301.106 93.6297 301.106 92.56C301.106 91.5451 302.066 90.6126 303.904 90.6126C305.44 90.5851 306.757 91.1063 307.36 91.4354L308.594 88.144C307.799 87.7051 306.482 87.2114 304.233 87.2114C300.201 87.2114 296.937 89.488 296.937 93.2183C296.937 95.632 298.802 97.0583 300.777 98.128C302.478 99.0057 303.273 99.6914 303.273 100.734C303.273 102.187 301.874 102.901 300.338 102.901C298.638 102.901 297.074 102.379 295.977 101.721L294.661 104.958Z" fill="white"/>
<defs>
<linearGradient id="paint0_linear" x1="263.512" y1="8.74588" x2="263.512" y2="115.339" gradientUnits="userSpaceOnUse">
<stop stop-color="#22418B"/>
<stop offset="1" stop-color="#29ADE3"/>
</linearGradient>
</defs>
</svg>
