<svg width="892" height="361" viewBox="0 0 892 361" fill="none" xmlns="http://www.w3.org/2000/svg">
<path d="M389.806 401.959L301.252 401.959C242.763 401.959 221 350.331 221 323.159C221 295.986 238.683 242.999 312.133 242.999C370.894 242.999 389.211 292.816 391.025 317.724L391.025 400.74C391.025 401.414 390.479 401.959 389.806 401.959Z" fill="#1862F3" fill-opacity="0.11"/>
<path d="M395.194 401.959L483.748 401.959C542.237 401.959 564 350.331 564 323.159C564 295.986 546.317 242.999 472.867 242.999C414.106 242.999 395.789 292.816 393.975 317.724L393.975 400.74C393.975 401.414 394.521 401.959 395.194 401.959Z" fill="#1862F3" fill-opacity="0.11"/>
<path d="M526.288 44.4155L502.423 44.4155C486.081 44.4155 480 29.9899 480 22.3975C480 14.805 484.941 -0.000210024 505.464 -0.000210921C521.882 -0.000211639 527.001 13.9193 527.507 20.879L527.507 43.1963C527.507 43.8697 526.961 44.4155 526.288 44.4155Z" fill="#05B29A" fill-opacity="0.11"/>
<path d="M529.551 44.4155L553.415 44.4155C569.758 44.4155 575.839 29.9899 575.839 22.3975C575.839 14.805 570.898 -0.000209592 550.375 -0.000208695C533.956 -0.000207978 528.838 13.9193 528.332 20.879L528.332 43.1963C528.332 43.8697 528.877 44.4155 529.551 44.4155Z" fill="#05B29A" fill-opacity="0.11"/>
<path d="M46.2881 188.416L22.4235 188.416C6.08094 188.416 -6.30564e-07 173.99 -9.6244e-07 166.397C-1.29432e-06 158.805 4.94076 144 25.4639 144C41.8824 144 47.0006 157.919 47.5073 164.879L47.5073 187.196C47.5073 187.87 46.9615 188.416 46.2881 188.416Z" fill="#1862F3" fill-opacity="0.07"/>
<path d="M49.5508 188.416L73.4154 188.416C89.7579 188.416 95.8389 173.99 95.8389 166.397C95.8389 158.805 90.8981 144 70.3749 144C53.9564 144 48.8383 157.919 48.3315 164.879L48.3316 187.196C48.3316 187.87 48.8774 188.416 49.5508 188.416Z" fill="#1862F3" fill-opacity="0.07"/>
<path d="M529.551 45.5439L553.415 45.5439C569.758 45.5439 575.839 59.9696 575.839 67.562C575.839 75.1544 570.898 89.9597 550.375 89.9597C533.956 89.9597 528.838 76.0402 528.332 69.0805L528.332 46.7632C528.332 46.0898 528.877 45.5439 529.551 45.5439Z" fill="#05B29A" fill-opacity="0.11"/>
<path d="M526.288 45.5439L502.423 45.5439C486.081 45.5439 480 59.9696 480 67.562C480 75.1544 484.941 89.9597 505.464 89.9597C521.882 89.9597 527.001 76.0402 527.507 69.0805L527.507 46.7632C527.507 46.0898 526.961 45.5439 526.288 45.5439Z" fill="#05B29A" fill-opacity="0.11"/>
<path d="M49.5508 189.544L73.4154 189.544C89.7579 189.544 95.8389 203.97 95.8389 211.562C95.8389 219.154 90.8981 233.96 70.3749 233.96C53.9564 233.96 48.8383 220.04 48.3315 213.08L48.3316 190.763C48.3316 190.09 48.8774 189.544 49.5508 189.544Z" fill="#1862F3" fill-opacity="0.07"/>
<path d="M46.2881 189.544L22.4235 189.544C6.08094 189.544 -6.30564e-07 203.97 -9.6244e-07 211.562C-1.29432e-06 219.154 4.94076 233.96 25.4639 233.96C41.8824 233.96 47.0006 220.04 47.5073 213.08L47.5073 190.763C47.5073 190.09 46.9615 189.544 46.2881 189.544Z" fill="#1862F3" fill-opacity="0.07"/>
<g opacity="0.3">
<path d="M817.86 341.574V301.19C817.86 274.085 841.786 264 854.378 264C866.971 264 891.526 272.194 891.526 306.233C891.526 333.464 868.44 341.952 856.897 342.793H819.08C818.406 342.793 817.86 342.247 817.86 341.574Z" fill="#05B29A" fill-opacity="0.4"/>
<path d="M816.666 341.574V301.19C816.666 274.085 792.74 264 780.148 264C767.555 264 743 272.194 743 306.233C743 333.464 766.086 341.952 777.629 342.793H815.447C816.12 342.793 816.666 342.247 816.666 341.574Z" fill="#05B29A" fill-opacity="0.4"/>
<path d="M817.86 345.379V385.763C817.86 412.868 841.786 422.954 854.378 422.954C866.971 422.954 891.526 414.759 891.526 380.72C891.526 353.489 868.44 345.001 856.897 344.16H819.08C818.406 344.16 817.86 344.706 817.86 345.379Z" fill="#05B29A" fill-opacity="0.4"/>
<path d="M816.666 345.379V385.763C816.666 412.868 792.74 422.954 780.148 422.954C767.555 422.954 743 414.759 743 380.72C743 353.489 766.086 345.001 777.629 344.16H815.447C816.12 344.16 816.666 344.706 816.666 345.379Z" fill="#05B29A" fill-opacity="0.4"/>
</g>
</svg>
