<svg width="1212" height="351" viewBox="0 0 1212 351" fill="none" xmlns="http://www.w3.org/2000/svg">
<path d="M389.806 401.96L301.252 401.96C242.763 401.96 221 350.332 221 323.159C221 295.987 238.683 243 312.133 243C370.894 243 389.211 292.817 391.025 317.725L391.025 400.741C391.025 401.414 390.479 401.96 389.806 401.96Z" fill="#05B29A" fill-opacity="0.11"/>
<path d="M395.194 401.96L483.748 401.96C542.237 401.96 564 350.332 564 323.159C564 295.987 546.317 243 472.867 243C414.106 243 395.789 292.817 393.975 317.725L393.975 400.741C393.975 401.414 394.521 401.96 395.194 401.96Z" fill="#05B29A" fill-opacity="0.11"/>
<path d="M526.288 44.4158L502.423 44.4158C486.081 44.4158 480 29.9901 480 22.3977C480 14.8053 484.941 3.41163e-05 505.464 3.32192e-05C521.882 3.25015e-05 527.001 13.9195 527.507 20.8792L527.507 43.1966C527.507 43.8699 526.961 44.4158 526.288 44.4158Z" fill="#05B29A" fill-opacity="0.11"/>
<path d="M529.551 44.4158L553.415 44.4158C569.758 44.4158 575.839 29.9901 575.839 22.3977C575.839 14.8053 570.898 3.45482e-05 550.375 3.54453e-05C533.956 3.6163e-05 528.838 13.9195 528.332 20.8792L528.332 43.1966C528.332 43.8699 528.877 44.4158 529.551 44.4158Z" fill="#05B29A" fill-opacity="0.11"/>
<path d="M46.2884 188.416L22.4237 188.416C6.08118 188.416 0.00024351 173.99 0.000243178 166.398C0.000242846 158.805 4.941 144 25.4642 144C41.8827 144 47.0008 157.919 47.5076 164.879L47.5076 187.197C47.5076 187.87 46.9617 188.416 46.2884 188.416Z" fill="#05B29A" fill-opacity="0.07"/>
<path d="M49.5512 188.416L73.4159 188.416C89.7584 188.416 95.8394 173.99 95.8394 166.398C95.8394 158.805 90.8986 144 70.3754 144C53.9569 144 48.8388 157.919 48.332 164.879L48.332 187.197C48.332 187.87 48.8779 188.416 49.5512 188.416Z" fill="#05B29A" fill-opacity="0.07"/>
<path d="M529.551 45.5444L553.415 45.5444C569.758 45.5444 575.839 59.9701 575.839 67.5625C575.839 75.1549 570.898 89.9602 550.375 89.9602C533.956 89.9602 528.838 76.0407 528.332 69.081L528.332 46.7636C528.332 46.0903 528.877 45.5444 529.551 45.5444Z" fill="#05B29A" fill-opacity="0.11"/>
<path d="M526.288 45.5444L502.423 45.5444C486.081 45.5444 480 59.9701 480 67.5625C480 75.1549 484.941 89.9602 505.464 89.9602C521.882 89.9602 527.001 76.0407 527.507 69.081L527.507 46.7636C527.507 46.0903 526.961 45.5444 526.288 45.5444Z" fill="#05B29A" fill-opacity="0.11"/>
<path d="M49.551 189.544L73.4157 189.544C89.7582 189.544 95.8391 203.97 95.8391 211.562C95.8391 219.155 90.8983 233.96 70.3752 233.96C53.9567 233.96 48.8385 220.041 48.3318 213.081L48.3318 190.764C48.3318 190.09 48.8777 189.544 49.551 189.544Z" fill="#05B29A" fill-opacity="0.07"/>
<path d="M46.2881 189.544L22.4235 189.544C6.08094 189.544 -6.30564e-07 203.97 -9.6244e-07 211.562C-1.29432e-06 219.155 4.94076 233.96 25.4639 233.96C41.8824 233.96 47.0006 220.041 47.5073 213.081L47.5073 190.764C47.5073 190.09 46.9615 189.544 46.2881 189.544Z" fill="#05B29A" fill-opacity="0.07"/>
<path d="M1119.83 164.273V105.568C1119.83 66.527 1154.29 52 1172.43 52C1190.57 52 1225.93 63.8032 1225.93 112.832C1225.93 152.055 1192.68 164.282 1176.06 165.492H1121.05C1120.37 165.492 1119.83 164.946 1119.83 164.273Z" fill="#05B29A" fill-opacity="0.4"/>
<path d="M1118.11 164.273V105.568C1118.11 66.527 1083.64 52 1065.51 52C1047.37 52 1012 63.8032 1012 112.832C1012 152.055 1045.25 164.282 1061.88 165.492H1116.89C1117.56 165.492 1118.11 164.946 1118.11 164.273Z" fill="#05B29A" fill-opacity="0.4"/>
<path d="M1119.83 168.681V227.386C1119.83 266.427 1154.29 280.954 1172.43 280.954C1190.57 280.954 1225.93 269.151 1225.93 220.122C1225.93 180.899 1192.68 168.672 1176.06 167.462H1121.05C1120.37 167.462 1119.83 168.008 1119.83 168.681Z" fill="#05B29A" fill-opacity="0.4"/>
<path d="M1118.11 168.681V227.386C1118.11 266.427 1083.64 280.954 1065.51 280.954C1047.37 280.954 1012 269.151 1012 220.122C1012 180.899 1045.25 168.672 1061.88 167.462H1116.89C1117.56 167.462 1118.11 168.008 1118.11 168.681Z" fill="#05B29A" fill-opacity="0.4"/>
<g opacity="0.3">
<path d="M817.86 311.574V271.19C817.86 244.086 841.786 234 854.378 234C866.971 234 891.526 242.195 891.526 276.233C891.526 303.464 868.44 311.953 856.897 312.793H819.08C818.406 312.793 817.86 312.248 817.86 311.574Z" fill="#05B29A" fill-opacity="0.4"/>
<path d="M816.666 311.574V271.19C816.666 244.086 792.74 234 780.148 234C767.555 234 743 242.195 743 276.233C743 303.464 766.086 311.953 777.629 312.793H815.447C816.12 312.793 816.666 312.248 816.666 311.574Z" fill="#05B29A" fill-opacity="0.4"/>
<path d="M817.86 315.38V355.764C817.86 382.869 841.786 392.954 854.378 392.954C866.971 392.954 891.526 384.76 891.526 350.721C891.526 323.49 868.44 315.001 856.897 314.161H819.08C818.406 314.161 817.86 314.707 817.86 315.38Z" fill="#05B29A" fill-opacity="0.4"/>
<path d="M816.666 315.38V355.764C816.666 382.869 792.74 392.954 780.148 392.954C767.555 392.954 743 384.76 743 350.721C743 323.49 766.086 315.001 777.629 314.161H815.447C816.12 314.161 816.666 314.707 816.666 315.38Z" fill="#05B29A" fill-opacity="0.4"/>
</g>
</svg>
