<svg width="943" height="280" viewBox="0 0 943 280" fill="none" xmlns="http://www.w3.org/2000/svg">
<path d="M-29.3131 363.274L28.3568 363.274C66.7239 363.274 81 329.407 81 311.583C81 293.758 69.4006 259 21.2187 259C-17.3268 259 -29.3426 291.678 -30.5323 308.018L-30.5323 362.055C-30.5323 362.728 -29.9864 363.274 -29.3131 363.274Z" fill="#7B9ADC" fill-opacity="0.37"/>
<path d="M47.5852 29.7349L32.0117 29.7349C21.071 29.7349 17 20.0774 17 14.9946C17 9.91175 20.3077 0.000194405 34.0471 0.000193804C45.0387 0.000193324 48.4651 9.31875 48.8044 13.978L48.8044 28.5157C48.8044 29.189 48.2585 29.7349 47.5852 29.7349Z" fill="#7B9ADC" fill-opacity="0.37"/>
<path d="M50.5755 29.7349L66.149 29.7349C77.0897 29.7349 81.1606 20.0774 81.1606 14.9946C81.1606 9.91175 77.853 0.000194694 64.1135 0.000195295C53.1219 0.000195775 49.6955 9.31875 49.3563 13.978L49.3563 28.5157C49.3563 29.189 49.9021 29.7349 50.5755 29.7349Z" fill="#7B9ADC" fill-opacity="0.37"/>
<path d="M50.5755 30.4902L66.149 30.4902C77.0897 30.4902 81.1606 40.1476 81.1606 45.2305C81.1606 50.3133 77.853 60.2249 64.1135 60.2249C53.1219 60.2249 49.6955 50.9063 49.3563 46.2471L49.3563 31.7094C49.3563 31.0361 49.9021 30.4902 50.5755 30.4902Z" fill="#7B9ADC" fill-opacity="0.37"/>
<path d="M47.5852 30.4902L32.0117 30.4902C21.071 30.4902 17 40.1476 17 45.2305C17 50.3133 20.3077 60.2249 34.0471 60.2249C45.0387 60.2249 48.4651 50.9063 48.8044 46.2471L48.8044 31.7094C48.8044 31.0361 48.2585 30.4902 47.5852 30.4902Z" fill="#7B9ADC" fill-opacity="0.37"/>
<path d="M836.827 150.273V91.5684C836.827 52.527 871.289 38 889.427 38C907.565 38 942.934 49.8032 942.934 98.8319C942.934 138.055 909.681 150.282 893.055 151.492H838.047C837.373 151.492 836.827 150.946 836.827 150.273Z" fill="#234890" fill-opacity="0.25"/>
<path d="M835.107 150.273V91.5684C835.107 52.527 800.645 38 782.507 38C764.369 38 729 49.8032 729 98.8319C729 138.055 762.253 150.282 778.879 151.492H833.887C834.561 151.492 835.107 150.946 835.107 150.273Z" fill="#234890" fill-opacity="0.25"/>
<path d="M836.827 154.681V213.386C836.827 252.427 871.289 266.954 889.427 266.954C907.565 266.954 942.934 255.151 942.934 206.122C942.934 166.899 909.681 154.672 893.055 153.462H838.047C837.373 153.462 836.827 154.008 836.827 154.681Z" fill="#234890" fill-opacity="0.25"/>
<path d="M835.107 154.681V213.386C835.107 252.427 800.645 266.954 782.507 266.954C764.369 266.954 729 255.151 729 206.122C729 166.899 762.253 154.672 778.879 153.462H833.887C834.561 153.462 835.107 154.008 835.107 154.681Z" fill="#234890" fill-opacity="0.25"/>
</svg>
