<svg width="18" height="19" viewBox="0 0 18 19" fill="none" xmlns="http://www.w3.org/2000/svg">
<path d="M7.5525 0.531545C7.9579 0.188222 8.47047 0 9 0C9.52953 0 10.0421 0.188222 10.4475 0.531545L17.1975 6.25182C17.4488 6.4646 17.6508 6.7302 17.7894 7.02999C17.928 7.32978 17.9999 7.65651 18 7.98726V17.4883C18 17.8892 17.842 18.2737 17.5607 18.5572C17.2794 18.8407 16.8978 19 16.5 19H12.375C11.9772 19 11.5956 18.8407 11.3143 18.5572C11.033 18.2737 10.875 17.8892 10.875 17.4883V12.1973H7.125V17.4883C7.125 17.8892 6.96696 18.2737 6.68566 18.5572C6.40436 18.8407 6.02282 19 5.625 19H1.5C1.10218 19 0.720644 18.8407 0.43934 18.5572C0.158035 18.2737 0 17.8892 0 17.4883V7.9865C8.29948e-05 7.65575 0.0719593 7.32903 0.210589 7.02924C0.349218 6.72945 0.551245 6.46385 0.8025 6.25107L7.5525 0.53079V0.531545ZM9.483 1.688C9.34779 1.57329 9.17673 1.51039 9 1.51039C8.82327 1.51039 8.65221 1.57329 8.517 1.688L1.767 7.40979C1.68357 7.48057 1.61645 7.56884 1.57034 7.66844C1.52422 7.76805 1.50022 7.87659 1.5 7.9865V17.4875H5.625V12.1966C5.625 11.7957 5.78304 11.4112 6.06434 11.1277C6.34564 10.8442 6.72718 10.6849 7.125 10.6849H10.875C11.2728 10.6849 11.6544 10.8442 11.9357 11.1277C12.217 11.4112 12.375 11.7957 12.375 12.1966V17.4875H16.5V7.9865C16.5 7.87633 16.4761 7.7675 16.43 7.66762C16.3839 7.56774 16.3166 7.47922 16.233 7.40827L9.483 1.688Z" fill="#000"/>
</svg>
