<svg width="12" height="18" viewBox="0 0 12 18" fill="none" xmlns="http://www.w3.org/2000/svg">
<path d="M10.3636 7.1909V4.75601C10.3871 3.52257 9.94109 2.32967 9.12329 1.43834C8.3055 0.547018 7.18249 0.0298478 6 0C4.81751 0.0298478 3.6945 0.547018 2.87671 1.43834C2.05891 2.32967 1.61294 3.52257 1.63636 4.75601V7.1909H0V16.8622C0 17.164 0.114935 17.4534 0.31952 17.6667C0.524105 17.8801 0.801582 18 1.09091 18H10.9091C11.1984 18 11.4759 17.8801 11.6805 17.6667C11.8851 17.4534 12 17.164 12 16.8622V7.1909H10.3636ZM6.54545 13.0107V14.5866H5.45455V12.9595C5.18899 12.817 4.97813 12.5841 4.85697 12.2994C4.73581 12.0147 4.71162 11.6954 4.78842 11.3943C4.86523 11.0933 5.0384 10.8288 5.27921 10.6445C5.52002 10.4603 5.81399 10.3675 6.11234 10.3815C6.41068 10.3955 6.69547 10.5155 6.91944 10.7215C7.14341 10.9276 7.2931 11.2073 7.34367 11.5143C7.39424 11.8213 7.34265 12.1371 7.19746 12.4093C7.05227 12.6814 6.82221 12.8937 6.54545 13.0107ZM9.27273 7.1909H2.72727V4.75601C2.70376 3.82428 3.03478 2.92073 3.64801 2.24276C4.26124 1.5648 5.10682 1.16754 6 1.1378C6.89318 1.16754 7.73876 1.5648 8.35199 2.24276C8.96522 2.92073 9.29624 3.82428 9.27273 4.75601V7.1909Z" fill="#000"/>
</svg>
