<svg width="15" height="17" viewBox="0 0 15 17" fill="none" xmlns="http://www.w3.org/2000/svg">
<path fill-rule="evenodd" clip-rule="evenodd" d="M7.50077 0C6.28837 0 5.46986 0.930487 5.19077 1.84249C5.1897 1.84373 5.18835 1.8452 5.1867 1.84686C5.18139 1.85222 5.17511 1.85739 5.16885 1.86159C5.16352 1.86516 5.16014 1.86674 5.15961 1.86698L5.15954 1.86702L5.15917 1.86717C4.45311 2.15007 3.62213 2.60085 2.97237 3.42752C2.31748 4.26072 1.89198 5.41799 1.89192 7.03337C1.89094 8.6427 1.716 9.52532 1.45876 10.1313C1.23322 10.6626 0.936864 11.0119 0.515278 11.5087C0.453652 11.5813 0.389349 11.6571 0.3222 11.7371C-0.461345 12.6701 0.284839 13.9643 1.4797 13.9643H4.38084C4.38084 14.7694 4.70954 15.5416 5.29464 16.1109C5.87974 16.6802 6.67331 17 7.50076 17C8.32822 17 9.12178 16.6802 9.70688 16.1109C10.292 15.5416 10.6207 14.7694 10.6207 13.9643H13.5257C14.7228 13.9643 15.4566 12.6635 14.6795 11.7373L14.6793 11.7371C14.6122 11.6572 14.548 11.5814 14.4864 11.5089C14.0647 11.0119 13.7684 10.6627 13.5431 10.1315C13.2861 9.52554 13.1116 8.64292 13.1116 7.03337C13.1116 5.41906 12.6855 4.26197 12.0306 3.42845C11.3809 2.60157 10.5502 2.14995 9.84443 1.86721L9.84436 1.86718C9.8438 1.8669 9.84102 1.86552 9.83657 1.86251C9.8304 1.85834 9.82387 1.85296 9.8181 1.84711C9.81567 1.84464 9.81379 1.8425 9.81238 1.84081C9.53118 0.930525 8.71347 0 7.50077 0ZM9.37272 13.9643C9.37272 14.4474 9.1755 14.9106 8.82444 15.2522C8.47338 15.5938 7.99724 15.7857 7.50076 15.7857C7.00429 15.7857 6.52815 15.5938 6.17709 15.2522C5.82603 14.9106 5.62881 14.4474 5.62881 13.9643H9.37272ZM9.9967 12.75H13.5257C13.6493 12.75 13.7061 12.6945 13.7298 12.6491C13.7551 12.6004 13.752 12.5521 13.7129 12.5054C13.6527 12.4337 13.5921 12.3626 13.5314 12.2914L13.5313 12.2912C13.1129 11.8007 12.6913 11.3063 12.3895 10.5947C12.0426 9.77686 11.8636 8.71188 11.8636 7.03337C11.8636 5.63663 11.4995 4.75183 11.0392 4.16596C10.5737 3.57351 9.96399 3.22827 9.36917 2.99C9.04791 2.86143 8.73428 2.57417 8.62047 2.20094L8.62 2.19939C8.44014 1.6038 7.9812 1.21429 7.50077 1.21429C7.02036 1.21429 6.56155 1.60409 6.38399 2.19846L6.38354 2.19997C6.26906 2.57953 5.95206 2.86282 5.63437 2.98998L5.63422 2.99003C5.03814 3.22889 4.42876 3.57346 3.96367 4.16518C3.50372 4.75036 3.13989 5.63485 3.13989 7.03337V7.03372C3.13889 8.71223 2.95934 9.77712 2.61221 10.5949C2.31022 11.3063 1.88865 11.8006 1.47038 12.2911L1.47028 12.2912C1.40953 12.3625 1.34885 12.4336 1.28861 12.5054L1.28857 12.5054C1.26374 12.535 1.25679 12.5592 1.25509 12.5775C1.25317 12.5982 1.25716 12.6229 1.27052 12.6484C1.29371 12.6926 1.35145 12.75 1.4797 12.75H5.00482H9.9967Z" fill="#000"/>
</svg>
