<svg width="16" height="16" viewBox="0 0 16 16" fill="none" xmlns="http://www.w3.org/2000/svg">
<path d="M8.00021 3.42871C7.43512 3.42871 6.88272 3.59628 6.41287 3.91023C5.94301 4.22417 5.57681 4.6704 5.36055 5.19247C5.1443 5.71455 5.08772 6.28902 5.19797 6.84325C5.30821 7.39749 5.58033 7.90658 5.97991 8.30616C6.37948 8.70574 6.88858 8.97785 7.44281 9.0881C7.99704 9.19834 8.57152 9.14176 9.09359 8.92551C9.61567 8.70926 10.0619 8.34305 10.3758 7.8732C10.6898 7.40334 10.8574 6.85094 10.8574 6.28585C10.8574 5.52809 10.5563 4.80137 10.0205 4.26555C9.4847 3.72973 8.75797 3.42871 8.00021 3.42871ZM8.00021 8.00014C7.66116 8.00014 7.32972 7.8996 7.0478 7.71123C6.76589 7.52286 6.54617 7.25513 6.41642 6.94188C6.28667 6.62864 6.25272 6.28395 6.31886 5.95141C6.38501 5.61887 6.54828 5.31342 6.78803 5.07367C7.02777 4.83392 7.33323 4.67065 7.66577 4.60451C7.99831 4.53836 8.34299 4.57231 8.65624 4.70206C8.96948 4.83181 9.23722 5.05153 9.42559 5.33345C9.61395 5.61536 9.7145 5.9468 9.7145 6.28585C9.71404 6.74037 9.53328 7.17614 9.21189 7.49753C8.8905 7.81893 8.45473 7.99968 8.00021 8.00014Z" fill="#000"/>
<path d="M8 0C6.41775 0 4.87103 0.469192 3.55544 1.34824C2.23985 2.22729 1.21447 3.47672 0.608967 4.93853C0.00346627 6.40034 -0.15496 8.00887 0.153721 9.56072C0.462403 11.1126 1.22433 12.538 2.34315 13.6569C3.46197 14.7757 4.88743 15.5376 6.43928 15.8463C7.99113 16.155 9.59966 15.9965 11.0615 15.391C12.5233 14.7855 13.7727 13.7602 14.6518 12.4446C15.5308 11.129 16 9.58225 16 8C15.9976 5.87901 15.1539 3.84558 13.6542 2.34582C12.1544 0.846052 10.121 0.00241984 8 0ZM4.57143 13.9297V13.1429C4.57189 12.6883 4.75264 12.2526 5.07404 11.9312C5.39543 11.6098 5.8312 11.429 6.28572 11.4286H9.71429C10.1688 11.429 10.6046 11.6098 10.926 11.9312C11.2474 12.2526 11.4281 12.6883 11.4286 13.1429V13.9297C10.3881 14.5373 9.20487 14.8574 8 14.8574C6.79514 14.8574 5.61191 14.5373 4.57143 13.9297ZM12.5669 13.1006C12.5555 12.351 12.2501 11.636 11.7165 11.1095C11.183 10.583 10.4639 10.2871 9.71429 10.2857H6.28572C5.53611 10.2871 4.81705 10.583 4.28348 11.1095C3.74991 11.636 3.44453 12.351 3.43315 13.1006C2.3969 12.1753 1.66613 10.9571 1.33762 9.60723C1.00911 8.2574 1.09835 6.83962 1.59351 5.54163C2.08868 4.24364 2.96641 3.12667 4.1105 2.33861C5.25459 1.55055 6.61105 1.12859 8.00029 1.12859C9.38952 1.12859 10.746 1.55055 11.8901 2.33861C13.0342 3.12667 13.9119 4.24364 14.4071 5.54163C14.9022 6.83962 14.9915 8.2574 14.663 9.60723C14.3344 10.9571 13.6037 12.1753 12.5674 13.1006H12.5669Z" fill="#000"/>
</svg>
