<svg width="333" height="24" viewBox="0 0 333 24" fill="none" xmlns="http://www.w3.org/2000/svg">
<path d="M6.675 19.15C5.375 19.15 4.125 18.9417 2.925 18.525C1.74167 18.1083 0.825 17.5583 0.175 16.875L0.9 15.45C1.53333 16.0833 2.375 16.6 3.425 17C4.475 17.3833 5.55833 17.575 6.675 17.575C8.24167 17.575 9.41667 17.2917 10.2 16.725C10.9833 16.1417 11.375 15.3917 11.375 14.475C11.375 13.775 11.1583 13.2167 10.725 12.8C10.3083 12.3833 9.79167 12.0667 9.175 11.85C8.55833 11.6167 7.7 11.3667 6.6 11.1C5.28333 10.7667 4.23333 10.45 3.45 10.15C2.66667 9.83333 1.99167 9.35833 1.425 8.725C0.875 8.09167 0.6 7.23333 0.6 6.15C0.6 5.26667 0.833333 4.46667 1.3 3.75C1.76667 3.01667 2.48333 2.43333 3.45 2C4.41667 1.56667 5.61667 1.35 7.05 1.35C8.05 1.35 9.025 1.49167 9.975 1.775C10.9417 2.04167 11.775 2.41667 12.475 2.9L11.85 4.375C11.1167 3.89167 10.3333 3.53333 9.5 3.3C8.66667 3.05 7.85 2.925 7.05 2.925C5.51667 2.925 4.35833 3.225 3.575 3.825C2.80833 4.40833 2.425 5.16667 2.425 6.1C2.425 6.8 2.63333 7.36667 3.05 7.8C3.48333 8.21667 4.01667 8.54167 4.65 8.775C5.3 8.99167 6.16667 9.23333 7.25 9.5C8.53333 9.81667 9.56667 10.1333 10.35 10.45C11.15 10.75 11.825 11.2167 12.375 11.85C12.925 12.4667 13.2 13.3083 13.2 14.375C13.2 15.2583 12.9583 16.0667 12.475 16.8C12.0083 17.5167 11.2833 18.0917 10.3 18.525C9.31667 18.9417 8.10833 19.15 6.675 19.15ZM21.4559 5.75C23.1725 5.75 24.4892 6.18333 25.4059 7.05C26.3225 7.9 26.7809 9.16667 26.7809 10.85V19H25.0809V16.95C24.6809 17.6333 24.0892 18.1667 23.3059 18.55C22.5392 18.9333 21.6225 19.125 20.5559 19.125C19.0892 19.125 17.9225 18.775 17.0559 18.075C16.1892 17.375 15.7559 16.45 15.7559 15.3C15.7559 14.1833 16.1559 13.2833 16.9559 12.6C17.7725 11.9167 19.0642 11.575 20.8309 11.575H25.0059V10.775C25.0059 9.64167 24.6892 8.78333 24.0559 8.2C23.4225 7.6 22.4975 7.3 21.2809 7.3C20.4475 7.3 19.6475 7.44167 18.8809 7.725C18.1142 7.99167 17.4559 8.36667 16.9059 8.85L16.1059 7.525C16.7725 6.95833 17.5725 6.525 18.5059 6.225C19.4392 5.90833 20.4225 5.75 21.4559 5.75ZM20.8309 17.725C21.8309 17.725 22.6892 17.5 23.4059 17.05C24.1225 16.5833 24.6559 15.9167 25.0059 15.05V12.9H20.8809C18.6309 12.9 17.5059 13.6833 17.5059 15.25C17.5059 16.0167 17.7975 16.625 18.3809 17.075C18.9642 17.5083 19.7809 17.725 20.8309 17.725ZM42.4078 5.85L36.5578 19H34.7328L28.9078 5.85H30.7578L35.6828 17.05L40.6578 5.85H42.4078ZM55.9914 12.975H44.9914C45.0914 14.3417 45.6164 15.45 46.5664 16.3C47.5164 17.1333 48.7164 17.55 50.1664 17.55C50.9831 17.55 51.7331 17.4083 52.4164 17.125C53.0997 16.825 53.6914 16.3917 54.1914 15.825L55.1914 16.975C54.6081 17.675 53.8747 18.2083 52.9914 18.575C52.1247 18.9417 51.1664 19.125 50.1164 19.125C48.7664 19.125 47.5664 18.8417 46.5164 18.275C45.4831 17.6917 44.6747 16.8917 44.0914 15.875C43.5081 14.8583 43.2164 13.7083 43.2164 12.425C43.2164 11.1417 43.4914 9.99167 44.0414 8.975C44.6081 7.95833 45.3747 7.16667 46.3414 6.6C47.3247 6.03333 48.4247 5.75 49.6414 5.75C50.8581 5.75 51.9497 6.03333 52.9164 6.6C53.8831 7.16667 54.6414 7.95833 55.1914 8.975C55.7414 9.975 56.0164 11.125 56.0164 12.425L55.9914 12.975ZM49.6414 7.275C48.3747 7.275 47.3081 7.68333 46.4414 8.5C45.5914 9.3 45.1081 10.35 44.9914 11.65H54.3164C54.1997 10.35 53.7081 9.3 52.8414 8.5C51.9914 7.68333 50.9247 7.275 49.6414 7.275ZM69.9473 3.1H63.7973V1.5H77.9473V3.1H71.7973V19H69.9473V3.1ZM87.2277 5.75C88.8777 5.75 90.1861 6.23333 91.1527 7.2C92.1361 8.15 92.6277 9.54167 92.6277 11.375V19H90.8527V11.55C90.8527 10.1833 90.5111 9.14167 89.8277 8.425C89.1444 7.70833 88.1694 7.35 86.9027 7.35C85.4861 7.35 84.3611 7.775 83.5277 8.625C82.7111 9.45833 82.3027 10.6167 82.3027 12.1V19H80.5277V0.449999H82.3027V8.15C82.7861 7.38333 83.4527 6.79167 84.3027 6.375C85.1527 5.95833 86.1277 5.75 87.2277 5.75ZM108.946 12.975H97.9455C98.0455 14.3417 98.5705 15.45 99.5205 16.3C100.471 17.1333 101.671 17.55 103.121 17.55C103.937 17.55 104.687 17.4083 105.371 17.125C106.054 16.825 106.646 16.3917 107.146 15.825L108.146 16.975C107.562 17.675 106.829 18.2083 105.946 18.575C105.079 18.9417 104.121 19.125 103.071 19.125C101.721 19.125 100.521 18.8417 99.4705 18.275C98.4372 17.6917 97.6288 16.8917 97.0455 15.875C96.4622 14.8583 96.1705 13.7083 96.1705 12.425C96.1705 11.1417 96.4455 9.99167 96.9955 8.975C97.5622 7.95833 98.3288 7.16667 99.2955 6.6C100.279 6.03333 101.379 5.75 102.596 5.75C103.812 5.75 104.904 6.03333 105.871 6.6C106.837 7.16667 107.596 7.95833 108.146 8.975C108.696 9.975 108.971 11.125 108.971 12.425L108.946 12.975ZM102.596 7.275C101.329 7.275 100.262 7.68333 99.3955 8.5C98.5455 9.3 98.0622 10.35 97.9455 11.65H107.271C107.154 10.35 106.662 9.3 105.796 8.5C104.946 7.68333 103.879 7.275 102.596 7.275ZM119.501 1.5H126.626C128.476 1.5 130.11 1.875 131.526 2.625C132.943 3.35833 134.043 4.39167 134.826 5.725C135.61 7.04167 136.001 8.55 136.001 10.25C136.001 11.95 135.61 13.4667 134.826 14.8C134.043 16.1167 132.943 17.15 131.526 17.9C130.11 18.6333 128.476 19 126.626 19H119.501V1.5ZM126.526 17.4C128.06 17.4 129.401 17.1 130.551 16.5C131.701 15.8833 132.593 15.0417 133.226 13.975C133.86 12.8917 134.176 11.65 134.176 10.25C134.176 8.85 133.86 7.61667 133.226 6.55C132.593 5.46667 131.701 4.625 130.551 4.025C129.401 3.40833 128.06 3.1 126.526 3.1H121.351V17.4H126.526ZM144.381 5.75C146.097 5.75 147.414 6.18333 148.331 7.05C149.247 7.9 149.706 9.16667 149.706 10.85V19H148.006V16.95C147.606 17.6333 147.014 18.1667 146.231 18.55C145.464 18.9333 144.547 19.125 143.481 19.125C142.014 19.125 140.847 18.775 139.981 18.075C139.114 17.375 138.681 16.45 138.681 15.3C138.681 14.1833 139.081 13.2833 139.881 12.6C140.697 11.9167 141.989 11.575 143.756 11.575H147.931V10.775C147.931 9.64167 147.614 8.78333 146.981 8.2C146.347 7.6 145.422 7.3 144.206 7.3C143.372 7.3 142.572 7.44167 141.806 7.725C141.039 7.99167 140.381 8.36667 139.831 8.85L139.031 7.525C139.697 6.95833 140.497 6.525 141.431 6.225C142.364 5.90833 143.347 5.75 144.381 5.75ZM143.756 17.725C144.756 17.725 145.614 17.5 146.331 17.05C147.047 16.5833 147.581 15.9167 147.931 15.05V12.9H143.806C141.556 12.9 140.431 13.6833 140.431 15.25C140.431 16.0167 140.722 16.625 141.306 17.075C141.889 17.5083 142.706 17.725 143.756 17.725ZM161.452 18.2C161.118 18.5 160.702 18.7333 160.202 18.9C159.718 19.05 159.21 19.125 158.677 19.125C157.443 19.125 156.493 18.7917 155.827 18.125C155.16 17.4583 154.827 16.5167 154.827 15.3V7.35H152.477V5.85H154.827V2.975H156.602V5.85H160.602V7.35H156.602V15.2C156.602 15.9833 156.793 16.5833 157.177 17C157.577 17.4 158.143 17.6 158.877 17.6C159.243 17.6 159.593 17.5417 159.927 17.425C160.277 17.3083 160.577 17.1417 160.827 16.925L161.452 18.2ZM175.669 12.975H164.669C164.769 14.3417 165.294 15.45 166.244 16.3C167.194 17.1333 168.394 17.55 169.844 17.55C170.661 17.55 171.411 17.4083 172.094 17.125C172.777 16.825 173.369 16.3917 173.869 15.825L174.869 16.975C174.286 17.675 173.552 18.2083 172.669 18.575C171.802 18.9417 170.844 19.125 169.794 19.125C168.444 19.125 167.244 18.8417 166.194 18.275C165.161 17.6917 164.352 16.8917 163.769 15.875C163.186 14.8583 162.894 13.7083 162.894 12.425C162.894 11.1417 163.169 9.99167 163.719 8.975C164.286 7.95833 165.052 7.16667 166.019 6.6C167.002 6.03333 168.102 5.75 169.319 5.75C170.536 5.75 171.627 6.03333 172.594 6.6C173.561 7.16667 174.319 7.95833 174.869 8.975C175.419 9.975 175.694 11.125 175.694 12.425L175.669 12.975ZM169.319 7.275C168.052 7.275 166.986 7.68333 166.119 8.5C165.269 9.3 164.786 10.35 164.669 11.65H173.994C173.877 10.35 173.386 9.3 172.519 8.5C171.669 7.68333 170.602 7.275 169.319 7.275ZM179.482 8.475C179.115 8.475 178.799 8.34167 178.532 8.075C178.282 7.80833 178.157 7.48333 178.157 7.1C178.157 6.71667 178.282 6.4 178.532 6.15C178.799 5.88333 179.115 5.75 179.482 5.75C179.849 5.75 180.165 5.88333 180.432 6.15C180.699 6.4 180.832 6.71667 180.832 7.1C180.832 7.48333 180.699 7.80833 180.432 8.075C180.165 8.34167 179.849 8.475 179.482 8.475ZM179.482 19.125C179.115 19.125 178.799 18.9917 178.532 18.725C178.282 18.4583 178.157 18.1333 178.157 17.75C178.157 17.3667 178.282 17.05 178.532 16.8C178.799 16.5333 179.115 16.4 179.482 16.4C179.849 16.4 180.165 16.5333 180.432 16.8C180.699 17.05 180.832 17.3667 180.832 17.75C180.832 18.1333 180.699 18.4583 180.432 18.725C180.165 18.9917 179.849 19.125 179.482 19.125ZM201.923 17.4V19H189.648V17.725L196.923 10.6C197.84 9.7 198.456 8.925 198.773 8.275C199.106 7.60833 199.273 6.94167 199.273 6.275C199.273 5.24167 198.915 4.44167 198.198 3.875C197.498 3.29167 196.49 3 195.173 3C193.123 3 191.531 3.65 190.398 4.95L189.123 3.85C189.806 3.05 190.673 2.43333 191.723 2C192.79 1.56667 193.99 1.35 195.323 1.35C197.106 1.35 198.515 1.775 199.548 2.625C200.598 3.45833 201.123 4.60833 201.123 6.075C201.123 6.975 200.923 7.84167 200.523 8.675C200.123 9.50833 199.365 10.4667 198.248 11.55L192.298 17.4H201.923ZM210.132 9C211.965 9.1 213.357 9.6 214.307 10.5C215.274 11.3833 215.757 12.5417 215.757 13.975C215.757 14.975 215.515 15.8667 215.032 16.65C214.549 17.4167 213.832 18.025 212.882 18.475C211.932 18.925 210.774 19.15 209.407 19.15C208.14 19.15 206.94 18.95 205.807 18.55C204.69 18.1333 203.79 17.5833 203.107 16.9L203.982 15.475C204.565 16.075 205.34 16.5667 206.307 16.95C207.274 17.3167 208.307 17.5 209.407 17.5C210.84 17.5 211.949 17.1917 212.732 16.575C213.515 15.9417 213.907 15.075 213.907 13.975C213.907 12.8917 213.515 12.0417 212.732 11.425C211.949 10.8083 210.765 10.5 209.182 10.5H207.932V9.175L212.782 3.1H203.832V1.5H215.082V2.775L210.132 9ZM244.561 1.5V19H242.786V5L235.911 16.775H235.036L228.161 5.075V19H226.386V1.5H227.911L235.511 14.475L243.036 1.5H244.561ZM254.488 5.75C256.205 5.75 257.521 6.18333 258.438 7.05C259.355 7.9 259.813 9.16667 259.813 10.85V19H258.113V16.95C257.713 17.6333 257.121 18.1667 256.338 18.55C255.571 18.9333 254.655 19.125 253.588 19.125C252.121 19.125 250.955 18.775 250.088 18.075C249.221 17.375 248.788 16.45 248.788 15.3C248.788 14.1833 249.188 13.2833 249.988 12.6C250.805 11.9167 252.096 11.575 253.863 11.575H258.038V10.775C258.038 9.64167 257.721 8.78333 257.088 8.2C256.455 7.6 255.53 7.3 254.313 7.3C253.48 7.3 252.68 7.44167 251.913 7.725C251.146 7.99167 250.488 8.36667 249.938 8.85L249.138 7.525C249.805 6.95833 250.605 6.525 251.538 6.225C252.471 5.90833 253.455 5.75 254.488 5.75ZM253.863 17.725C254.863 17.725 255.721 17.5 256.438 17.05C257.155 16.5833 257.688 15.9167 258.038 15.05V12.9H253.913C251.663 12.9 250.538 13.6833 250.538 15.25C250.538 16.0167 250.83 16.625 251.413 17.075C251.996 17.5083 252.813 17.725 253.863 17.725ZM275.44 5.85L268.865 20.575C268.332 21.8083 267.715 22.6833 267.015 23.2C266.315 23.7167 265.473 23.975 264.49 23.975C263.857 23.975 263.265 23.875 262.715 23.675C262.165 23.475 261.69 23.175 261.29 22.775L262.115 21.45C262.782 22.1167 263.582 22.45 264.515 22.45C265.115 22.45 265.623 22.2833 266.04 21.95C266.473 21.6167 266.873 21.05 267.24 20.25L267.815 18.975L261.94 5.85H263.79L268.74 17.025L273.69 5.85H275.44ZM295.258 17.4V19H282.983V17.725L290.258 10.6C291.174 9.7 291.791 8.925 292.108 8.275C292.441 7.60833 292.608 6.94167 292.608 6.275C292.608 5.24167 292.249 4.44167 291.533 3.875C290.833 3.29167 289.824 3 288.508 3C286.458 3 284.866 3.65 283.733 4.95L282.458 3.85C283.141 3.05 284.008 2.43333 285.058 2C286.124 1.56667 287.324 1.35 288.658 1.35C290.441 1.35 291.849 1.775 292.883 2.625C293.933 3.45833 294.458 4.60833 294.458 6.075C294.458 6.975 294.258 7.84167 293.858 8.675C293.458 9.50833 292.699 10.4667 291.583 11.55L285.633 17.4H295.258ZM304.394 19.15C303.044 19.15 301.836 18.7917 300.769 18.075C299.719 17.3583 298.894 16.3333 298.294 15C297.711 13.65 297.419 12.0667 297.419 10.25C297.419 8.43333 297.711 6.85833 298.294 5.525C298.894 4.175 299.719 3.14167 300.769 2.425C301.836 1.70833 303.044 1.35 304.394 1.35C305.744 1.35 306.944 1.70833 307.994 2.425C309.061 3.14167 309.894 4.175 310.494 5.525C311.094 6.85833 311.394 8.43333 311.394 10.25C311.394 12.0667 311.094 13.65 310.494 15C309.894 16.3333 309.061 17.3583 307.994 18.075C306.944 18.7917 305.744 19.15 304.394 19.15ZM304.394 17.5C305.411 17.5 306.302 17.2167 307.069 16.65C307.852 16.0833 308.461 15.2583 308.894 14.175C309.327 13.0917 309.544 11.7833 309.544 10.25C309.544 8.71667 309.327 7.40833 308.894 6.325C308.461 5.24167 307.852 4.41667 307.069 3.85C306.302 3.28333 305.411 3 304.394 3C303.377 3 302.477 3.28333 301.694 3.85C300.927 4.41667 300.327 5.24167 299.894 6.325C299.461 7.40833 299.244 8.71667 299.244 10.25C299.244 11.7833 299.461 13.0917 299.894 14.175C300.327 15.2583 300.927 16.0833 301.694 16.65C302.477 17.2167 303.377 17.5 304.394 17.5ZM325.873 17.4V19H313.598V17.725L320.873 10.6C321.79 9.7 322.406 8.925 322.723 8.275C323.056 7.60833 323.223 6.94167 323.223 6.275C323.223 5.24167 322.865 4.44167 322.148 3.875C321.448 3.29167 320.44 3 319.123 3C317.073 3 315.481 3.65 314.348 4.95L313.073 3.85C313.756 3.05 314.623 2.43333 315.673 2C316.74 1.56667 317.94 1.35 319.273 1.35C321.056 1.35 322.465 1.775 323.498 2.625C324.548 3.45833 325.073 4.60833 325.073 6.075C325.073 6.975 324.873 7.84167 324.473 8.675C324.073 9.50833 323.315 10.4667 322.198 11.55L316.248 17.4H325.873ZM332.982 1.5V19H331.182V3.1H327.057V1.5H332.982Z" fill="#09549F"/>
</svg>
