<svg width="219" height="60" viewBox="0 0 219 60" fill="none" xmlns="http://www.w3.org/2000/svg">
<rect width="218.37" height="60" rx="30" fill="white"/>
<path d="M42.7778 21H23.2223C22.6331 21.0007 22.0683 21.234 21.6517 21.6488C21.2351 22.0636 21.0007 22.626 21 23.2127V40.7838C20.9975 41.2057 21.1173 41.6194 21.345 41.9752C21.5728 42.331 21.8988 42.6137 22.284 42.7896C22.5795 42.9276 22.9018 42.9994 23.2281 43C23.7499 42.999 24.2545 42.8139 24.6523 42.4776L28.1064 39.5863H42.7778C43.3669 39.5856 43.9318 39.3523 44.3484 38.9375C44.765 38.5227 44.9993 37.9603 45 37.3737V23.2127C44.9993 22.626 44.765 22.0636 44.3484 21.6488C43.9318 21.234 43.3669 21.0007 42.7778 21V21ZM42.3333 36.9311H27.8524C27.6966 36.9312 27.542 36.9584 27.3957 37.0116L26.9865 37.1599C26.84 37.213 26.7041 37.2913 26.5848 37.3911L23.6667 39.8337V23.6552H42.3333V36.9311ZM28.1111 28.0805C28.1111 27.7284 28.2516 27.3907 28.5017 27.1417C28.7517 26.8928 29.0908 26.7529 29.4445 26.7529H36.5556C36.9092 26.7529 37.2483 26.8928 37.4984 27.1417C37.7484 27.3907 37.8889 27.7284 37.8889 28.0805C37.8889 28.4326 37.7484 28.7703 37.4984 29.0193C37.2483 29.2682 36.9092 29.4081 36.5556 29.4081H29.4445C29.0908 29.4081 28.7517 29.2682 28.5017 29.0193C28.2516 28.7703 28.1111 28.4326 28.1111 28.0805ZM28.1111 32.5058C28.1111 32.1537 28.2516 31.816 28.5017 31.5671C28.7517 31.3181 29.0908 31.1782 29.4445 31.1782H36.5556C36.9092 31.1782 37.2483 31.3181 37.4984 31.5671C37.7484 31.816 37.8889 32.1537 37.8889 32.5058C37.8889 32.8579 37.7484 33.1956 37.4984 33.4446C37.2483 33.6935 36.9092 33.8334 36.5556 33.8334H29.4445C29.0908 33.8334 28.7517 33.6935 28.5017 33.4446C28.2516 33.1956 28.1111 32.8579 28.1111 32.5058Z" fill="#0869A8"/>
<path d="M69.184 24.8V36H68.016V30.832H61.008V36H59.824V24.8H61.008V29.792H68.016V24.8H69.184ZM79.9276 32.144H72.8876C72.9516 33.0187 73.2876 33.728 73.8956 34.272C74.5036 34.8053 75.2716 35.072 76.1996 35.072C76.7223 35.072 77.2023 34.9813 77.6396 34.8C78.077 34.608 78.4556 34.3307 78.7756 33.968L79.4156 34.704C79.0423 35.152 78.573 35.4933 78.0076 35.728C77.453 35.9627 76.8396 36.08 76.1676 36.08C75.3036 36.08 74.5356 35.8987 73.8636 35.536C73.2023 35.1627 72.685 34.6507 72.3116 34C71.9383 33.3493 71.7516 32.6133 71.7516 31.792C71.7516 30.9707 71.9276 30.2347 72.2796 29.584C72.6423 28.9333 73.133 28.4267 73.7516 28.064C74.381 27.7013 75.085 27.52 75.8636 27.52C76.6423 27.52 77.341 27.7013 77.9596 28.064C78.5783 28.4267 79.0636 28.9333 79.4156 29.584C79.7676 30.224 79.9436 30.96 79.9436 31.792L79.9276 32.144ZM75.8636 28.496C75.053 28.496 74.3703 28.7573 73.8156 29.28C73.2716 29.792 72.9623 30.464 72.8876 31.296H78.8556C78.781 30.464 78.4663 29.792 77.9116 29.28C77.3676 28.7573 76.685 28.496 75.8636 28.496ZM82.2559 24.128H83.3919V36H82.2559V24.128ZM90.8888 27.52C91.6781 27.52 92.3928 27.7013 93.0328 28.064C93.6728 28.416 94.1741 28.9173 94.5368 29.568C94.8994 30.2187 95.0808 30.96 95.0808 31.792C95.0808 32.6347 94.8994 33.3813 94.5368 34.032C94.1741 34.6827 93.6728 35.1893 93.0328 35.552C92.4034 35.904 91.6888 36.08 90.8888 36.08C90.2061 36.08 89.5874 35.9413 89.0328 35.664C88.4888 35.376 88.0408 34.96 87.6888 34.416V39.104H86.5528V27.584H87.6408V29.248C87.9821 28.6933 88.4301 28.2667 88.9848 27.968C89.5501 27.6693 90.1848 27.52 90.8888 27.52ZM90.8088 35.072C91.3954 35.072 91.9288 34.9387 92.4088 34.672C92.8888 34.3947 93.2621 34.0053 93.5288 33.504C93.8061 33.0027 93.9448 32.432 93.9448 31.792C93.9448 31.152 93.8061 30.5867 93.5288 30.096C93.2621 29.5947 92.8888 29.2053 92.4088 28.928C91.9288 28.6507 91.3954 28.512 90.8088 28.512C90.2114 28.512 89.6728 28.6507 89.1927 28.928C88.7234 29.2053 88.3501 29.5947 88.0728 30.096C87.8061 30.5867 87.6728 31.152 87.6728 31.792C87.6728 32.432 87.8061 33.0027 88.0728 33.504C88.3501 34.0053 88.7234 34.3947 89.1927 34.672C89.6728 34.9387 90.2114 35.072 90.8088 35.072ZM106.336 36.096C104.885 36.096 103.755 35.68 102.944 34.848C102.133 34.016 101.728 32.8053 101.728 31.216V24.8H102.912V31.168C102.912 32.4693 103.205 33.44 103.792 34.08C104.379 34.72 105.227 35.04 106.336 35.04C107.456 35.04 108.309 34.72 108.896 34.08C109.483 33.44 109.776 32.4693 109.776 31.168V24.8H110.928V31.216C110.928 32.8053 110.523 34.016 109.712 34.848C108.912 35.68 107.787 36.096 106.336 36.096ZM116.512 36.08C115.829 36.08 115.173 35.984 114.544 35.792C113.925 35.5893 113.44 35.3387 113.088 35.04L113.6 34.144C113.952 34.4213 114.395 34.6507 114.928 34.832C115.461 35.0027 116.016 35.088 116.592 35.088C117.36 35.088 117.925 34.9707 118.288 34.736C118.661 34.4907 118.848 34.1493 118.848 33.712C118.848 33.4027 118.747 33.1627 118.544 32.992C118.341 32.8107 118.085 32.6773 117.776 32.592C117.467 32.496 117.056 32.4053 116.544 32.32C115.861 32.192 115.312 32.064 114.896 31.936C114.48 31.7973 114.123 31.568 113.824 31.248C113.536 30.928 113.392 30.4853 113.392 29.92C113.392 29.216 113.685 28.64 114.272 28.192C114.859 27.744 115.675 27.52 116.72 27.52C117.264 27.52 117.808 27.5947 118.352 27.744C118.896 27.8827 119.344 28.0693 119.696 28.304L119.2 29.216C118.507 28.736 117.68 28.496 116.72 28.496C115.995 28.496 115.445 28.624 115.072 28.88C114.709 29.136 114.528 29.472 114.528 29.888C114.528 30.208 114.629 30.464 114.832 30.656C115.045 30.848 115.307 30.992 115.616 31.088C115.925 31.1733 116.352 31.264 116.896 31.36C117.568 31.488 118.107 31.616 118.512 31.744C118.917 31.872 119.264 32.0907 119.552 32.4C119.84 32.7093 119.984 33.136 119.984 33.68C119.984 34.416 119.675 35.0027 119.056 35.44C118.448 35.8667 117.6 36.08 116.512 36.08ZM126.512 24.8H127.696V36H126.512V24.8ZM141.596 27.52C142.652 27.52 143.478 27.824 144.076 28.432C144.684 29.04 144.988 29.936 144.988 31.12V36H143.852V31.232C143.852 30.3573 143.638 29.6907 143.212 29.232C142.796 28.7733 142.204 28.544 141.436 28.544C140.561 28.544 139.873 28.816 139.372 29.36C138.87 29.8933 138.62 30.6347 138.62 31.584V36H137.484V31.232C137.484 30.3573 137.27 29.6907 136.844 29.232C136.428 28.7733 135.83 28.544 135.052 28.544C134.188 28.544 133.5 28.816 132.988 29.36C132.486 29.8933 132.236 30.6347 132.236 31.584V36H131.1V27.584H132.188V29.12C132.486 28.608 132.902 28.2133 133.436 27.936C133.969 27.6587 134.582 27.52 135.276 27.52C135.98 27.52 136.588 27.6693 137.1 27.968C137.622 28.2667 138.012 28.7093 138.268 29.296C138.577 28.7413 139.02 28.3093 139.596 28C140.182 27.68 140.849 27.52 141.596 27.52ZM152.404 27.52C153.194 27.52 153.908 27.7013 154.548 28.064C155.188 28.416 155.69 28.9173 156.052 29.568C156.415 30.2187 156.596 30.96 156.596 31.792C156.596 32.6347 156.415 33.3813 156.052 34.032C155.69 34.6827 155.188 35.1893 154.548 35.552C153.919 35.904 153.204 36.08 152.404 36.08C151.722 36.08 151.103 35.9413 150.548 35.664C150.004 35.376 149.556 34.96 149.204 34.416V39.104H148.068V27.584H149.156V29.248C149.498 28.6933 149.946 28.2667 150.5 27.968C151.066 27.6693 151.7 27.52 152.404 27.52ZM152.324 35.072C152.911 35.072 153.444 34.9387 153.924 34.672C154.404 34.3947 154.778 34.0053 155.044 33.504C155.322 33.0027 155.46 32.432 155.46 31.792C155.46 31.152 155.322 30.5867 155.044 30.096C154.778 29.5947 154.404 29.2053 153.924 28.928C153.444 28.6507 152.911 28.512 152.324 28.512C151.727 28.512 151.188 28.6507 150.708 28.928C150.239 29.2053 149.866 29.5947 149.588 30.096C149.322 30.5867 149.188 31.152 149.188 31.792C149.188 32.432 149.322 33.0027 149.588 33.504C149.866 34.0053 150.239 34.3947 150.708 34.672C151.188 34.9387 151.727 35.072 152.324 35.072ZM160 29.232C160.267 28.6667 160.661 28.24 161.184 27.952C161.717 27.664 162.373 27.52 163.152 27.52V28.624L162.88 28.608C161.995 28.608 161.301 28.88 160.8 29.424C160.299 29.968 160.048 30.7307 160.048 31.712V36H158.912V27.584H160V29.232ZM168.571 36.08C167.76 36.08 167.03 35.8987 166.379 35.536C165.728 35.1627 165.216 34.6507 164.843 34C164.47 33.3493 164.283 32.6133 164.283 31.792C164.283 30.9707 164.47 30.2347 164.843 29.584C165.216 28.9333 165.728 28.4267 166.379 28.064C167.03 27.7013 167.76 27.52 168.571 27.52C169.382 27.52 170.112 27.7013 170.763 28.064C171.414 28.4267 171.92 28.9333 172.283 29.584C172.656 30.2347 172.843 30.9707 172.843 31.792C172.843 32.6133 172.656 33.3493 172.283 34C171.92 34.6507 171.414 35.1627 170.763 35.536C170.112 35.8987 169.382 36.08 168.571 36.08ZM168.571 35.072C169.168 35.072 169.702 34.9387 170.171 34.672C170.651 34.3947 171.024 34.0053 171.291 33.504C171.558 33.0027 171.691 32.432 171.691 31.792C171.691 31.152 171.558 30.5813 171.291 30.08C171.024 29.5787 170.651 29.1947 170.171 28.928C169.702 28.6507 169.168 28.512 168.571 28.512C167.974 28.512 167.435 28.6507 166.955 28.928C166.486 29.1947 166.112 29.5787 165.835 30.08C165.568 30.5813 165.435 31.152 165.435 31.792C165.435 32.432 165.568 33.0027 165.835 33.504C166.112 34.0053 166.486 34.3947 166.955 34.672C167.435 34.9387 167.974 35.072 168.571 35.072ZM182 27.584L178.256 36H177.088L173.36 27.584H174.544L177.696 34.752L180.88 27.584H182ZM190.693 32.144H183.653C183.717 33.0187 184.053 33.728 184.661 34.272C185.269 34.8053 186.037 35.072 186.965 35.072C187.488 35.072 187.968 34.9813 188.405 34.8C188.843 34.608 189.221 34.3307 189.541 33.968L190.181 34.704C189.808 35.152 189.339 35.4933 188.773 35.728C188.219 35.9627 187.605 36.08 186.933 36.08C186.069 36.08 185.301 35.8987 184.629 35.536C183.968 35.1627 183.451 34.6507 183.077 34C182.704 33.3493 182.517 32.6133 182.517 31.792C182.517 30.9707 182.693 30.2347 183.045 29.584C183.408 28.9333 183.899 28.4267 184.517 28.064C185.147 27.7013 185.851 27.52 186.629 27.52C187.408 27.52 188.107 27.7013 188.725 28.064C189.344 28.4267 189.829 28.9333 190.181 29.584C190.533 30.224 190.709 30.96 190.709 31.792L190.693 32.144ZM186.629 28.496C185.819 28.496 185.136 28.7573 184.581 29.28C184.037 29.792 183.728 30.464 183.653 31.296H189.621C189.547 30.464 189.232 29.792 188.677 29.28C188.133 28.7573 187.451 28.496 186.629 28.496Z" fill="black"/>
</svg>
