<svg width="164" height="60" viewBox="0 0 164 60" fill="none" xmlns="http://www.w3.org/2000/svg">
<rect width="164" height="60" rx="30" fill="white"/>
<path d="M38.7778 21H19.2223C18.6331 21.0007 18.0683 21.234 17.6517 21.6488C17.2351 22.0636 17.0007 22.626 17 23.2127V40.7838C16.9975 41.2057 17.1173 41.6194 17.345 41.9752C17.5728 42.331 17.8988 42.6138 18.284 42.7896C18.5795 42.9276 18.9018 42.9994 19.2281 43C19.7499 42.999 20.2545 42.8139 20.6523 42.4776L24.1064 39.5863H38.7778C39.3669 39.5856 39.9318 39.3523 40.3484 38.9375C40.765 38.5227 40.9993 37.9603 41 37.3737V23.2127C40.9993 22.626 40.765 22.0636 40.3484 21.6488C39.9318 21.234 39.3669 21.0007 38.7778 21ZM38.3333 36.9311H23.8524C23.6966 36.9312 23.542 36.9584 23.3957 37.0116L22.9865 37.1599C22.84 37.213 22.7041 37.2913 22.5848 37.3911L19.6667 39.8337V23.6552H38.3333V36.9311ZM24.1111 28.0805C24.1111 27.7284 24.2516 27.3907 24.5017 27.1417C24.7517 26.8928 25.0908 26.7529 25.4445 26.7529H32.5556C32.9092 26.7529 33.2483 26.8928 33.4984 27.1417C33.7484 27.3907 33.8889 27.7284 33.8889 28.0805C33.8889 28.4326 33.7484 28.7703 33.4984 29.0193C33.2483 29.2682 32.9092 29.4081 32.5556 29.4081H25.4445C25.0908 29.4081 24.7517 29.2682 24.5017 29.0193C24.2516 28.7703 24.1111 28.4326 24.1111 28.0805ZM24.1111 32.5058C24.1111 32.1537 24.2516 31.816 24.5017 31.5671C24.7517 31.3181 25.0908 31.1782 25.4445 31.1782H32.5556C32.9092 31.1782 33.2483 31.3181 33.4984 31.5671C33.7484 31.816 33.8889 32.1537 33.8889 32.5058C33.8889 32.8579 33.7484 33.1956 33.4984 33.4446C33.2483 33.6935 32.9092 33.8334 32.5556 33.8334H25.4445C25.0908 33.8334 24.7517 33.6935 24.5017 33.4446C24.2516 33.1956 24.1111 32.8579 24.1111 32.5058Z" fill="#0869A8"/>
<path d="M59.712 30.4H60.848V34.672C60.3253 35.1307 59.7067 35.4827 58.992 35.728C58.2773 35.9733 57.5253 36.096 56.736 36.096C55.616 36.096 54.608 35.8507 53.712 35.36C52.816 34.8693 52.112 34.192 51.6 33.328C51.088 32.4533 50.832 31.4773 50.832 30.4C50.832 29.3227 51.088 28.352 51.6 27.488C52.112 26.6133 52.816 25.9307 53.712 25.44C54.608 24.9493 55.6213 24.704 56.752 24.704C57.6053 24.704 58.3893 24.8427 59.104 25.12C59.8187 25.3867 60.4213 25.7867 60.912 26.32L60.176 27.072C59.2907 26.1973 58.1653 25.76 56.8 25.76C55.8933 25.76 55.072 25.9627 54.336 26.368C53.6107 26.7627 53.04 27.3173 52.624 28.032C52.208 28.736 52 29.5253 52 30.4C52 31.2747 52.208 32.064 52.624 32.768C53.04 33.472 53.6107 34.0267 54.336 34.432C55.0613 34.8373 55.8773 35.04 56.784 35.04C57.936 35.04 58.912 34.752 59.712 34.176V30.4ZM71.287 32.144H64.247C64.311 33.0187 64.647 33.728 65.255 34.272C65.863 34.8053 66.631 35.072 67.559 35.072C68.0817 35.072 68.5617 34.9813 68.999 34.8C69.4363 34.608 69.815 34.3307 70.135 33.968L70.775 34.704C70.4017 35.152 69.9323 35.4933 69.367 35.728C68.8123 35.9627 68.199 36.08 67.527 36.08C66.663 36.08 65.895 35.8987 65.223 35.536C64.5617 35.1627 64.0443 34.6507 63.671 34C63.2977 33.3493 63.111 32.6133 63.111 31.792C63.111 30.9707 63.287 30.2347 63.639 29.584C64.0017 28.9333 64.4923 28.4267 65.111 28.064C65.7403 27.7013 66.4443 27.52 67.223 27.52C68.0017 27.52 68.7003 27.7013 69.319 28.064C69.9377 28.4267 70.423 28.9333 70.775 29.584C71.127 30.224 71.303 30.96 71.303 31.792L71.287 32.144ZM67.223 28.496C66.4123 28.496 65.7297 28.7573 65.175 29.28C64.631 29.792 64.3217 30.464 64.247 31.296H70.215C70.1403 30.464 69.8257 29.792 69.271 29.28C68.727 28.7573 68.0443 28.496 67.223 28.496ZM78.0473 35.488C77.8339 35.68 77.5673 35.8293 77.2473 35.936C76.9379 36.032 76.6126 36.08 76.2713 36.08C75.4819 36.08 74.8739 35.8667 74.4473 35.44C74.0206 35.0133 73.8073 34.4107 73.8073 33.632V28.544H72.3033V27.584H73.8073V25.744H74.9433V27.584H77.5033V28.544H74.9433V33.568C74.9433 34.0693 75.0659 34.4533 75.3113 34.72C75.5673 34.976 75.9299 35.104 76.3993 35.104C76.6339 35.104 76.8579 35.0667 77.0713 34.992C77.2953 34.9173 77.4873 34.8107 77.6473 34.672L78.0473 35.488ZM84.3028 27.584H85.4388V36H84.3028V27.584ZM84.8788 25.744C84.6441 25.744 84.4468 25.664 84.2868 25.504C84.1268 25.344 84.0468 25.152 84.0468 24.928C84.0468 24.7147 84.1268 24.528 84.2868 24.368C84.4468 24.208 84.6441 24.128 84.8788 24.128C85.1134 24.128 85.3108 24.208 85.4708 24.368C85.6308 24.5173 85.7108 24.6987 85.7108 24.912C85.7108 25.1467 85.6308 25.344 85.4708 25.504C85.3108 25.664 85.1134 25.744 84.8788 25.744ZM92.8876 27.52C93.9436 27.52 94.781 27.8293 95.3996 28.448C96.029 29.056 96.3436 29.9467 96.3436 31.12V36H95.2076V31.232C95.2076 30.3573 94.989 29.6907 94.5516 29.232C94.1143 28.7733 93.4903 28.544 92.6796 28.544C91.773 28.544 91.053 28.816 90.5196 29.36C89.997 29.8933 89.7356 30.6347 89.7356 31.584V36H88.5996V27.584H89.6876V29.136C89.997 28.624 90.4236 28.2293 90.9676 27.952C91.5223 27.664 92.1623 27.52 92.8876 27.52ZM108.047 35.488C107.834 35.68 107.567 35.8293 107.247 35.936C106.938 36.032 106.613 36.08 106.271 36.08C105.482 36.08 104.874 35.8667 104.447 35.44C104.021 35.0133 103.807 34.4107 103.807 33.632V28.544H102.303V27.584H103.807V25.744H104.943V27.584H107.503V28.544H104.943V33.568C104.943 34.0693 105.066 34.4533 105.311 34.72C105.567 34.976 105.93 35.104 106.399 35.104C106.634 35.104 106.858 35.0667 107.071 34.992C107.295 34.9173 107.487 34.8107 107.647 34.672L108.047 35.488ZM113.258 36.08C112.448 36.08 111.717 35.8987 111.066 35.536C110.416 35.1627 109.904 34.6507 109.53 34C109.157 33.3493 108.97 32.6133 108.97 31.792C108.97 30.9707 109.157 30.2347 109.53 29.584C109.904 28.9333 110.416 28.4267 111.066 28.064C111.717 27.7013 112.448 27.52 113.258 27.52C114.069 27.52 114.8 27.7013 115.45 28.064C116.101 28.4267 116.608 28.9333 116.97 29.584C117.344 30.2347 117.53 30.9707 117.53 31.792C117.53 32.6133 117.344 33.3493 116.97 34C116.608 34.6507 116.101 35.1627 115.45 35.536C114.8 35.8987 114.069 36.08 113.258 36.08ZM113.258 35.072C113.856 35.072 114.389 34.9387 114.858 34.672C115.338 34.3947 115.712 34.0053 115.978 33.504C116.245 33.0027 116.378 32.432 116.378 31.792C116.378 31.152 116.245 30.5813 115.978 30.08C115.712 29.5787 115.338 29.1947 114.858 28.928C114.389 28.6507 113.856 28.512 113.258 28.512C112.661 28.512 112.122 28.6507 111.642 28.928C111.173 29.1947 110.8 29.5787 110.522 30.08C110.256 30.5813 110.122 31.152 110.122 31.792C110.122 32.432 110.256 33.0027 110.522 33.504C110.8 34.0053 111.173 34.3947 111.642 34.672C112.122 34.9387 112.661 35.072 113.258 35.072ZM127.434 27.584V36H126.346V34.464C126.047 34.976 125.636 35.376 125.114 35.664C124.591 35.9413 123.994 36.08 123.322 36.08C122.223 36.08 121.354 35.776 120.714 35.168C120.084 34.5493 119.77 33.648 119.77 32.464V27.584H120.906V32.352C120.906 33.2373 121.124 33.9093 121.562 34.368C121.999 34.8267 122.623 35.056 123.434 35.056C124.319 35.056 125.018 34.7893 125.53 34.256C126.042 33.712 126.298 32.96 126.298 32V27.584H127.434ZM134.103 36.08C133.271 36.08 132.525 35.8987 131.863 35.536C131.213 35.1733 130.701 34.6667 130.327 34.016C129.954 33.3547 129.767 32.6133 129.767 31.792C129.767 30.9707 129.954 30.2347 130.327 29.584C130.701 28.9333 131.213 28.4267 131.863 28.064C132.525 27.7013 133.271 27.52 134.103 27.52C134.829 27.52 135.474 27.664 136.039 27.952C136.615 28.2293 137.069 28.64 137.399 29.184L136.551 29.76C136.274 29.344 135.922 29.0347 135.495 28.832C135.069 28.6187 134.605 28.512 134.103 28.512C133.495 28.512 132.946 28.6507 132.455 28.928C131.975 29.1947 131.597 29.5787 131.319 30.08C131.053 30.5813 130.919 31.152 130.919 31.792C130.919 32.4427 131.053 33.0187 131.319 33.52C131.597 34.0107 131.975 34.3947 132.455 34.672C132.946 34.9387 133.495 35.072 134.103 35.072C134.605 35.072 135.069 34.9707 135.495 34.768C135.922 34.5653 136.274 34.256 136.551 33.84L137.399 34.416C137.069 34.96 136.615 35.376 136.039 35.664C135.463 35.9413 134.818 36.08 134.103 36.08ZM143.794 27.52C144.85 27.52 145.687 27.8293 146.306 28.448C146.935 29.056 147.25 29.9467 147.25 31.12V36H146.114V31.232C146.114 30.3573 145.895 29.6907 145.458 29.232C145.021 28.7733 144.397 28.544 143.586 28.544C142.679 28.544 141.959 28.816 141.426 29.36C140.903 29.8933 140.642 30.6347 140.642 31.584V36H139.506V24.128H140.642V29.056C140.951 28.5653 141.378 28.1867 141.922 27.92C142.466 27.6533 143.09 27.52 143.794 27.52Z" fill="black"/>
</svg>
