<svg width="61" height="60" viewBox="0 0 61 60" fill="none" xmlns="http://www.w3.org/2000/svg">
<rect width="61" height="60" rx="30" fill="white"/>
<path d="M38.7778 21H19.2223C18.6331 21.0007 18.0683 21.234 17.6517 21.6488C17.2351 22.0636 17.0007 22.626 17 23.2127V40.7838C16.9975 41.2057 17.1173 41.6194 17.345 41.9752C17.5728 42.331 17.8988 42.6137 18.284 42.7896C18.5795 42.9276 18.9018 42.9994 19.2281 43C19.7499 42.999 20.2545 42.8139 20.6523 42.4776L24.1064 39.5863H38.7778C39.3669 39.5856 39.9318 39.3523 40.3484 38.9375C40.765 38.5227 40.9993 37.9603 41 37.3737V23.2127C40.9993 22.626 40.765 22.0636 40.3484 21.6488C39.9318 21.234 39.3669 21.0007 38.7778 21V21ZM38.3333 36.9311H23.8524C23.6966 36.9312 23.542 36.9584 23.3957 37.0116L22.9865 37.1599C22.84 37.213 22.7041 37.2913 22.5848 37.3911L19.6667 39.8337V23.6552H38.3333V36.9311ZM24.1111 28.0805C24.1111 27.7284 24.2516 27.3907 24.5017 27.1417C24.7517 26.8928 25.0908 26.7529 25.4445 26.7529H32.5556C32.9092 26.7529 33.2483 26.8928 33.4984 27.1417C33.7484 27.3907 33.8889 27.7284 33.8889 28.0805C33.8889 28.4326 33.7484 28.7703 33.4984 29.0193C33.2483 29.2682 32.9092 29.4081 32.5556 29.4081H25.4445C25.0908 29.4081 24.7517 29.2682 24.5017 29.0193C24.2516 28.7703 24.1111 28.4326 24.1111 28.0805ZM24.1111 32.5058C24.1111 32.1537 24.2516 31.816 24.5017 31.5671C24.7517 31.3181 25.0908 31.1782 25.4445 31.1782H32.5556C32.9092 31.1782 33.2483 31.3181 33.4984 31.5671C33.7484 31.816 33.8889 32.1537 33.8889 32.5058C33.8889 32.8579 33.7484 33.1956 33.4984 33.4446C33.2483 33.6935 32.9092 33.8334 32.5556 33.8334H25.4445C25.0908 33.8334 24.7517 33.6935 24.5017 33.4446C24.2516 33.1956 24.1111 32.8579 24.1111 32.5058Z" fill="#0869A8"/>
</svg>
