<svg width="164" height="60" viewBox="0 0 164 60" fill="none" xmlns="http://www.w3.org/2000/svg">
<rect width="164" height="60" rx="30" fill="#828282"/>
<path d="M62.7231 34.09C64.2681 34.09 65.6481 33.565 66.5781 32.545L65.8731 31.84C65.0181 32.725 63.9681 33.1 62.7681 33.1C60.2331 33.1 58.3281 31.24 58.3281 28.75C58.3281 26.26 60.2331 24.4 62.7681 24.4C63.9681 24.4 65.0181 24.775 65.8731 25.645L66.5781 24.94C65.6481 23.92 64.2681 23.41 62.7381 23.41C59.5731 23.41 57.2331 25.675 57.2331 28.75C57.2331 31.825 59.5731 34.09 62.7231 34.09ZM71.3622 26.05C70.1172 26.05 68.9472 26.44 68.1522 27.115L68.6322 27.91C69.2772 27.34 70.2372 26.98 71.2572 26.98C72.7272 26.98 73.4922 27.715 73.4922 29.065V29.545H70.9872C68.7222 29.545 67.9422 30.565 67.9422 31.78C67.9422 33.145 69.0372 34.075 70.8222 34.075C72.1272 34.075 73.0572 33.58 73.5372 32.77V34H74.5572V29.11C74.5572 27.07 73.4022 26.05 71.3622 26.05ZM70.9872 33.235C69.7272 33.235 68.9922 32.665 68.9922 31.75C68.9922 30.94 69.4872 30.34 71.0172 30.34H73.4922V31.63C73.0722 32.665 72.1872 33.235 70.9872 33.235ZM81.4698 26.05C80.1048 26.05 79.0398 26.605 78.4698 27.565V26.11H77.4498V34H78.5148V29.86C78.5148 28.06 79.5798 27.01 81.2748 27.01C82.7748 27.01 83.6448 27.865 83.6448 29.53V34H84.7098V29.425C84.7098 27.16 83.3898 26.05 81.4698 26.05ZM90.9005 34.075C92.2355 34.075 93.3605 33.535 93.9905 32.515L93.1955 31.975C92.6555 32.77 91.8155 33.13 90.9005 33.13C89.1755 33.13 87.9155 31.915 87.9155 30.055C87.9155 28.21 89.1755 26.98 90.9005 26.98C91.8155 26.98 92.6555 27.355 93.1955 28.15L93.9905 27.61C93.3605 26.575 92.2355 26.05 90.9005 26.05C88.5455 26.05 86.8355 27.7 86.8355 30.055C86.8355 32.41 88.5455 34.075 90.9005 34.075ZM102.836 30.055C102.836 27.685 101.231 26.05 99.0108 26.05C96.7908 26.05 95.1558 27.715 95.1558 30.055C95.1558 32.395 96.8358 34.075 99.2958 34.075C100.541 34.075 101.636 33.625 102.341 32.785L101.741 32.095C101.141 32.785 100.286 33.13 99.3258 33.13C97.6008 33.13 96.3408 32.035 96.2208 30.385H102.821C102.821 30.265 102.836 30.145 102.836 30.055ZM99.0108 26.965C100.556 26.965 101.681 28.045 101.816 29.59H96.2208C96.3558 28.045 97.4808 26.965 99.0108 26.965ZM105.004 34H106.069V22.87H105.004V34Z" fill="white"/>
</svg>
