<svg width="17" height="18" viewBox="0 0 17 18" fill="none" xmlns="http://www.w3.org/2000/svg">
<path d="M7.21889 14.9878C8.82056 14.9875 10.3761 14.4513 11.6378 13.4647L15.6045 17.4313L16.8805 16.1554L12.9137 12.1888C13.9009 10.9271 14.4374 9.37129 14.4378 7.76929C14.4378 3.78918 11.1992 0.550781 7.21889 0.550781C3.23858 0.550781 0 3.78918 0 7.76929C0 11.7494 3.23858 14.9878 7.21889 14.9878ZM7.21889 2.35541C10.2048 2.35541 12.6331 4.78353 12.6331 7.76929C12.6331 10.755 10.2048 13.1832 7.21889 13.1832C4.23298 13.1832 1.80472 10.755 1.80472 7.76929C1.80472 4.78353 4.23298 2.35541 7.21889 2.35541Z" fill="white"/>
</svg>
